<?xml version="1.0" standalone="no"?>
<!DOCTYPE svg PUBLIC "-//W3C//DTD SVG 1.1//EN" "http://www.w3.org/Graphics/SVG/1.1/DTD/svg11.dtd" >
<svg>
<metadata>
Created by FontForge 20090622 at Sun Sep 27 01:32:35 2015
 By deploy user
Copyright (c) 2008 by TypeTogether. Customised version for the government of Peru. All rights reserved.
</metadata>
<defs>
<font id="BreePeru-Oblique" horiz-adv-x="535" >
  <font-face 
    font-family="Bree Peru"
    font-weight="400"
    font-style="oblique"
    font-stretch="normal"
    units-per-em="1000"
    panose-1="2 0 5 3 4 0 0 9 0 4"
    ascent="720"
    descent="-280"
    x-height="503"
    cap-height="665"
    bbox="-276 -333 1228 907"
    underline-thickness="50"
    underline-position="-50"
    slope="-10"
    unicode-range="U+000D-U+FB04"
  />
<missing-glyph horiz-adv-x="500" 
 />
    <glyph glyph-name="ff" unicode="ff" horiz-adv-x="627" 
d="M256 410l-110 -620h-118l132 751q7 40 18 68.5t33.5 56.5t63 42.5t97.5 14.5q75 0 149 -36q47 36 128 36q76 0 133 -36l-42 -78q-46 24 -87 24q-74 0 -87 -83l-8 -47h147l-16 -93h-148l-109 -620h-119l109 620h-166zM280 550l-8 -47h166l7 38q8 42 21 71q-44 21 -93 21
q-42 0 -63.5 -19.5t-29.5 -63.5z" />
    <glyph glyph-name="fi" unicode="fi" horiz-adv-x="525" 
d="M256 410l-110 -620h-118l132 751q7 39 18.5 67.5t34 56.5t63 43t97.5 15q96 0 177 -45l-43 -79q-65 34 -128 34q-43 0 -67 -20t-32 -63l-8 -47h282l-89 -503h-119l72 410h-162z" />
    <glyph glyph-name="fl" unicode="fl" horiz-adv-x="607" 
d="M256 410l-110 -620h-118l132 751q7 40 18 68.5t34 56.5t63.5 42.5t98.5 14.5q65 0 144 -32l70 -9l-92 -519q-9 -47 -0.5 -66t38.5 -19q31 0 66 16l12 -80q-48 -31 -122 -31q-109 0 -120 81q-4 33 12 129l38 217h-164zM280 550l-8 -47h165l19 114q-39 16 -83 16
q-42 0 -63.5 -19.5t-29.5 -63.5z" />
    <glyph glyph-name="ffi" unicode="ffi" horiz-adv-x="809" 
d="M540 410l-110 -620h-118l109 620h-165l-110 -620h-118l132 751q7 39 18 68t33.5 57t62.5 42.5t97 14.5q79 0 151 -37q50 37 137 37q93 0 174 -46l-42 -78q-65 34 -124 34q-45 0 -70 -19t-33 -64l-8 -47h282l-89 -503h-119l72 410h-162zM280 550l-8 -47h165l7 38
q8 42 21 71q-50 21 -92 21t-63.5 -19.5t-29.5 -63.5z" />
    <glyph glyph-name="ffl" unicode="ffl" horiz-adv-x="892" 
d="M541 410l-110 -620h-119l110 620h-166l-110 -620h-118l132 751q6 38 17.5 66t34.5 56.5t64 44t98 15.5q81 0 151 -37q67 37 147 37q95 0 201 -40l-92 -519q-4 -21 -4 -40q0 -24 10 -34.5t33 -10.5q25 0 66 16l16 -81q-51 -29 -128 -29q-119 0 -119 110q0 21 5 53l46 262
h-165zM438 503l7 38q8 42 20 67q-46 25 -92 25q-44 0 -65 -21.5t-30 -72.5l-6 -36h166zM565 550l-8 -47h165l20 113q-43 17 -84 17q-78 0 -93 -83z" />
    <glyph glyph-name="tt" unicode="tt" horiz-adv-x="658" 
d="M494 695h119l-34 -192h135l-16 -93h-135l-45 -254q-3 -16 -3 -34q1 -28 12.5 -37t38.5 -9q35 0 75 22l24 -77q-24 -16 -64.5 -26t-76.5 -10q-130 0 -132 104q0 24 7 68l44 253h-187l-45 -254q-3 -17 -3 -34q1 -28 12.5 -37t38.5 -9q35 0 75 22l24 -77q-24 -16 -64.5 -26
t-76.5 -10q-130 0 -132 104q0 24 7 68l95 538h119l-34 -192h188z" />
    <glyph glyph-name=".notdef" horiz-adv-x="500" 
 />
    <glyph glyph-name=".null" horiz-adv-x="0" 
 />
    <glyph glyph-name=".null" horiz-adv-x="0" 
 />
    <glyph glyph-name="nonmarkingreturn" horiz-adv-x="333" 
 />
    <glyph glyph-name="CR" unicode="&#xd;" horiz-adv-x="220" 
 />
    <glyph glyph-name="space" unicode=" " horiz-adv-x="206" 
 />
    <glyph glyph-name="exclam" unicode="!" horiz-adv-x="265" 
d="M172 530l21 118q9 47 64 47q56 0 47 -49l-21 -116l-81 -350h-71zM72 40q0 31 24 53.5t56 22.5q29 0 44.5 -15t15.5 -40q0 -31 -23 -54t-57 -23q-29 0 -44.5 15.5t-15.5 40.5z" />
    <glyph glyph-name="quotedbl" unicode="&#x22;" horiz-adv-x="349" 
d="M173 665h93l-50 -230h-73zM316 665h94l-50 -230h-74z" />
    <glyph glyph-name="numbersign" unicode="#" horiz-adv-x="534" 
d="M289 0l41 157h-110l-41 -157h-73l41 157h-101l12 66h106l42 156h-101l11 66h107l43 160h73l-43 -160h110l43 160h73l-43 -160h101l-12 -66h-106l-42 -156h101l-11 -66h-107l-41 -157h-73zM279 379l-42 -156h110l42 156h-110z" />
    <glyph glyph-name="dollar" unicode="$" 
d="M68 77l55 89q59 -43 122 -53l32 184q-2 0 -4 2q-31 13 -50.5 24t-42 29.5t-33.5 45t-11 60.5q0 86 55 137.5t149 58.5l17 93h75l-17 -97q93 -18 150 -84l-72 -72q-54 51 -95 60l-31 -175l6 -2q32 -14 51.5 -25t42.5 -30t34.5 -46t11.5 -62q0 -85 -56.5 -139t-154.5 -62
l-21 -121h-75l21 123q-50 6 -93.5 24.5t-65.5 37.5zM390 200q0 40 -43 66l-27 -150q70 17 70 84zM257 481q0 -42 41 -68l25 141q-66 -15 -66 -73z" />
    <glyph glyph-name="percent" unicode="%" horiz-adv-x="801" 
d="M633 49q39 0 67 38.5t29 120.5q0 78 -53 78q-40 0 -68 -41.5t-28 -120.5q0 -75 53 -75zM683 351q62 0 98.5 -36t36.5 -106q0 -102 -51 -162t-138 -60q-67 0 -101.5 36t-34.5 104q0 104 53 164t137 60zM294 657q61 0 96 -37t35 -107q0 -100 -52 -160.5t-141 -60.5
q-64 0 -98 37.5t-34 108.5q0 102 54.5 160.5t139.5 58.5zM243 356q39 0 66 38.5t28 120.5q0 78 -55 78q-40 0 -67 -41.5t-27 -120.5q0 -75 55 -75zM292 -9l-73 36l403 627l75 -35z" />
    <glyph glyph-name="ampersand" unicode="&#x26;" horiz-adv-x="803" 
d="M366 82q81 0 145.5 47t99.5 148h185l-16 -91h-98q-101 -198 -332 -198q-131 0 -190 67.5t-59 168.5q0 133 82 230t221 97q64 0 105.5 -29.5t41.5 -78.5q0 -67 -61 -109q149 60 231 275l105 -33q-97 -230 -296 -304q-114 -44 -310 -47q-4 -72 37 -107.5t109 -35.5z
M383 457q-45 0 -87.5 -36.5t-63.5 -113.5q200 10 200 109q0 17 -12 29t-37 12z" />
    <glyph glyph-name="quotesingle" unicode="'" horiz-adv-x="206" 
d="M173 665h93l-50 -230h-73z" />
    <glyph glyph-name="parenleft" unicode="(" horiz-adv-x="320" 
d="M105 164q0 267 220 565l93 -51q-101 -148 -148 -265t-47 -246q0 -153 49 -303l-102 -42q-65 159 -65 342z" />
    <glyph glyph-name="parenright" unicode=")" horiz-adv-x="320" 
d="M310 379q0 -146 -55 -280.5t-167 -278.5l-89 56q103 154 148.5 265t45.5 243q0 145 -51 300l105 39q63 -158 63 -344z" />
    <glyph glyph-name="asterisk" unicode="*" horiz-adv-x="412" 
d="M320 541q32 -4 66.5 -27t34.5 -54q0 -20 -12 -32t-32 -12q-27 0 -41 24.5t-16 49t0 51.5zM340 575q17 33 50.5 57.5t67.5 24.5q18 0 28 -10.5t10 -26.5q0 -30 -27.5 -44t-62.5 -14q-43 0 -66 13zM282 541q-3 -28 -16 -56.5t-27 -43.5q-22 -25 -53 -25q-17 0 -26 10.5
t-9 24.5q0 38 45 62.5t86 27.5zM274 575q-29 -13 -68 -13q-28 0 -51 11.5t-23 37.5q0 20 13.5 33t31.5 13q33 0 60.5 -25.5t36.5 -56.5zM312 603q-27 30 -27 80q0 31 14.5 53t39.5 22q36 0 36 -41q0 -70 -63 -114z" />
    <glyph glyph-name="plus" unicode="+" 
d="M281 364l28 162h101l-28 -162h154l-17 -98h-154l-28 -159h-102l29 159h-155l17 98h155z" />
    <glyph glyph-name="comma" unicode="," horiz-adv-x="231" 
d="M207 74l-144 -229l-59 21q37 130 65 197q23 53 61 53q23 0 44.5 -14t32.5 -28z" />
    <glyph glyph-name="hyphen" unicode="-" horiz-adv-x="322" 
d="M71 242l16 92h262l-16 -92h-262z" />
    <glyph glyph-name="period" unicode="." horiz-adv-x="219" 
d="M48 41q0 34 23.5 57t58.5 23q29 0 44.5 -15t15.5 -40q0 -33 -22.5 -57t-58.5 -24q-30 0 -45.5 15t-15.5 41z" />
    <glyph glyph-name="slash" unicode="/" horiz-adv-x="428" 
d="M70 -120l-92 50l467 815l94 -48z" />
    <glyph glyph-name="zero" unicode="0" 
d="M387 657q86 0 133.5 -57.5t47.5 -166.5q0 -69 -9 -121q-30 -172 -103.5 -247t-192.5 -75q-184 0 -184 215q0 65 11 131q29 165 106.5 243t190.5 78zM282 86q56 0 95.5 49t63.5 181q8 46 8 120q0 123 -82 123q-57 0 -96 -52.5t-62 -186.5q-10 -55 -10 -114q0 -120 83 -120
z" />
    <glyph glyph-name="one" unicode="1" horiz-adv-x="454" 
d="M99 92h118l74 423l-144 -69l-30 77l218 121h106l-25 -94l-80 -458h114l-17 -92h-351z" />
    <glyph glyph-name="two" unicode="2" horiz-adv-x="513" 
d="M187 480l-53 79q115 98 238 98q78 0 122 -41.5t44 -107.5q0 -61 -28.5 -114t-90.5 -110l-205 -187h283l-18 -97h-444l14 77l262 247q52 49 75 83.5t23 74.5q0 32 -19.5 50t-49.5 18q-62 0 -153 -70z" />
    <glyph glyph-name="three" unicode="3" horiz-adv-x="515" 
d="M177 485l-46 75q45 38 112.5 67.5t136.5 29.5q79 0 119 -38.5t40 -95.5q0 -54 -25.5 -94t-83.5 -75q63 -76 63 -154q0 -90 -62 -151t-185 -61q-59 0 -114.5 16t-87.5 37l49 91q30 -19 73.5 -31.5t82.5 -12.5q54 0 88.5 28t34.5 78q0 52 -40 101q-42 -17 -118 -33l-18 88
q110 26 164 57t54 88q0 28 -18.5 43.5t-49.5 15.5q-69 0 -169 -69z" />
    <glyph glyph-name="four" unicode="4" horiz-adv-x="536" 
d="M428 436h75l-34 -187h90l-16 -95h-90l-27 -154h-121l28 155h-266l14 83l273 421l90 -47l-235 -363h146l13 69z" />
    <glyph glyph-name="five" unicode="5" horiz-adv-x="507" 
d="M129 303l103 341h330l-18 -99h-235l-49 -160q101 -6 164 -48.5t63 -132.5t-61.5 -152.5t-194.5 -62.5q-57 0 -115.5 17.5t-84.5 37.5l52 92q78 -48 152 -48q64 0 95.5 31t31.5 79q0 24 -9.5 42.5t-30 29.5t-38.5 17.5t-51 10t-51 4z" />
    <glyph glyph-name="six" unicode="6" 
d="M498 671l9 -92q-106 -18 -176 -72.5t-96 -138.5q78 42 152 42q68 0 105 -42.5t37 -107.5q0 -38 -3 -56q-15 -102 -81 -158.5t-172 -56.5q-92 0 -136 56t-44 149q0 58 8 102q59 329 397 375zM409 208q3 18 3 32q0 85 -72 85q-26 0 -63.5 -12t-57.5 -27q-9 -39 -9 -95
q0 -110 79 -110q46 0 78 30.5t42 96.5z" />
    <glyph glyph-name="seven" unicode="7" horiz-adv-x="468" 
d="M119 545l18 99h430l-15 -83q-249 -182 -307 -513l-8 -48h-126l10 56q53 300 272 489h-274z" />
    <glyph glyph-name="eight" unicode="8" 
d="M77 135q0 38 14 71.5t39.5 59t48 42t52.5 33.5q-75 54 -75 129q0 80 62 133.5t164 53.5q86 0 127.5 -38t41.5 -93q0 -100 -124 -178q91 -61 91 -148q0 -89 -64 -150t-189 -61q-97 0 -142.5 43t-45.5 103zM391 183q0 63 -84 110q-114 -64 -114 -140q0 -33 21 -54.5
t65 -21.5q51 0 81.5 30.5t30.5 75.5zM370 574q-44 0 -70.5 -24.5t-26.5 -61.5q0 -56 73 -97q95 58 95 122q0 28 -19.5 44.5t-51.5 16.5z" />
    <glyph glyph-name="nine" unicode="9" 
d="M150 -18l-10 90q105 17 175.5 69t94.5 136q-60 -43 -140 -43q-75 0 -115.5 43.5t-40.5 119.5q0 112 68 186t185 74q96 0 141 -58.5t45 -158.5q0 -61 -12 -118.5t-41.5 -115.5t-74 -103t-115.5 -78t-160 -43zM234 406q0 -41 20 -64.5t59 -23.5q28 0 60.5 12t55.5 31
q7 41 7 86q0 117 -82 117q-51 0 -85.5 -41.5t-34.5 -116.5z" />
    <glyph glyph-name="colon" unicode=":" horiz-adv-x="219" 
d="M48 41q0 34 23.5 57t58.5 23q29 0 44.5 -15t15.5 -40q0 -33 -22.5 -57t-58.5 -24q-30 0 -45.5 15t-15.5 41zM115 418q0 33 23 56.5t58 23.5q29 0 45 -15t16 -40q0 -33 -23 -57t-59 -24q-29 0 -44.5 15t-15.5 41z" />
    <glyph glyph-name="semicolon" unicode=";" horiz-adv-x="231" 
d="M207 74l-144 -229l-60 21q39 132 66 197q21 53 60 53q44 0 78 -42zM133 418q0 33 23 56.5t58 23.5q29 0 45 -15t16 -40q0 -33 -23 -57t-59 -24q-29 0 -44.5 15t-15.5 41z" />
    <glyph glyph-name="less" unicode="&#x3c;" 
d="M523 536l31 -90l-301 -128l252 -131l-54 -87l-333 181l14 77z" />
    <glyph glyph-name="equal" unicode="=" 
d="M545 450l-17 -96h-405l17 96h405zM511 259l-18 -96h-405l18 96h405z" />
    <glyph glyph-name="greater" unicode="&#x3e;" 
d="M395 327l-248 128l51 82l334 -178l-14 -78l-388 -176l-34 90z" />
    <glyph glyph-name="question" unicode="?" horiz-adv-x="383" 
d="M233 440q59 37 74 56q19 22 19 51q0 54 -55 54q-41 0 -119 -27l-4 92q85 29 148 29q73 0 109.5 -36t36.5 -92q0 -65 -31.5 -106t-112.5 -92q-32 -20 -45.5 -35.5t-18.5 -43.5l-20 -110h-91q3 64 11 105q10 59 30 91.5t69 63.5zM80 40q0 31 24 53.5t56 22.5q29 0 44.5 -15
t15.5 -40q0 -31 -23 -54t-57 -23q-29 0 -44.5 15.5t-15.5 40.5z" />
    <glyph glyph-name="at" unicode="@" horiz-adv-x="886" 
d="M576 123q47 0 75.5 53t28.5 103q0 66 -41.5 106.5t-121.5 40.5q-104 0 -177.5 -76t-73.5 -178q0 -82 49 -127.5t144 -45.5q139 0 240.5 85t101.5 216q0 107 -68 169.5t-191 62.5q-167 0 -280 -106t-113 -276q0 -110 73 -186t208 -76q112 0 197.5 35.5t154.5 113.5l40 -38
q-146 -167 -401 -167q-83 0 -148.5 26.5t-105 71.5t-59.5 100.5t-20 117.5q0 189 130 313.5t331 124.5q139 0 226 -75t87 -198q0 -163 -118 -265t-288 -102q-126 0 -188.5 63t-62.5 159q0 129 94.5 220t232.5 91q95 0 150.5 -52.5t55.5 -138.5q0 -81 -45 -148t-122 -67
q-49 0 -68 32q-37 -35 -84 -35q-38 0 -59 23.5t-21 64.5q0 79 48.5 138.5t132.5 59.5q39 0 92 -19l-52 -183q-10 -31 16 -31zM437 120q25 0 43.5 16.5t26.5 44.5l34 118q-20 5 -32 5q-48 0 -77.5 -43t-29.5 -98q0 -43 35 -43z" />
    <glyph glyph-name="A" unicode="A" horiz-adv-x="625" 
d="M141 0h-129l341 665h144l116 -665h-120l-28 176h-234zM409 553l-141 -285h185l-39 285h-5z" />
    <glyph glyph-name="B" unicode="B" horiz-adv-x="580" 
d="M187 665h225q191 0 191 -136q0 -112 -121 -170q102 -28 102 -131q0 -107 -77 -167.5t-218 -60.5h-219zM245 304l-36 -210h95q149 0 149 125q0 41 -28 63t-80 22h-100zM293 573l-32 -180h75q70 0 104.5 30.5t34.5 80.5q0 39 -26 54t-74 15h-82z" />
    <glyph glyph-name="C" unicode="C" horiz-adv-x="590" 
d="M364 89q78 0 168 70l52 -80q-114 -91 -245 -91q-116 0 -180.5 68.5t-64.5 196.5q0 114 31 199t84 132.5t113.5 70t129.5 22.5q148 0 216 -128l-93 -58q-50 83 -133 83q-98 0 -159 -83t-61 -221q0 -181 142 -181z" />
    <glyph glyph-name="D" unicode="D" horiz-adv-x="644" 
d="M70 0l117 665h217q126 0 195.5 -65t69.5 -188q0 -107 -30 -188t-83.5 -129t-119.5 -71.5t-144 -23.5h-222zM292 568l-83 -472h100q107 0 170.5 82t63.5 221q0 169 -161 169h-90z" />
    <glyph glyph-name="E" unicode="E" horiz-adv-x="509" 
d="M70 0l117 665h401l-18 -106h-280l-29 -167h240l-19 -105h-240l-31 -181h286l-19 -106h-408z" />
    <glyph glyph-name="F" unicode="F" horiz-adv-x="517" 
d="M187 665h426l-18 -106h-305l-30 -171h253l-19 -106h-253l-49 -282h-122z" />
    <glyph glyph-name="G" unicode="G" horiz-adv-x="626" 
d="M634 348l-53 -296q-108 -64 -244 -64q-116 0 -179.5 67t-63.5 199q0 90 20.5 163t54.5 121t80.5 80t95.5 45.5t103 13.5q155 0 220 -128l-95 -57q-51 82 -135 82q-96 0 -156.5 -84.5t-60.5 -226.5q0 -176 140 -176q70 0 114 25l27 144h-98l14 92h216z" />
    <glyph glyph-name="H" unicode="H" horiz-adv-x="668" 
d="M592 665h123l-117 -665h-123l51 287h-283l-51 -287h-122l117 665h122l-47 -272h283z" />
    <glyph glyph-name="I" unicode="I" horiz-adv-x="266" 
d="M194 0h-122l117 665h122z" />
    <glyph glyph-name="J" unicode="J" horiz-adv-x="430" 
d="M16 42l52 88q51 -39 108 -39q80 0 96 90l85 484h122l-75 -426q-7 -46 -23 -105q-21 -78 -66.5 -112t-130.5 -34q-102 0 -168 54z" />
    <glyph glyph-name="K" unicode="K" horiz-adv-x="580" 
d="M676 665l-237 -270l137 -395h-134l-100 298l-122 -131l-29 -167h-121l117 665h121l-59 -324h3l289 324h135z" />
    <glyph glyph-name="L" unicode="L" horiz-adv-x="500" 
d="M71 0l117 665h122l-98 -559h282l-19 -106h-404z" />
    <glyph glyph-name="M" unicode="M" horiz-adv-x="808" 
d="M443 229l243 436h140l-81 -665h-116l56 458h-3l-221 -383h-92l-83 379h-2l-105 -454h-116l155 665h133l89 -436h3z" />
    <glyph glyph-name="N" unicode="N" horiz-adv-x="666" 
d="M592 665h121l-117 -665h-117l-204 469h-2l-82 -469h-121l117 665h123l200 -462h1z" />
    <glyph glyph-name="O" unicode="O" horiz-adv-x="664" 
d="M678 323q-26 -171 -118.5 -253t-230.5 -82q-112 0 -174 66t-62 186q0 62 9 110q13 76 41.5 134.5t63 94t78.5 58.5t84.5 31.5t83.5 8.5q104 0 168.5 -65t64.5 -188q0 -50 -8 -101zM229 343q-9 -52 -9 -91q0 -163 131 -163q84 0 133 66.5t67 168.5q7 44 7 81
q0 73 -28.5 121t-94.5 48q-84 0 -136.5 -66t-69.5 -165z" />
    <glyph glyph-name="P" unicode="P" horiz-adv-x="568" 
d="M233 233l-41 -233h-122l117 665h225q99 0 154 -44.5t55 -127.5q0 -124 -81.5 -192t-218.5 -68h-88zM250 330h72q171 0 171 148q0 55 -33 72.5t-97 17.5h-71z" />
    <glyph glyph-name="Q" unicode="Q" horiz-adv-x="664" 
d="M678 323q-41 -266 -243 -322q23 -6 102.5 -40t125.5 -34q15 0 31 3l-30 -94q-11 -1 -31 -1q-50 0 -107.5 24.5l-114 49t-104.5 24.5q-33 0 -57 -6l22 66q-86 16 -132.5 79.5t-46.5 167.5q0 62 9 110q13 76 41.5 134.5t63 94t78.5 58.5t84.5 31.5t83.5 8.5
q104 0 168.5 -65t64.5 -188q0 -50 -8 -101zM229 343q-9 -52 -9 -91q0 -163 131 -163q84 0 133 66.5t67 168.5q7 44 7 81q0 73 -28.5 121t-94.5 48q-84 0 -136.5 -66t-69.5 -165z" />
    <glyph glyph-name="R" unicode="R" horiz-adv-x="595" 
d="M239 265l-47 -265h-122l117 665h223q212 0 212 -156q0 -84 -44 -134t-109 -70q19 -8 28.5 -22.5t18.5 -44.5l67 -238h-131l-56 213q-8 27 -20.5 39.5t-37.5 12.5h-99zM254 354h100q64 0 102.5 36.5t38.5 100.5q0 46 -31.5 61.5t-100.5 15.5h-71z" />
    <glyph glyph-name="S" unicode="S" horiz-adv-x="538" 
d="M45 60l59 95q32 -23 81 -43t95 -20q52 0 88 22t36 75q0 13 -3.5 23.5t-11.5 19.5t-15 15.5t-22 14t-23 11l-27 11.5l-26 11q-33 14 -54 25.5t-45.5 32t-36.5 49.5t-12 67q0 98 67 153t180 55q70 0 130 -28.5t95 -68.5l-77 -78q-75 72 -156 72q-111 0 -111 -84
q0 -18 8 -33t16 -24t30 -21t31 -16l38 -17q35 -15 56 -26.5t47 -32.5t39 -50t13 -66q0 -99 -69.5 -158t-188.5 -59q-73 0 -137 23.5t-94 49.5z" />
    <glyph glyph-name="T" unicode="T" horiz-adv-x="538" 
d="M134 665h504l-18 -106h-194l-98 -559h-122l99 559h-189z" />
    <glyph glyph-name="U" unicode="U" horiz-adv-x="629" 
d="M182 665h121l-78 -448q-4 -26 -4 -36q0 -49 28.5 -70t83.5 -21q126 0 147 122l80 453h121l-83 -469q-37 -209 -274 -209q-226 0 -226 170q0 32 5 58z" />
    <glyph glyph-name="V" unicode="V" horiz-adv-x="592" 
d="M360 0h-128l-105 665h118l71 -523h2l254 523h127z" />
    <glyph glyph-name="W" unicode="W" horiz-adv-x="815" 
d="M517 0l-21 335l-10 97l-182 -432h-139l-29 665h120l11 -505h1l187 452h127l26 -443h2l181 496h122l-260 -665h-136z" />
    <glyph glyph-name="X" unicode="X" horiz-adv-x="610" 
d="M564 665h143l-267 -318l173 -347h-137l-124 253l-207 -253h-148l296 354l-151 311h139l101 -226z" />
    <glyph glyph-name="Y" unicode="Y" horiz-adv-x="559" 
d="M540 665h135l-291 -411l-45 -254h-122l45 254l-144 411h128l94 -294h1z" />
    <glyph glyph-name="Z" unicode="Z" horiz-adv-x="505" 
d="M574 584l-388 -489h314l-18 -95h-455l15 83l386 487h-294l16 95h438z" />
    <glyph glyph-name="bracketleft" unicode="[" horiz-adv-x="300" 
d="M51 -166l155 880h211l-15 -81h-101l-126 -718h100l-14 -81h-210z" />
    <glyph glyph-name="backslash" unicode="\" horiz-adv-x="428" 
d="M112 719l111 27l185 -813l-110 -26z" />
    <glyph glyph-name="bracketright" unicode="]" horiz-adv-x="300" 
d="M346 714l-155 -880h-211l14 81h101l126 718h-100l15 81h210z" />
    <glyph glyph-name="asciicircum" unicode="^" horiz-adv-x="553" 
d="M562 301l-97 -15l-83 266l-178 -267l-102 17l253 372h87z" />
    <glyph glyph-name="underscore" unicode="_" horiz-adv-x="500" 
d="M-26 -147l13 73h500l-13 -73h-500z" />
    <glyph glyph-name="grave" unicode="`" horiz-adv-x="500" 
d="M359 784l94 -190l-42 -29q-73 75 -107 115q-19 22 -19 44q0 43 74 60z" />
    <glyph glyph-name="a" unicode="a" horiz-adv-x="539" 
d="M561 483l-68 -387l-7 -96h-103l2 53q-1 0 -2 0.5t-2 0.5q-57 -68 -151 -68q-77 0 -117.5 49.5t-40.5 133.5q0 158 81.5 253.5t228.5 95.5q89 0 179 -35zM387 159l45 260q-24 12 -71 12q-46 0 -81 -24.5t-53.5 -64t-27 -80t-8.5 -80.5q0 -110 82 -110q45 0 76.5 26
t37.5 61z" />
    <glyph glyph-name="b" unicode="b" horiz-adv-x="536" 
d="M67 28l119 667h119l-40 -223q54 46 129 46q77 0 119 -48.5t42 -138.5q0 -162 -77.5 -254t-217.5 -92q-52 0 -108 12.5t-85 30.5zM245 356l-47 -266q34 -19 79 -19q62 0 109.5 67t47.5 176q0 49 -20.5 83t-67.5 34q-36 0 -65.5 -21t-35.5 -54z" />
    <glyph glyph-name="c" unicode="c" horiz-adv-x="460" 
d="M300 80q58 0 121 42l36 -81q-75 -56 -189 -56q-92 0 -142 55t-50 155q0 87 24.5 152t66 101t87.5 53t96 17q56 0 103 -25t72 -78l-82 -54q-37 62 -94 62q-67 0 -109 -58.5t-42 -156.5q0 -128 102 -128z" />
    <glyph glyph-name="d" unicode="d" horiz-adv-x="539" 
d="M369 518q43 0 79 -12l34 189h118l-106 -596l-8 -99h-102l2 54q-1 0 -2.5 0.5t-2.5 0.5q-58 -70 -147 -70q-85 0 -123.5 53t-38.5 134q0 152 79.5 249t217.5 97zM387 156l45 261q-27 8 -57 8q-84 0 -133 -68.5t-49 -170.5q0 -113 80 -113q45 0 76.5 25.5t37.5 57.5z" />
    <glyph glyph-name="e" unicode="e" horiz-adv-x="470" 
d="M403 385q0 23 -14.5 35t-38.5 12q-57 0 -94 -44.5t-50 -102.5q26 0 56 3.5t63.5 13.5t55.5 31.5t22 51.5zM368 518q67 0 105.5 -32t38.5 -85q0 -50 -23.5 -87.5t-56.5 -57.5t-79.5 -32.5t-82.5 -16t-75 -3.5q-4 -54 20 -90.5t83 -36.5t129 44l36 -78q-27 -21 -78 -39.5
t-116 -18.5q-98 0 -146 54.5t-48 146.5q0 88 34.5 163t102.5 122t156 47z" />
    <glyph glyph-name="f" unicode="f" horiz-adv-x="339" 
d="M256 410l-110 -620h-118l130 741q7 39 17.5 67t31 56.5t58 43.5t90.5 15q79 0 139 -36l-41 -78q-46 24 -91 24q-37 0 -56 -19t-27 -64l-7 -37h148l-16 -93h-148z" />
    <glyph glyph-name="g" unicode="g" horiz-adv-x="536" 
d="M211 -264q-73 0 -112 33t-39 92q0 69 37 109.5t120 75.5q-61 7 -100 50t-39 126q0 138 81 217t211 79q116 0 192 -35l-67 -383q-12 -70 -25 -127q-27 -123 -91 -180t-168 -57zM395 208l38 212q-34 9 -64 9q-80 0 -126.5 -58.5t-46.5 -149.5q0 -111 85 -111q42 0 74 26
t40 72zM170 -120q0 -56 60 -56q56 0 85 44t44 130l12 64q-29 -30 -95 -65q-54 -29 -80 -54t-26 -63z" />
    <glyph glyph-name="h" unicode="h" horiz-adv-x="537" 
d="M180 0h-119l123 695h119l-42 -235q58 58 145 58q134 0 134 -122q0 -28 -6 -63l-59 -333h-119l57 321q4 30 4 44q0 30 -12.5 45.5t-44.5 15.5q-45 0 -80.5 -29.5t-42.5 -69.5z" />
    <glyph glyph-name="i" unicode="i" horiz-adv-x="244" 
d="M185 0h-120l89 503h120zM169 636q0 32 23.5 55t57.5 23q26 0 42.5 -16t16.5 -40q0 -33 -24 -55t-58 -22q-27 0 -42.5 15t-15.5 40z" />
    <glyph glyph-name="j" unicode="j" horiz-adv-x="244" 
d="M59 -39l95 542h119l-95 -537q-7 -37 -12 -58.5t-18 -50t-30.5 -43.5t-47.5 -26t-71 -11q-33 0 -71.5 9.5t-60.5 25.5l45 83q38 -21 71 -21t49.5 19t26.5 68zM171 636q0 32 24 55t58 23q26 0 42 -16t16 -40q0 -33 -24 -55t-58 -22q-27 0 -42.5 15t-15.5 40z" />
    <glyph glyph-name="k" unicode="k" horiz-adv-x="516" 
d="M551 398q0 -132 -136 -196l79 -202h-133l-62 169q-39 -10 -89 -13l-28 -156h-119l123 695h119l-56 -285l4 -1q30 50 76.5 79.5t103.5 29.5q52 0 85 -30t33 -90zM431 378q0 46 -45 46q-46 0 -94.5 -58t-64.5 -122q93 7 148.5 46t55.5 88z" />
    <glyph glyph-name="l" unicode="l" horiz-adv-x="323" 
d="M186 694h119l-93 -529q-6 -36 -6 -46q1 -23 11 -32t33 -9t66 17l15 -80q-49 -30 -126 -30q-65 0 -92.5 29t-27.5 83q0 24 7 66z" />
    <glyph glyph-name="m" unicode="m" horiz-adv-x="817" 
d="M184 0h-119l73 416l7 87h99l-2 -62q68 77 160 77q100 0 124 -80q62 80 161 80q132 0 132 -126q0 -24 -5 -54l-60 -338h-119l56 317q5 25 5 43q0 66 -57 66q-43 0 -74.5 -30.5t-38.5 -71.5l-57 -324h-119l56 317q5 25 5 44q0 65 -58 65q-43 0 -74.5 -30.5t-38.5 -73.5z
" />
    <glyph glyph-name="n" unicode="n" horiz-adv-x="541" 
d="M183 0h-118l73 416l7 87h100l-1 -63q69 78 167 78q132 0 133 -123q0 -27 -5 -57l-60 -338h-119l56 318q4 21 4 45q0 63 -56 63q-46 0 -81.5 -30t-42.5 -70z" />
    <glyph glyph-name="o" unicode="o" horiz-adv-x="526" 
d="M273 73q53 0 88 46t49 126q6 36 6 80q0 105 -78 105q-53 0 -88.5 -44t-48.5 -119q-7 -41 -7 -88q0 -106 79 -106zM78 261q10 60 32 106t50 74t63 46t67.5 24.5t66.5 6.5q30 0 58 -7.5t58 -26t48.5 -58.5t18.5 -96q0 -44 -5 -79q-21 -138 -96.5 -202t-183.5 -64
q-88 0 -135.5 50t-47.5 144q0 46 6 82z" />
    <glyph glyph-name="p" unicode="p" horiz-adv-x="538" 
d="M186 14l-40 -224h-119l122 695q113 33 207 33q195 0 195 -203q0 -150 -71.5 -240t-191.5 -90q-60 0 -102 29zM256 416l-54 -311q32 -34 87 -34q58 0 100 67t42 175q0 115 -92 115q-45 0 -83 -12z" />
    <glyph glyph-name="q" unicode="q" 
d="M558 481l-122 -691h-119l43 244h-3q-52 -49 -128 -49q-75 0 -115.5 50t-40.5 143q0 157 81.5 248.5t218.5 91.5q98 0 185 -37zM381 152l47 268q-33 7 -55 7q-81 0 -131.5 -60.5t-50.5 -182.5q0 -112 77 -112q44 0 76 26t37 54z" />
    <glyph glyph-name="r" unicode="r" horiz-adv-x="366" 
d="M240 317l-56 -317h-119l75 423l5 80h98l-1 -72q22 42 58 64.5t76 22.5q49 0 79 -20l-38 -97q-29 16 -66 16q-40 0 -70.5 -28t-40.5 -72z" />
    <glyph glyph-name="s" unicode="s" horiz-adv-x="419" 
d="M31 39l48 82q72 -48 137 -48q39 0 63 16.5t24 48.5q0 20 -14 35t-29 22.5t-42 17.5q-30 11 -45.5 19t-37.5 24t-32.5 40t-10.5 57q0 79 57 122t143 43q55 0 103.5 -21.5t75.5 -53.5l-65 -64q-54 52 -114 52q-36 0 -58.5 -15t-22.5 -46q0 -9 2 -17t9 -15l11.5 -11.5
t16.5 -10.5t17.5 -8.5t22 -9l21.5 -8.5q51 -20 81.5 -51t30.5 -84q0 -82 -56 -126t-153 -44q-59 0 -109.5 17.5t-73.5 36.5z" />
    <glyph glyph-name="t" unicode="t" horiz-adv-x="351" 
d="M187 695h119l-34 -192h135l-16 -93h-135l-45 -254q-3 -17 -3 -34q1 -28 12.5 -37t38.5 -9q35 0 75 22l24 -77q-24 -16 -64.5 -26t-76.5 -10q-130 0 -132 104q0 24 7 68z" />
    <glyph glyph-name="u" unicode="u" horiz-adv-x="540" 
d="M447 503h119l-74 -419l-7 -84h-102l2 58l-6 1q-56 -73 -153 -73q-139 0 -139 130q0 20 5 50l59 337h119l-56 -319q-5 -25 -5 -44q0 -62 65 -62q41 0 74.5 30t40.5 70z" />
    <glyph glyph-name="v" unicode="v" horiz-adv-x="531" 
d="M413 503h118q5 -47 5 -114q0 -195 -74.5 -299t-223.5 -104q-150 0 -152 129q0 24 5 56l58 332h120l-56 -315q-6 -28 -6 -54q0 -55 55 -55q49 0 85.5 45.5t53.5 113t17 144.5q0 51 -5 121z" />
    <glyph glyph-name="w" unicode="w" horiz-adv-x="799" 
d="M680 503h117q7 -68 7 -117q0 -181 -69 -290.5t-205 -109.5q-109 0 -126 84q-65 -84 -174 -84q-143 0 -144 125q0 21 5 49l60 343h119l-55 -316q-7 -33 -7 -55q1 -26 13.5 -40t42.5 -14q40 0 70.5 28t37.5 68l57 329h119l-57 -316q-6 -34 -6 -53q0 -56 54 -56
q69 0 108 88.5t39 216.5q0 62 -6 120z" />
    <glyph glyph-name="x" unicode="x" horiz-adv-x="471" 
d="M427 503h127l-205 -242l125 -261h-124l-80 172l-142 -172h-131l222 263l-114 240h120l71 -160z" />
    <glyph glyph-name="y" unicode="y" horiz-adv-x="537" 
d="M565 503l-77 -440q-16 -93 -30 -138q-60 -191 -247 -191q-72 0 -111 33.5t-39 89.5q0 62 32.5 104t108.5 78q-58 7 -83.5 35.5t-25.5 79.5q0 23 4 44l54 305h119l-51 -292q-5 -25 -5 -43q0 -62 71 -62q38 0 69.5 26.5t38.5 68.5l54 302h118zM172 -121q0 -27 16.5 -41.5
t44.5 -14.5q94 0 120 142l18 97q-37 -36 -96 -66q-55 -28 -79 -52.5t-24 -64.5z" />
    <glyph glyph-name="z" unicode="z" horiz-adv-x="414" 
d="M97 -108q0 -67 62 -67q55 0 88.5 45t33.5 107q0 52 -33 83q-74 -28 -112.5 -74t-38.5 -94zM484 503l-13 -75l-255 -222l56 -30q65 -35 94.5 -78.5t29.5 -107.5q0 -111 -70.5 -183t-181.5 -72q-79 0 -119 37.5t-40 101.5q0 78 45.5 135.5t145.5 103.5q-23 13 -84 41l13 71
l214 185h-227l17 93h375z" />
    <glyph glyph-name="braceleft" unicode="{" horiz-adv-x="316" 
d="M199 281q46 -23 46 -85q0 -32 -24.5 -127t-24.5 -114q0 -46 41 -46q19 0 40 5l-3 -75q-36 -10 -81 -10q-105 0 -108 90q0 20 4 38q3 17 16 68.5t22 96t9 67.5q0 51 -50 57l12 74q43 5 61 29.5t25 87.5q14 133 15 137q8 72 42 108.5t104 36.5q43 0 85 -11l-23 -73
q-27 5 -39 5q-32 0 -44 -15.5t-18 -56.5q-3 -22 -9 -82t-10 -82q-14 -95 -88 -123z" />
    <glyph glyph-name="bar" unicode="|" horiz-adv-x="274" 
d="M69 -88l148 835h105l-148 -835h-105z" />
    <glyph glyph-name="braceright" unicode="}" horiz-adv-x="316" 
d="M217 281q-47 21 -47 86q0 39 22 125t22 104q0 44 -41 44q-12 0 -40 -5l3 74q41 10 81 10q105 0 109 -82q0 -28 -5 -48l-16.5 -68t-19.5 -89.5t-6 -56.5q0 -27 11.5 -40.5t38.5 -16.5l-12 -73q-43 -6 -61 -32.5t-23 -86.5q-10 -110 -17 -158q-11 -76 -46.5 -107.5
t-106.5 -31.5q-39 0 -77 12l22 74q24 -6 40 -6q31 0 43.5 17t18.5 59q3 21 9.5 88.5t10.5 91.5q10 54 28 78.5t59 37.5z" />
    <glyph glyph-name="asciitilde" unicode="~" horiz-adv-x="598" 
d="M444 218q-36 0 -71 18.5t-64 37.5t-51 19q-42 0 -99 -67l-62 56q84 107 165 107q43 0 100 -39t87 -39q47 0 96 66l63 -55q-68 -104 -164 -104z" />
    <glyph glyph-name="uni00A0" unicode="&#xa0;" horiz-adv-x="207" 
 />
    <glyph glyph-name="exclamdown" unicode="&#xa1;" horiz-adv-x="264" 
d="M189 -29l-21 -118q-9 -47 -64 -47q-56 0 -47 49l21 116l81 350h71zM289 461q0 -31 -24 -53.5t-56 -22.5q-29 0 -44.5 15t-15.5 40q0 31 23 54t57 23q29 0 44.5 -15.5t15.5 -40.5z" />
    <glyph glyph-name="cent" unicode="&#xa2;" 
d="M259 -60l18 106q-73 11 -112 65t-39 142q0 80 21 142t57 98.5t77.5 56t88.5 24.5l20 111h75l-20 -114q92 -17 130 -98l-82 -54q-26 45 -65 58l-59 -338q46 4 102 41l36 -81q-63 -46 -155 -55l-18 -104h-75zM248 266q0 -86 48 -115l56 321q-48 -18 -76 -72t-28 -134z" />
    <glyph glyph-name="sterling" unicode="&#xa3;" horiz-adv-x="552" 
d="M59 143l14 84h101l92 237q43 110 96 151.5t137 41.5q96 0 159 -66l-69 -71q-43 43 -92 43q-45 0 -70.5 -25t-49.5 -88l-87 -223h159l-14 -83h-175l-32 -79q-36 -87 -104 -132v-2q45 14 80 14q31 0 86.5 -11.5t90.5 -11.5q49 0 97 13l-29 -97q-51 -9 -90 -9
q-48 0 -126.5 16t-123.5 16q-66 0 -138 -30l16 99q83 32 118 120l39 93h-85z" />
    <glyph glyph-name="yen" unicode="&#xa5;" horiz-adv-x="544" 
d="M237 145h-153l13 76h154l13 75h-154l14 76h112l-95 272h120l78 -255h2l169 255h125l-193 -272h109l-13 -76h-153l-13 -75h152l-13 -76h-153l-25 -145h-121z" />
    <glyph glyph-name="brokenbar" unicode="&#xa6;" horiz-adv-x="275" 
d="M69 -88l66 374h105l-66 -374h-105zM156 403l60 344h105l-60 -344h-105z" />
    <glyph glyph-name="section" unicode="&#xa7;" horiz-adv-x="552" 
d="M120 379l88 15q-8 -35 -8 -69q0 -61 23 -97t67 -64q65 -40 96.5 -80.5t31.5 -101.5q0 -84 -54.5 -135t-149.5 -51q-80 0 -143 34l37 79q48 -26 106 -26q41 0 66.5 22.5t25.5 60.5q0 9 -1.5 17.5t-5.5 16.5l-7 14t-11 13.5l-12.5 12t-15.5 12.5t-16.5 11.5l-19 12.5
l-19.5 13q-49 33 -72 73t-23 106q0 50 17 111zM497 84l-88 -15q8 35 8 69q0 61 -23 97t-67 64q-65 40 -96.5 80.5t-31.5 101.5q0 83 58.5 134.5t154.5 51.5q81 0 138 -31l-41 -82q-48 26 -100 26q-42 0 -70 -21.5t-28 -59.5q0 -12 2.5 -22.5t9.5 -21t12.5 -17t18.5 -17
l19 -15l23 -16.5l23 -16q95 -66 95 -179q0 -50 -17 -111z" />
    <glyph glyph-name="dieresis" unicode="&#xa8;" horiz-adv-x="500" 
d="M402 645q0 29 22 50t54 21q24 0 38.5 -15t14.5 -37q0 -29 -22.5 -50t-53.5 -21q-24 0 -38.5 14.5t-14.5 37.5zM207 645q0 29 22 50t54 21q24 0 38.5 -15t14.5 -37q0 -29 -22.5 -50t-53.5 -21q-24 0 -38.5 14.5t-14.5 37.5z" />
    <glyph glyph-name="copyright" unicode="&#xa9;" horiz-adv-x="814" 
d="M809 332q0 -151 -99 -251.5t-252 -100.5q-157 0 -249.5 96t-92.5 250q0 148 96.5 249t245.5 101q153 0 252 -100t99 -244zM730 329q0 118 -77.5 196.5t-193.5 78.5q-117 0 -190.5 -79.5t-73.5 -198.5q0 -125 73.5 -199.5t190.5 -74.5t194 78.5t77 198.5zM465 198
q45 0 96 42l40 -54q-54 -56 -138 -56q-86 0 -130.5 53.5t-44.5 147.5q0 55 16.5 96t43.5 62t55 31t58 10q95 0 150 -75l-56 -44q-46 50 -96 50q-38 0 -64.5 -30.5t-26.5 -98.5q0 -134 97 -134z" />
    <glyph glyph-name="ordfeminine" unicode="&#xaa;" horiz-adv-x="414" 
d="M462 586l-44 -249l-4 -73h-82l1 39h-4q-45 -47 -101 -47q-57 0 -83.5 35.5t-26.5 92.5q0 100 56 163t153 63q72 0 135 -24zM331 367l30 169q-14 7 -45 7q-51 0 -77.5 -47t-26.5 -102q0 -71 51 -71q27 0 46.5 14t21.5 30z" />
    <glyph glyph-name="guillemotleft" unicode="&#xab;" horiz-adv-x="530" 
d="M366 402l-154 -145l88 -158l-52 -40q-35 33 -79 85.5t-64 87.5q-8 13 -8 31q0 23 34 51q55 45 194 140zM570 402l-154 -145l88 -158l-52 -40q-35 33 -79 85.5t-64 87.5q-8 13 -8 31q0 23 34 51q55 45 194 140z" />
    <glyph glyph-name="logicalnot" unicode="&#xac;" 
d="M415 171l26 145h-333l17 96h429l-42 -241h-97z" />
    <glyph glyph-name="uni00AD" unicode="&#xad;" horiz-adv-x="322" 
d="M85 244l16 93h237l-16 -93h-237z" />
    <glyph glyph-name="registered" unicode="&#xae;" horiz-adv-x="463" 
d="M368 459l36 -81h-50l-31 70q-6 14 -16 14h-19v-84h-45v211h76q70 0 70 -57q0 -42 -34 -58q8 -4 13 -15zM288 498h16q36 0 36 30q0 25 -36 25h-16v-55zM514 483q0 -86 -57 -141.5t-147 -55.5q-91 0 -145 54.5t-54 140.5q0 85 56 140.5t143 55.5q89 0 146.5 -55.5
t57.5 -138.5zM461 481q0 65 -43 107.5t-108 42.5q-66 0 -106 -42t-40 -108t41 -108t105 -42q67 0 109 41t42 109z" />
    <glyph glyph-name="macron" unicode="&#xaf;" horiz-adv-x="500" 
d="M213 609l15 86h287l-15 -86h-287z" />
    <glyph glyph-name="degree" unicode="&#xb0;" horiz-adv-x="298" 
d="M134 576q0 62 39 100t98 38q45 0 70.5 -27t25.5 -67q0 -59 -37 -99t-98 -40q-48 0 -73 26t-25 69zM197 584q0 -21 11 -34t31 -13q30 0 47 21t17 52q0 47 -42 47q-32 0 -48 -21t-16 -52z" />
    <glyph glyph-name="plusminus" unicode="&#xb1;" 
d="M279 364l28 156h102l-28 -156h154l-17 -98h-154l-24 -133h154l-17 -98h-405l17 98h149l24 133h-149l17 98h149z" />
    <glyph glyph-name="twosuperior" unicode="&#xb2;" horiz-adv-x="364" 
d="M182 623l-35 56q84 58 160 58q53 0 80 -27t27 -69q0 -35 -16.5 -65t-57.5 -67l-106 -96h154l-13 -72h-274l10 58l152 139q57 52 57 90q0 34 -39 34q-40 0 -99 -39z" />
    <glyph glyph-name="threesuperior" unicode="&#xb3;" horiz-adv-x="348" 
d="M178 636l-27 54q80 47 155 47q49 0 75.5 -23t26.5 -60q0 -61 -61 -98q31 -56 31 -97q0 -53 -37.5 -88t-117.5 -35q-77 0 -129 32l33 62q45 -26 95 -26q68 0 68 53q0 22 -17 62q-38 -13 -82 -21l-14 60q100 21 127 45q14 13 14 29q0 35 -40 35q-34 0 -100 -31z" />
    <glyph glyph-name="acute" unicode="&#xb4;" horiz-adv-x="500" 
d="M252 596l145 184q67 -17 67 -53q0 -21 -37 -55q-47 -42 -141 -107z" />
    <glyph glyph-name="mu" unicode="&#xb5;" horiz-adv-x="584" 
d="M595 503l-70 -400q-7 -33 19 -33q15 0 40 11l4 -69q-48 -24 -92 -24q-31 0 -53.5 18t-24.5 49q-21 -23 -34.5 -35t-39.5 -22t-59 -10q-36 0 -61 15t-35 34l-44 -253h-107l127 719h111l-55 -312q-20 -119 77 -119q47 0 84 38.5t48 99.5l52 293h113z" />
    <glyph glyph-name="paragraph" unicode="&#xb6;" horiz-adv-x="527" 
d="M353 63l91 516h-72l-64 -364q-82 2 -133.5 46.5t-51.5 128.5q0 140 83.5 207.5t227.5 67.5h140l-100 -571q-13 -72 -27.5 -115t-46.5 -82.5t-85.5 -63t-138.5 -38.5l-15 98q102 22 140.5 58.5t51.5 111.5z" />
    <glyph glyph-name="periodcentered" unicode="&#xb7;" horiz-adv-x="309" 
d="M138 295q0 34 23 57t58 23q29 0 45 -15t16 -40q0 -33 -23 -56.5t-59 -23.5q-29 0 -44.5 15t-15.5 40z" />
    <glyph glyph-name="cedilla" unicode="&#xb8;" horiz-adv-x="500" 
d="M213 3h57l-32 -69q36 -2 58 -22t22 -53q0 -53 -38 -76.5t-91 -23.5q-59 0 -94 19l25 54q30 -14 65 -14q56 0 56 37t-84 35z" />
    <glyph glyph-name="onesuperior" unicode="&#xb9;" horiz-adv-x="332" 
d="M142 411h75l40 228l-88 -36l-18 57l137 71h80l-18 -68l-45 -252h70l-13 -70h-232z" />
    <glyph glyph-name="ordmasculine" unicode="&#xba;" horiz-adv-x="406" 
d="M260 324q41 0 65.5 38.5t25.5 108.5q0 73 -54 73q-43 0 -65.5 -41.5t-22.5 -102.5q0 -76 51 -76zM114 394q0 61 18 105.5t47.5 67.5t61.5 33.5t68 10.5q56 0 96.5 -32t40.5 -104q0 -101 -53.5 -160t-140.5 -59q-67 0 -102.5 36.5t-35.5 101.5z" />
    <glyph glyph-name="guillemotright" unicode="&#xbb;" horiz-adv-x="530" 
d="M208 268l-99 142l52 44q77 -68 141 -139q20 -25 20 -43q0 -20 -19 -40q-29 -31 -94 -86t-110 -87l-41 48zM412 268l-99 142l52 44q77 -68 141 -139q20 -25 20 -43q0 -20 -19 -40q-29 -31 -94 -86t-110 -87l-41 48z" />
    <glyph glyph-name="onequarter" unicode="&#xbc;" horiz-adv-x="825" 
d="M105 331h75l40 228l-88 -36l-18 57l137 71h80l-18 -68l-45 -252h70l-13 -70h-232zM323 -9l-73 36l403 627l75 -35zM746 255h55l-19 -104h61l-11 -66h-61l-16 -85h-87l15 87h-162l10 53l168 261l68 -33l-144 -217h73z" />
    <glyph glyph-name="onehalf" unicode="&#xbd;" horiz-adv-x="825" 
d="M107 331h75l40 228l-88 -36l-18 57l137 71h80l-18 -68l-45 -252h70l-13 -70h-232zM302 -9l-73 36l403 627l75 -35zM621 282l-35 56q84 58 160 58q53 0 80 -27t27 -69q0 -35 -16.5 -65t-57.5 -67l-106 -96h154l-13 -72h-274l10 58l152 139q57 52 57 90q0 34 -39 34
q-40 0 -99 -39z" />
    <glyph glyph-name="threequarters" unicode="&#xbe;" horiz-adv-x="825" 
d="M164 556l-27 54q80 47 155 47q49 0 75.5 -23t26.5 -60q0 -61 -61 -98q31 -56 31 -97q0 -53 -37.5 -88t-117.5 -35q-77 0 -129 32l33 62q45 -26 95 -26q68 0 68 53q0 22 -17 62q-38 -13 -82 -21l-14 60q100 21 127 45q14 13 14 29q0 35 -40 35q-34 0 -100 -31zM315 -9
l-73 36l403 627l75 -35zM733 255h55l-19 -104h61l-11 -66h-61l-16 -85h-87l15 87h-162l10 53l168 261l68 -33l-144 -217h73z" />
    <glyph glyph-name="questiondown" unicode="&#xbf;" horiz-adv-x="375" 
d="M246 62q-59 -37 -74 -56q-19 -22 -19 -51q0 -54 55 -54q41 0 119 27l4 -92q-85 -29 -148 -29q-73 0 -109.5 36t-36.5 92q0 65 31.5 106t112.5 92q32 20 45.5 35.5t18.5 43.5l20 110h91q-3 -64 -11 -105q-10 -59 -30 -91.5t-69 -63.5zM399 462q0 -31 -24 -53.5t-56 -22.5
q-29 0 -44.5 15t-15.5 40q0 31 23 54t57 23q29 0 44.5 -15.5t15.5 -40.5z" />
    <glyph glyph-name="Agrave" unicode="&#xc0;" horiz-adv-x="625" 
d="M141 0h-129l341 665h144l116 -665h-120l-28 176h-234zM409 553l-141 -285h185l-39 285h-5zM380 902l140 -158l-33 -35l-136 81q-31 20 -31 45q0 35 60 67z" />
    <glyph glyph-name="Aacute" unicode="&#xc1;" horiz-adv-x="625" 
d="M141 0h-129l341 665h144l116 -665h-120l-28 176h-234zM409 553l-141 -285h185l-39 285h-5zM351 748l181 148q49 -31 49 -61q0 -29 -50 -56q-17 -9 -152 -70z" />
    <glyph glyph-name="Acircumflex" unicode="&#xc2;" horiz-adv-x="625" 
d="M141 0h-129l341 665h144l116 -665h-120l-28 176h-234zM409 553l-141 -285h185l-39 285h-5zM316 709l-38 35q76 76 131 120q30 24 53 24q22 0 48 -29q43 -48 86 -115l-41 -34l-104 90z" />
    <glyph glyph-name="Atilde" unicode="&#xc3;" horiz-adv-x="625" 
d="M141 0h-129l341 665h144l116 -665h-120l-28 176h-234zM409 553l-141 -285h185l-39 285h-5zM300 733l4 74q44 29 88 29q27 0 68 -13t63 -13q32 0 65 18l-5 -79q-38 -18 -71 -18q-22 0 -68 11t-66 11q-38 0 -78 -20z" />
    <glyph glyph-name="Adieresis" unicode="&#xc4;" horiz-adv-x="625" 
d="M141 0h-129l341 665h144l116 -665h-120l-28 176h-234zM409 553l-141 -285h185l-39 285h-5zM480 773q0 29 22 50t54 21q24 0 38.5 -15t14.5 -37q0 -29 -22.5 -50t-53.5 -21q-24 0 -38.5 14.5t-14.5 37.5zM285 773q0 29 22 50t54 21q24 0 38.5 -15t14.5 -37
q0 -29 -22.5 -50t-53.5 -21q-24 0 -38.5 14.5t-14.5 37.5z" />
    <glyph glyph-name="Aring" unicode="&#xc5;" horiz-adv-x="625" 
d="M337 717q0 44 31.5 75.5t79.5 31.5q40 0 61 -22.5t21 -57.5q0 -49 -35 -79l118 -665h-120l-28 176h-234l-90 -176h-129l342 664q-17 22 -17 53zM409 553l-141 -285h185l-39 285h-5zM440 772q-18 0 -30.5 -14t-12.5 -35q0 -34 31 -34q19 0 31 14.5t12 36.5q0 32 -31 32z
" />
    <glyph glyph-name="AE" unicode="&#xc6;" horiz-adv-x="820" 
d="M486 0l-30 186h-227l-95 -186h-127l343 665h549l-18 -106h-359l31 -167h259l-19 -105h-234l33 -181h215l-18 -106h-303zM404 549l-136 -270h179l-41 270h-2z" />
    <glyph glyph-name="Ccedilla" unicode="&#xc7;" horiz-adv-x="590" 
d="M364 89q78 0 168 70l52 -80q-103 -81 -217 -90l-25 -55q36 -2 58 -22t22 -53q0 -53 -38 -76.5t-91 -23.5q-59 0 -94 19l25 54q30 -14 65 -14q56 0 56 37t-84 35l49 99q-103 8 -159.5 76t-56.5 188q0 114 31 199t84 132.5t113.5 70t129.5 22.5q148 0 216 -128l-93 -58
q-50 83 -133 83q-98 0 -159 -83t-61 -221q0 -181 142 -181z" />
    <glyph glyph-name="Egrave" unicode="&#xc8;" horiz-adv-x="509" 
d="M70 0l117 665h401l-18 -106h-280l-29 -167h240l-19 -105h-240l-31 -181h286l-19 -106h-408zM351 902l140 -158l-33 -35l-136 81q-31 20 -31 45q0 35 60 67z" />
    <glyph glyph-name="Eacute" unicode="&#xc9;" horiz-adv-x="509" 
d="M70 0l117 665h401l-18 -106h-280l-29 -167h240l-19 -105h-240l-31 -181h286l-19 -106h-408zM305 748l181 148q49 -31 49 -61q0 -29 -50 -56q-17 -9 -152 -70z" />
    <glyph glyph-name="Ecircumflex" unicode="&#xca;" horiz-adv-x="509" 
d="M70 0l117 665h401l-18 -106h-280l-29 -167h240l-19 -105h-240l-31 -181h286l-19 -106h-408zM277 709l-38 35q76 76 131 120q30 24 53 24q22 0 48 -29q43 -48 86 -115l-41 -34l-104 90z" />
    <glyph glyph-name="Edieresis" unicode="&#xcb;" horiz-adv-x="509" 
d="M70 0l117 665h401l-18 -106h-280l-29 -167h240l-19 -105h-240l-31 -181h286l-19 -106h-408zM439 773q0 29 22 50t54 21q24 0 38.5 -15t14.5 -37q0 -29 -22.5 -50t-53.5 -21q-24 0 -38.5 14.5t-14.5 37.5zM244 773q0 29 22 50t54 21q24 0 38.5 -15t14.5 -37
q0 -29 -22.5 -50t-53.5 -21q-24 0 -38.5 14.5t-14.5 37.5z" />
    <glyph glyph-name="Igrave" unicode="&#xcc;" horiz-adv-x="266" 
d="M194 0h-122l117 665h122zM211 902l140 -158l-33 -35l-136 81q-31 20 -31 45q0 35 60 67z" />
    <glyph glyph-name="Iacute" unicode="&#xcd;" horiz-adv-x="266" 
d="M194 0h-122l117 665h122zM172 748l181 148q49 -31 49 -61q0 -29 -50 -56q-17 -9 -152 -70z" />
    <glyph glyph-name="Icircumflex" unicode="&#xce;" horiz-adv-x="266" 
d="M194 0h-122l117 665h122zM144 709l-38 35q76 76 131 120q30 24 53 24q22 0 48 -29q43 -48 86 -115l-41 -34l-104 90z" />
    <glyph glyph-name="Idieresis" unicode="&#xcf;" horiz-adv-x="266" 
d="M194 0h-122l117 665h122zM306 773q0 29 22 50t54 21q24 0 38.5 -15t14.5 -37q0 -29 -22.5 -50t-53.5 -21q-24 0 -38.5 14.5t-14.5 37.5zM111 773q0 29 22 50t54 21q24 0 38.5 -15t14.5 -37q0 -29 -22.5 -50t-53.5 -21q-24 0 -38.5 14.5t-14.5 37.5z" />
    <glyph glyph-name="Eth" unicode="&#xd0;" horiz-adv-x="657" 
d="M83 0l50 287h-69l17 96h69l50 282h217q126 0 195.5 -65t69.5 -188q0 -107 -30 -188t-83.5 -129t-119.5 -71.5t-144 -23.5h-222zM305 568l-33 -185h170l-17 -96h-170l-33 -191h100q107 0 170.5 82t63.5 221q0 169 -161 169h-90z" />
    <glyph glyph-name="Ntilde" unicode="&#xd1;" horiz-adv-x="666" 
d="M592 665h121l-117 -665h-117l-204 469h-2l-82 -469h-121l117 665h123l200 -462h1zM326 733l4 74q44 29 88 29q27 0 68 -13t63 -13q32 0 65 18l-5 -79q-38 -18 -71 -18q-22 0 -68 11t-66 11q-38 0 -78 -20z" />
    <glyph glyph-name="Ograve" unicode="&#xd2;" horiz-adv-x="663" 
d="M678 323q-26 -171 -118.5 -253t-230.5 -82q-112 0 -174 66t-62 186q0 62 9 110q13 76 41.5 134.5t63 94t78.5 58.5t84.5 31.5t83.5 8.5q104 0 168.5 -65t64.5 -188q0 -50 -8 -101zM229 343q-9 -52 -9 -91q0 -163 131 -163q84 0 133 66.5t67 168.5q7 44 7 81
q0 73 -28.5 121t-94.5 48q-84 0 -136.5 -66t-69.5 -165zM420 902l140 -158l-33 -35l-136 81q-31 20 -31 45q0 35 60 67z" />
    <glyph glyph-name="Oacute" unicode="&#xd3;" horiz-adv-x="663" 
d="M678 323q-26 -171 -118.5 -253t-230.5 -82q-112 0 -174 66t-62 186q0 62 9 110q13 76 41.5 134.5t63 94t78.5 58.5t84.5 31.5t83.5 8.5q104 0 168.5 -65t64.5 -188q0 -50 -8 -101zM229 343q-9 -52 -9 -91q0 -163 131 -163q84 0 133 66.5t67 168.5q7 44 7 81
q0 73 -28.5 121t-94.5 48q-84 0 -136.5 -66t-69.5 -165zM368 748l181 148q49 -31 49 -61q0 -29 -50 -56q-17 -9 -152 -70z" />
    <glyph glyph-name="Ocircumflex" unicode="&#xd4;" horiz-adv-x="663" 
d="M678 323q-26 -171 -118.5 -253t-230.5 -82q-112 0 -174 66t-62 186q0 62 9 110q13 76 41.5 134.5t63 94t78.5 58.5t84.5 31.5t83.5 8.5q104 0 168.5 -65t64.5 -188q0 -50 -8 -101zM229 343q-9 -52 -9 -91q0 -163 131 -163q84 0 133 66.5t67 168.5q7 44 7 81
q0 73 -28.5 121t-94.5 48q-84 0 -136.5 -66t-69.5 -165zM348 709l-38 35q76 76 131 120q30 24 53 24q22 0 48 -29q43 -48 86 -115l-41 -34l-104 90z" />
    <glyph glyph-name="Otilde" unicode="&#xd5;" horiz-adv-x="663" 
d="M678 323q-26 -171 -118.5 -253t-230.5 -82q-112 0 -174 66t-62 186q0 62 9 110q13 76 41.5 134.5t63 94t78.5 58.5t84.5 31.5t83.5 8.5q104 0 168.5 -65t64.5 -188q0 -50 -8 -101zM229 343q-9 -52 -9 -91q0 -163 131 -163q84 0 133 66.5t67 168.5q7 44 7 81
q0 73 -28.5 121t-94.5 48q-84 0 -136.5 -66t-69.5 -165zM329 733l4 74q43 29 88 29q27 0 68 -13t63 -13q32 0 65 18l-5 -79q-38 -18 -71 -18q-23 0 -69 11t-65 11q-38 0 -78 -20z" />
    <glyph glyph-name="Odieresis" unicode="&#xd6;" horiz-adv-x="663" 
d="M678 323q-26 -171 -118.5 -253t-230.5 -82q-112 0 -174 66t-62 186q0 62 9 110q13 76 41.5 134.5t63 94t78.5 58.5t84.5 31.5t83.5 8.5q104 0 168.5 -65t64.5 -188q0 -50 -8 -101zM229 343q-9 -52 -9 -91q0 -163 131 -163q84 0 133 66.5t67 168.5q7 44 7 81
q0 73 -28.5 121t-94.5 48q-84 0 -136.5 -66t-69.5 -165zM507 773q0 29 22 50t54 21q24 0 38.5 -15t14.5 -37q0 -29 -22.5 -50t-53.5 -21q-24 0 -38.5 14.5t-14.5 37.5zM312 773q0 29 22 50t54 21q24 0 38.5 -15t14.5 -37q0 -29 -22.5 -50t-53.5 -21q-24 0 -38.5 14.5
t-14.5 37.5z" />
    <glyph glyph-name="multiply" unicode="&#xd7;" 
d="M253 314l-95 114l84 71l94 -114l133 114l59 -72l-134 -114l92 -110l-84 -72l-91 111l-133 -113l-59 72z" />
    <glyph glyph-name="Oslash" unicode="&#xd8;" horiz-adv-x="664" 
d="M678 323q-26 -171 -118.5 -253t-230.5 -82q-49 0 -96 15l-71 -105l-78 48l72 107q-63 66 -63 187q0 62 9 110q13 76 41.5 134.5t63 94t78.5 58.5t84.5 31.5t83.5 8.5q60 0 107 -22l60 90l80 -47l-67 -100q53 -66 53 -174q0 -50 -8 -101zM229 343q-9 -52 -9 -91
q0 -52 12 -85l263 392q-27 15 -60 15q-84 0 -136.5 -66t-69.5 -165zM558 405q0 41 -8 70l-254 -377q22 -9 55 -9q84 0 133 66.5t67 168.5q7 44 7 81z" />
    <glyph glyph-name="Ugrave" unicode="&#xd9;" horiz-adv-x="629" 
d="M182 665h121l-78 -448q-4 -26 -4 -36q0 -49 28.5 -70t83.5 -21q126 0 147 122l80 453h121l-83 -469q-37 -209 -274 -209q-226 0 -226 170q0 32 5 58zM397 902l140 -158l-33 -35l-136 81q-31 20 -31 45q0 35 60 67z" />
    <glyph glyph-name="Uacute" unicode="&#xda;" horiz-adv-x="629" 
d="M182 665h121l-78 -448q-4 -26 -4 -36q0 -49 28.5 -70t83.5 -21q126 0 147 122l80 453h121l-83 -469q-37 -209 -274 -209q-226 0 -226 170q0 32 5 58zM351 748l181 148q49 -31 49 -61q0 -29 -50 -56q-17 -9 -152 -70z" />
    <glyph glyph-name="Ucircumflex" unicode="&#xdb;" horiz-adv-x="629" 
d="M182 665h121l-78 -448q-4 -26 -4 -36q0 -49 28.5 -70t83.5 -21q126 0 147 122l80 453h121l-83 -469q-37 -209 -274 -209q-226 0 -226 170q0 32 5 58zM325 709l-38 35q76 76 131 120q30 24 53 24q22 0 48 -29q43 -48 86 -115l-41 -34l-104 90z" />
    <glyph glyph-name="Udieresis" unicode="&#xdc;" horiz-adv-x="629" 
d="M182 665h121l-78 -448q-4 -26 -4 -36q0 -49 28.5 -70t83.5 -21q126 0 147 122l80 453h121l-83 -469q-37 -209 -274 -209q-226 0 -226 170q0 32 5 58zM503 773q0 29 22 50t54 21q24 0 38.5 -15t14.5 -37q0 -29 -22.5 -50t-53.5 -21q-24 0 -38.5 14.5t-14.5 37.5zM308 773
q0 29 22 50t54 21q24 0 38.5 -15t14.5 -37q0 -29 -22.5 -50t-53.5 -21q-24 0 -38.5 14.5t-14.5 37.5z" />
    <glyph glyph-name="Yacute" unicode="&#xdd;" horiz-adv-x="559" 
d="M540 665h135l-291 -411l-45 -254h-122l45 254l-144 411h128l94 -294h1zM312 748l181 148q49 -31 49 -61q0 -29 -50 -56q-17 -9 -152 -70z" />
    <glyph glyph-name="Thorn" unicode="&#xde;" horiz-adv-x="570" 
d="M214 130l-23 -130h-122l117 665h122l-18 -103h104q98 0 153 -46t55 -131q0 -125 -81.5 -190t-215.5 -65h-91zM231 227h72q82 0 126.5 33.5t44.5 112.5q0 53 -32.5 72.5t-90.5 19.5h-77z" />
    <glyph glyph-name="germandbls" unicode="&#xdf;" horiz-adv-x="585" 
d="M389 -15q-41 0 -83.5 11t-65.5 27l42 83q53 -32 102 -32q38 0 62 19.5t24 57.5q0 26 -20.5 47.5t-45.5 35.5t-45.5 40t-20.5 59q0 39 27 74t58.5 56.5t58 51t26.5 57.5q0 29 -26.5 45t-71.5 16q-116 0 -135 -113l-129 -730h-118l129 730q7 44 22 77t44 63.5t79.5 46.5
t119.5 16q98 0 149.5 -37.5t51.5 -94.5q0 -36 -17.5 -66.5t-42.5 -51.5t-49.5 -39t-42 -36t-17.5 -36q0 -17 14 -33t33.5 -30.5t39.5 -32t34 -44.5t14 -59q0 -86 -55.5 -132t-144.5 -46z" />
    <glyph glyph-name="agrave" unicode="&#xe0;" horiz-adv-x="539" 
d="M561 483l-68 -387l-7 -96h-103l2 53q-1 0 -2 0.5t-2 0.5q-57 -68 -151 -68q-77 0 -117.5 49.5t-40.5 133.5q0 158 81.5 253.5t228.5 95.5q89 0 179 -35zM387 159l45 260q-24 12 -71 12q-46 0 -81 -24.5t-53.5 -64t-27 -80t-8.5 -80.5q0 -110 82 -110q45 0 76.5 26
t37.5 61zM374 784l94 -190l-42 -29q-73 75 -107 115q-19 22 -19 44q0 43 74 60z" />
    <glyph glyph-name="aacute" unicode="&#xe1;" horiz-adv-x="539" 
d="M561 483l-68 -387l-7 -96h-103l2 53q-1 0 -2 0.5t-2 0.5q-57 -68 -151 -68q-77 0 -117.5 49.5t-40.5 133.5q0 158 81.5 253.5t228.5 95.5q89 0 179 -35zM387 159l45 260q-24 12 -71 12q-46 0 -81 -24.5t-53.5 -64t-27 -80t-8.5 -80.5q0 -110 82 -110q45 0 76.5 26
t37.5 61zM314 596l145 184q67 -17 67 -53q0 -21 -37 -55q-47 -42 -141 -107z" />
    <glyph glyph-name="acircumflex" unicode="&#xe2;" horiz-adv-x="539" 
d="M561 483l-68 -387l-7 -96h-103l2 53q-1 0 -2 0.5t-2 0.5q-57 -68 -151 -68q-77 0 -117.5 49.5t-40.5 133.5q0 158 81.5 253.5t228.5 95.5q89 0 179 -35zM387 159l45 260q-24 12 -71 12q-46 0 -81 -24.5t-53.5 -64t-27 -80t-8.5 -80.5q0 -110 82 -110q45 0 76.5 26
t37.5 61zM270 561l-39 33q65 77 126 136q35 32 61 32q18 0 27.5 -6.5t22.5 -25.5q45 -65 79 -138l-41 -31l-100 105z" />
    <glyph glyph-name="atilde" unicode="&#xe3;" horiz-adv-x="539" 
d="M561 483l-68 -387l-7 -96h-103l2 53q-1 0 -2 0.5t-2 0.5q-57 -68 -151 -68q-77 0 -117.5 49.5t-40.5 133.5q0 158 81.5 253.5t228.5 95.5q89 0 179 -35zM387 159l45 260q-24 12 -71 12q-46 0 -81 -24.5t-53.5 -64t-27 -80t-8.5 -80.5q0 -110 82 -110q45 0 76.5 26
t37.5 61zM261 603l4 74q41 29 88 29q27 0 68 -13t63 -13q27 0 65 18l-5 -78q-38 -19 -72 -19q-23 0 -68.5 11.5t-64.5 11.5q-36 0 -78 -21z" />
    <glyph glyph-name="adieresis" unicode="&#xe4;" horiz-adv-x="539" 
d="M561 483l-68 -387l-7 -96h-103l2 53q-1 0 -2 0.5t-2 0.5q-57 -68 -151 -68q-77 0 -117.5 49.5t-40.5 133.5q0 158 81.5 253.5t228.5 95.5q89 0 179 -35zM387 159l45 260q-24 12 -71 12q-46 0 -81 -24.5t-53.5 -64t-27 -80t-8.5 -80.5q0 -110 82 -110q45 0 76.5 26
t37.5 61zM438 645q0 29 22 50t54 21q24 0 38.5 -15t14.5 -37q0 -29 -22.5 -50t-53.5 -21q-24 0 -38.5 14.5t-14.5 37.5zM243 645q0 29 22 50t54 21q24 0 38.5 -15t14.5 -37q0 -29 -22.5 -50t-53.5 -21q-24 0 -38.5 14.5t-14.5 37.5z" />
    <glyph glyph-name="aring" unicode="&#xe5;" horiz-adv-x="539" 
d="M561 483l-68 -387l-7 -96h-103l2 53q-1 0 -2 0.5t-2 0.5q-57 -68 -151 -68q-77 0 -117.5 49.5t-40.5 133.5q0 158 81.5 253.5t228.5 95.5q89 0 179 -35zM387 159l45 260q-24 12 -71 12q-46 0 -81 -24.5t-53.5 -64t-27 -80t-8.5 -80.5q0 -110 82 -110q45 0 76.5 26
t37.5 61zM303 643q0 44 31.5 75.5t79.5 31.5q40 0 61 -22.5t21 -57.5q0 -45 -31 -75.5t-80 -30.5q-40 0 -61 22t-21 57zM406 698q-18 0 -30.5 -14t-12.5 -35q0 -34 31 -34q19 0 31 14.5t12 36.5q0 32 -31 32z" />
    <glyph glyph-name="ae" unicode="&#xe6;" horiz-adv-x="742" 
d="M652 518q65 0 101 -30.5t36 -87.5q0 -49 -24 -86t-58 -57t-81 -32.5t-81.5 -16t-71.5 -4.5q-8 -55 17.5 -91.5t84.5 -36.5q63 0 130 42l31 -76q-24 -19 -77 -38t-116 -19q-105 0 -149 57q-77 -57 -158 -57q-85 0 -124.5 51t-39.5 134q0 155 83.5 251.5t229.5 96.5
q73 0 137 -33q60 33 130 33zM354 432q-52 0 -90 -40t-54.5 -93.5t-16.5 -109.5q0 -52 20 -84t63 -32q50 0 87 32q-11 30 -11 78q0 127 85 230q-36 19 -83 19zM681 385q0 22 -15.5 34.5t-37.5 12.5q-57 0 -94.5 -46t-50.5 -105q25 0 55.5 4.5t64 14.5t56 32.5t22.5 52.5z" />
    <glyph glyph-name="ccedilla" unicode="&#xe7;" horiz-adv-x="460" 
d="M300 80q58 0 121 42l36 -81q-64 -47 -162 -55l-24 -52q36 -2 58 -22t22 -53q0 -53 -38 -76.5t-91 -23.5q-59 0 -94 19l25 54q30 -14 65 -14q56 0 56 37t-84 35l48 97q-78 9 -120 63t-42 145q0 87 24.5 152t66 101t87.5 53t96 17q56 0 103 -25t72 -78l-82 -54
q-37 62 -94 62q-67 0 -109 -58.5t-42 -156.5q0 -128 102 -128z" />
    <glyph glyph-name="egrave" unicode="&#xe8;" horiz-adv-x="470" 
d="M403 385q0 23 -14.5 35t-38.5 12q-57 0 -94 -44.5t-50 -102.5q26 0 56 3.5t63.5 13.5t55.5 31.5t22 51.5zM368 518q67 0 105.5 -32t38.5 -85q0 -50 -23.5 -87.5t-56.5 -57.5t-79.5 -32.5t-82.5 -16t-75 -3.5q-4 -54 20 -90.5t83 -36.5t129 44l36 -78q-27 -21 -78 -39.5
t-116 -18.5q-98 0 -146 54.5t-48 146.5q0 88 34.5 163t102.5 122t156 47zM347 784l94 -190l-42 -29q-73 75 -107 115q-19 22 -19 44q0 43 74 60z" />
    <glyph glyph-name="eacute" unicode="&#xe9;" horiz-adv-x="470" 
d="M403 385q0 23 -14.5 35t-38.5 12q-57 0 -94 -44.5t-50 -102.5q26 0 56 3.5t63.5 13.5t55.5 31.5t22 51.5zM368 518q67 0 105.5 -32t38.5 -85q0 -50 -23.5 -87.5t-56.5 -57.5t-79.5 -32.5t-82.5 -16t-75 -3.5q-4 -54 20 -90.5t83 -36.5t129 44l36 -78q-27 -21 -78 -39.5
t-116 -18.5q-98 0 -146 54.5t-48 146.5q0 88 34.5 163t102.5 122t156 47zM279 596l145 184q67 -17 67 -53q0 -21 -37 -55q-47 -42 -141 -107z" />
    <glyph glyph-name="ecircumflex" unicode="&#xea;" horiz-adv-x="470" 
d="M403 385q0 23 -14.5 35t-38.5 12q-57 0 -94 -44.5t-50 -102.5q26 0 56 3.5t63.5 13.5t55.5 31.5t22 51.5zM368 518q67 0 105.5 -32t38.5 -85q0 -50 -23.5 -87.5t-56.5 -57.5t-79.5 -32.5t-82.5 -16t-75 -3.5q-4 -54 20 -90.5t83 -36.5t129 44l36 -78q-27 -21 -78 -39.5
t-116 -18.5q-98 0 -146 54.5t-48 146.5q0 88 34.5 163t102.5 122t156 47zM253 561l-39 33q65 77 126 136q35 32 61 32q18 0 27.5 -6.5t22.5 -25.5q45 -65 79 -138l-41 -31l-100 105z" />
    <glyph glyph-name="edieresis" unicode="&#xeb;" horiz-adv-x="470" 
d="M403 385q0 23 -14.5 35t-38.5 12q-57 0 -94 -44.5t-50 -102.5q26 0 56 3.5t63.5 13.5t55.5 31.5t22 51.5zM368 518q67 0 105.5 -32t38.5 -85q0 -50 -23.5 -87.5t-56.5 -57.5t-79.5 -32.5t-82.5 -16t-75 -3.5q-4 -54 20 -90.5t83 -36.5t129 44l36 -78q-27 -21 -78 -39.5
t-116 -18.5q-98 0 -146 54.5t-48 146.5q0 88 34.5 163t102.5 122t156 47zM412 645q0 29 22 50t54 21q24 0 38.5 -15t14.5 -37q0 -29 -22.5 -50t-53.5 -21q-24 0 -38.5 14.5t-14.5 37.5zM217 645q0 29 22 50t54 21q24 0 38.5 -15t14.5 -37q0 -29 -22.5 -50t-53.5 -21
q-24 0 -38.5 14.5t-14.5 37.5z" />
    <glyph glyph-name="igrave" unicode="&#xec;" horiz-adv-x="244" 
d="M185 0h-120l89 503h120zM221 784l94 -190l-42 -29q-73 75 -107 115q-19 22 -19 44q0 43 74 60z" />
    <glyph glyph-name="iacute" unicode="&#xed;" horiz-adv-x="244" 
d="M185 0h-120l89 503h120zM146 596l145 184q67 -17 67 -53q0 -21 -37 -55q-47 -42 -141 -107z" />
    <glyph glyph-name="icircumflex" unicode="&#xee;" horiz-adv-x="244" 
d="M185 0h-120l89 503h120zM114 561l-39 33q65 77 126 136q35 32 61 32q18 0 27.5 -6.5t22.5 -25.5q45 -65 79 -138l-41 -31l-100 105z" />
    <glyph glyph-name="idieresis" unicode="&#xef;" horiz-adv-x="244" 
d="M185 0h-120l89 503h120zM275 645q0 29 22 50t54 21q24 0 38.5 -15t14.5 -37q0 -29 -22.5 -50t-53.5 -21q-24 0 -38.5 14.5t-14.5 37.5zM80 645q0 29 22 50t54 21q24 0 38.5 -15t14.5 -37q0 -29 -22.5 -50t-53.5 -21q-24 0 -38.5 14.5t-14.5 37.5z" />
    <glyph glyph-name="eth" unicode="&#xf0;" horiz-adv-x="508" 
d="M296 482l-39 63l75 48q-39 26 -93 37l33 87q97 -13 159 -65l90 55l38 -63l-75 -47q53 -90 53 -204q0 -71 -10 -125q-23 -130 -91.5 -206t-190.5 -76q-91 0 -137.5 49.5t-46.5 127.5q0 41 5 66q20 106 80.5 161t153.5 55q70 0 120 -38q-2 78 -34 130zM190 220
q-4 -21 -4 -47q0 -43 19.5 -67.5t56.5 -24.5q54 0 91 50t51 130q8 49 8 55q-15 15 -44 26t-56 11q-98 0 -122 -133z" />
    <glyph glyph-name="ntilde" unicode="&#xf1;" horiz-adv-x="541" 
d="M183 0h-118l73 416l7 87h100l-1 -63q69 78 167 78q132 0 133 -123q0 -27 -5 -57l-60 -338h-119l56 318q4 21 4 45q0 63 -56 63q-46 0 -81.5 -30t-42.5 -70zM242 603l4 74q41 29 88 29q27 0 68 -13t63 -13q27 0 65 18l-5 -78q-38 -19 -72 -19q-23 0 -68.5 11.5t-64.5 11.5
q-36 0 -78 -21z" />
    <glyph glyph-name="ograve" unicode="&#xf2;" horiz-adv-x="526" 
d="M273 73q-79 0 -79 106q0 47 7 88q13 75 48.5 119t88.5 44q78 0 78 -105q0 -44 -6 -80q-14 -80 -49 -126t-88 -46zM78 261q-6 -36 -6 -82q0 -94 47.5 -144t135.5 -50q108 0 183.5 64t96.5 202q5 35 5 79q0 56 -18.5 96t-48.5 58.5t-58 26t-58 7.5q-34 0 -66.5 -6.5
t-67.5 -24.5t-63 -46t-50 -74t-32 -106zM353 784l94 -190l-42 -29q-73 75 -107 115q-19 22 -19 44q0 43 74 60z" />
    <glyph glyph-name="oacute" unicode="&#xf3;" horiz-adv-x="526" 
d="M273 73q53 0 88 46t49 126q6 36 6 80q0 105 -78 105q-53 0 -88.5 -44t-48.5 -119q-7 -41 -7 -88q0 -106 79 -106zM78 261q10 60 32 106t50 74t63 46t67.5 24.5t66.5 6.5q30 0 58 -7.5t58 -26t48.5 -58.5t18.5 -96q0 -44 -5 -79q-21 -138 -96.5 -202t-183.5 -64
q-88 0 -135.5 50t-47.5 144q0 46 6 82zM293 596l145 184q67 -17 67 -53q0 -21 -37 -55q-47 -42 -141 -107z" />
    <glyph glyph-name="ocircumflex" unicode="&#xf4;" horiz-adv-x="526" 
d="M273 73q-79 0 -79 106q0 47 7 88q13 75 48.5 119t88.5 44q78 0 78 -105q0 -44 -6 -80q-14 -80 -49 -126t-88 -46zM78 261q-6 -36 -6 -82q0 -94 47.5 -144t135.5 -50q108 0 183.5 64t96.5 202q5 35 5 79q0 56 -18.5 96t-48.5 58.5t-58 26t-58 7.5q-34 0 -66.5 -6.5
t-67.5 -24.5t-63 -46t-50 -74t-32 -106zM253 561l-39 33q65 77 126 136q35 32 61 32q18 0 27.5 -6.5t22.5 -25.5q45 -65 79 -138l-41 -31l-100 105z" />
    <glyph glyph-name="otilde" unicode="&#xf5;" horiz-adv-x="526" 
d="M273 73q53 0 88 46t49 126q6 36 6 80q0 105 -78 105q-53 0 -88.5 -44t-48.5 -119q-7 -41 -7 -88q0 -106 79 -106zM78 261q10 60 32 106t50 74t63 46t67.5 24.5t66.5 6.5q30 0 58 -7.5t58 -26t48.5 -58.5t18.5 -96q0 -44 -5 -79q-21 -138 -96.5 -202t-183.5 -64
q-88 0 -135.5 50t-47.5 144q0 46 6 82zM238 603l4 74q41 29 88 29q27 0 68 -13t63 -13q27 0 65 18l-5 -78q-38 -19 -72 -19q-23 0 -68.5 11.5t-64.5 11.5q-36 0 -78 -21z" />
    <glyph glyph-name="odieresis" unicode="&#xf6;" horiz-adv-x="526" 
d="M273 73q-79 0 -79 106q0 47 7 88q13 75 48.5 119t88.5 44q78 0 78 -105q0 -44 -6 -80q-14 -80 -49 -126t-88 -46zM78 261q-6 -36 -6 -82q0 -94 47.5 -144t135.5 -50q108 0 183.5 64t96.5 202q5 35 5 79q0 56 -18.5 96t-48.5 58.5t-58 26t-58 7.5q-34 0 -66.5 -6.5
t-67.5 -24.5t-63 -46t-50 -74t-32 -106zM414 645q0 29 22 50t54 21q24 0 38.5 -15t14.5 -37q0 -29 -22.5 -50t-53.5 -21q-24 0 -38.5 14.5t-14.5 37.5zM219 645q0 29 22 50t54 21q24 0 38.5 -15t14.5 -37q0 -29 -22.5 -50t-53.5 -21q-24 0 -38.5 14.5t-14.5 37.5z" />
    <glyph glyph-name="divide" unicode="&#xf7;" 
d="M280 475q0 33 22 57t56 24q26 0 40.5 -15t14.5 -40q0 -33 -22.5 -57t-55.5 -24q-26 0 -40.5 15t-14.5 40zM225 120q0 33 22 57t56 24q26 0 40.5 -15t14.5 -40q0 -33 -22.5 -57t-55.5 -24q-26 0 -40.5 15t-14.5 40zM534 363l-17 -97h-405l17 97h405z" />
    <glyph glyph-name="oslash" unicode="&#xf8;" horiz-adv-x="526" 
d="M78 261q10 60 32 106t50 74t63 46t67.5 24.5t66.5 6.5q40 0 79 -14l52 75l65 -40l-55 -78q42 -49 42 -131q0 -44 -5 -79q-21 -138 -96.5 -202t-183.5 -64q-45 0 -78 13l-59 -87l-65 41l61 88q-42 49 -42 139q0 46 6 82zM338 430q-53 0 -88.5 -44t-48.5 -119
q-7 -41 -7 -88q0 -16 1 -23l183 264q-16 10 -40 10zM273 73q53 0 88 46t49 126q6 36 6 80q0 11 -1 16l-180 -260q16 -8 38 -8z" />
    <glyph glyph-name="ugrave" unicode="&#xf9;" horiz-adv-x="540" 
d="M447 503h119l-74 -419l-7 -84h-102l2 58l-6 1q-56 -73 -153 -73q-139 0 -139 130q0 20 5 50l59 337h119l-56 -319q-5 -25 -5 -44q0 -62 65 -62q41 0 74.5 30t40.5 70zM348 784l94 -190l-42 -29q-73 75 -107 115q-19 22 -19 44q0 43 74 60z" />
    <glyph glyph-name="uacute" unicode="&#xfa;" horiz-adv-x="540" 
d="M447 503h119l-74 -419l-7 -84h-102l2 58l-6 1q-56 -73 -153 -73q-139 0 -139 130q0 20 5 50l59 337h119l-56 -319q-5 -25 -5 -44q0 -62 65 -62q41 0 74.5 30t40.5 70zM298 596l145 184q67 -17 67 -53q0 -21 -37 -55q-47 -42 -141 -107z" />
    <glyph glyph-name="ucircumflex" unicode="&#xfb;" horiz-adv-x="540" 
d="M447 503h119l-74 -419l-7 -84h-102l2 58l-6 1q-56 -73 -153 -73q-139 0 -139 130q0 20 5 50l59 337h119l-56 -319q-5 -25 -5 -44q0 -62 65 -62q41 0 74.5 30t40.5 70zM255 561l-39 33q65 77 126 136q35 32 61 32q18 0 27.5 -6.5t22.5 -25.5q45 -65 79 -138l-41 -31
l-100 105z" />
    <glyph glyph-name="udieresis" unicode="&#xfc;" horiz-adv-x="540" 
d="M447 503h119l-74 -419l-7 -84h-102l2 58l-6 1q-56 -73 -153 -73q-139 0 -139 130q0 20 5 50l59 337h119l-56 -319q-5 -25 -5 -44q0 -62 65 -62q41 0 74.5 30t40.5 70zM419 645q0 29 22 50t54 21q24 0 38.5 -15t14.5 -37q0 -29 -22.5 -50t-53.5 -21q-24 0 -38.5 14.5
t-14.5 37.5zM224 645q0 29 22 50t54 21q24 0 38.5 -15t14.5 -37q0 -29 -22.5 -50t-53.5 -21q-24 0 -38.5 14.5t-14.5 37.5z" />
    <glyph glyph-name="yacute" unicode="&#xfd;" horiz-adv-x="537" 
d="M565 503l-77 -440q-16 -93 -30 -138q-60 -191 -247 -191q-72 0 -111 33.5t-39 89.5q0 62 32.5 104t108.5 78q-58 7 -83.5 35.5t-25.5 79.5q0 23 4 44l54 305h119l-51 -292q-5 -25 -5 -43q0 -62 71 -62q38 0 69.5 26.5t38.5 68.5l54 302h118zM172 -121q0 -27 16.5 -41.5
t44.5 -14.5q94 0 120 142l18 97q-37 -36 -96 -66q-55 -28 -79 -52.5t-24 -64.5zM291 596l145 184q67 -17 67 -53q0 -21 -37 -55q-47 -42 -141 -107z" />
    <glyph glyph-name="thorn" unicode="&#xfe;" horiz-adv-x="530" 
d="M181 10l-39 -220h-119l160 905h119l-34 -191q63 13 105 13q174 0 174 -193q0 -156 -73.5 -248.5t-194.5 -92.5q-57 0 -98 27zM426 309q0 117 -96 117q-45 0 -77 -11l-55 -308q35 -35 86 -35q57 0 99.5 68t42.5 169z" />
    <glyph glyph-name="ydieresis" unicode="&#xff;" horiz-adv-x="537" 
d="M565 503l-77 -440q-16 -93 -30 -138q-60 -191 -247 -191q-72 0 -111 33.5t-39 89.5q0 62 32.5 104t108.5 78q-58 7 -83.5 35.5t-25.5 79.5q0 23 4 44l54 305h119l-51 -292q-5 -25 -5 -43q0 -62 71 -62q38 0 69.5 26.5t38.5 68.5l54 302h118zM172 -121q0 -27 16.5 -41.5
t44.5 -14.5q94 0 120 142l18 97q-37 -36 -96 -66q-55 -28 -79 -52.5t-24 -64.5zM420 645q0 29 22 50t54 21q24 0 38.5 -15t14.5 -37q0 -29 -22.5 -50t-53.5 -21q-24 0 -38.5 14.5t-14.5 37.5zM225 645q0 29 22 50t54 21q24 0 38.5 -15t14.5 -37q0 -29 -22.5 -50t-53.5 -21
q-24 0 -38.5 14.5t-14.5 37.5z" />
    <glyph glyph-name="Amacron" unicode="&#x100;" horiz-adv-x="625" 
d="M141 0h-129l341 665h144l116 -665h-120l-28 176h-234zM409 553l-141 -285h185l-39 285h-5zM295 734l16 87h287l-16 -87h-287z" />
    <glyph glyph-name="amacron" unicode="&#x101;" horiz-adv-x="539" 
d="M561 483l-68 -387l-7 -96h-103l2 53q-1 0 -2 0.5t-2 0.5q-57 -68 -151 -68q-77 0 -117.5 49.5t-40.5 133.5q0 158 81.5 253.5t228.5 95.5q89 0 179 -35zM387 159l45 260q-24 12 -71 12q-46 0 -81 -24.5t-53.5 -64t-27 -80t-8.5 -80.5q0 -110 82 -110q45 0 76.5 26
t37.5 61zM244 609l15 86h287l-15 -86h-287z" />
    <glyph glyph-name="Abreve" unicode="&#x102;" horiz-adv-x="625" 
d="M141 0h-129l341 665h144l116 -665h-120l-28 176h-234zM409 553l-141 -285h185l-39 285h-5zM556 876l70 -30q-59 -126 -188 -126q-71 0 -107 36t-42 88l75 29q17 -77 86 -77q37 0 60.5 18.5t45.5 61.5z" />
    <glyph glyph-name="abreve" unicode="&#x103;" horiz-adv-x="539" 
d="M561 483l-68 -387l-7 -96h-103l2 53q-1 0 -2 0.5t-2 0.5q-57 -68 -151 -68q-77 0 -117.5 49.5t-40.5 133.5q0 158 81.5 253.5t228.5 95.5q89 0 179 -35zM387 159l45 260q-24 12 -71 12q-46 0 -81 -24.5t-53.5 -64t-27 -80t-8.5 -80.5q0 -110 82 -110q45 0 76.5 26
t37.5 61zM506 724l70 -17q-53 -143 -186 -143q-71 0 -105.5 41t-37.5 102l71 16q7 -44 27 -63.5t56 -19.5q32 0 56.5 19t48.5 65z" />
    <glyph glyph-name="Aogonek" unicode="&#x104;" horiz-adv-x="625" 
d="M141 0h-129l343 665h140l118 -665q-40 -24 -71.5 -64t-31.5 -71t33 -31q25 0 52 11l10 -65q-42 -21 -96 -21q-48 0 -70 22t-22 55q0 79 102 164h-26l-28 176h-234zM409 553l-141 -285h185l-39 285h-5z" />
    <glyph glyph-name="aogonek" unicode="&#x105;" horiz-adv-x="539" 
d="M561 483l-68 -387l-7 -96q-38 -24 -69 -64.5t-31 -70.5q0 -31 33 -31q25 0 52 11l10 -65q-42 -21 -96 -21q-48 0 -70 22t-22 55q0 84 90 164l2 53q-1 0 -2 0.5t-2 0.5q-57 -68 -151 -68q-77 0 -117.5 49.5t-40.5 133.5q0 158 81.5 253.5t228.5 95.5q89 0 179 -35z
M387 159l45 260q-24 12 -71 12q-46 0 -81 -24.5t-53.5 -64t-27 -80t-8.5 -80.5q0 -110 82 -110q45 0 76.5 26t37.5 61z" />
    <glyph glyph-name="Cacute" unicode="&#x106;" horiz-adv-x="590" 
d="M364 89q78 0 168 70l52 -80q-114 -91 -245 -91q-116 0 -180.5 68.5t-64.5 196.5q0 114 31 199t84 132.5t113.5 70t129.5 22.5q148 0 216 -128l-93 -58q-50 83 -133 83q-98 0 -159 -83t-61 -221q0 -181 142 -181zM372 748l181 148q49 -31 49 -61q0 -29 -50 -56
q-17 -9 -152 -70z" />
    <glyph glyph-name="cacute" unicode="&#x107;" horiz-adv-x="460" 
d="M300 80q58 0 121 42l36 -81q-75 -56 -189 -56q-92 0 -142 55t-50 155q0 87 24.5 152t66 101t87.5 53t96 17q56 0 103 -25t72 -78l-82 -54q-37 62 -94 62q-67 0 -109 -58.5t-42 -156.5q0 -128 102 -128zM291 596l145 184q67 -17 67 -53q0 -21 -37 -55q-47 -42 -141 -107z
" />
    <glyph glyph-name="Ccircumflex" unicode="&#x108;" horiz-adv-x="590" 
d="M364 89q78 0 168 70l52 -80q-114 -91 -245 -91q-116 0 -180.5 68.5t-64.5 196.5q0 114 31 199t84 132.5t113.5 70t129.5 22.5q148 0 216 -128l-93 -58q-50 83 -133 83q-98 0 -159 -83t-61 -221q0 -181 142 -181zM329 709l-38 35q76 76 131 120q30 24 53 24q22 0 48 -29
q43 -48 86 -115l-41 -34l-104 90z" />
    <glyph glyph-name="ccircumflex" unicode="&#x109;" horiz-adv-x="460" 
d="M300 80q58 0 121 42l36 -81q-75 -56 -189 -56q-92 0 -142 55t-50 155q0 87 24.5 152t66 101t87.5 53t96 17q56 0 103 -25t72 -78l-82 -54q-37 62 -94 62q-67 0 -109 -58.5t-42 -156.5q0 -128 102 -128zM256 562l-39 33q65 77 126 136q35 32 61 32q18 0 27.5 -6.5
t22.5 -25.5q45 -65 79 -138l-41 -31l-100 105z" />
    <glyph glyph-name="Cdotaccent" unicode="&#x10a;" horiz-adv-x="590" 
d="M364 89q78 0 168 70l52 -80q-114 -91 -245 -91q-116 0 -180.5 68.5t-64.5 196.5q0 114 31 199t84 132.5t113.5 70t129.5 22.5q148 0 216 -128l-93 -58q-50 83 -133 83q-98 0 -159 -83t-61 -221q0 -181 142 -181zM391 783q0 32 23.5 54.5t57.5 22.5q26 0 42.5 -16
t16.5 -40q0 -33 -24 -55t-58 -22q-27 0 -42.5 15.5t-15.5 40.5z" />
    <glyph glyph-name="cdotaccent" unicode="&#x10b;" horiz-adv-x="460" 
d="M300 80q58 0 121 42l36 -81q-75 -56 -189 -56q-92 0 -142 55t-50 155q0 87 24.5 152t66 101t87.5 53t96 17q56 0 103 -25t72 -78l-82 -54q-37 62 -94 62q-67 0 -109 -58.5t-42 -156.5q0 -128 102 -128zM305 636q0 32 24 55t58 23q26 0 42 -16t16 -40q0 -33 -24 -55
t-58 -22q-27 0 -42.5 15t-15.5 40z" />
    <glyph glyph-name="Ccaron" unicode="&#x10c;" horiz-adv-x="590" 
d="M364 89q78 0 168 70l52 -80q-114 -91 -245 -91q-116 0 -180.5 68.5t-64.5 196.5q0 114 31 199t84 132.5t113.5 70t129.5 22.5q148 0 216 -128l-93 -58q-50 83 -133 83q-98 0 -159 -83t-61 -221q0 -181 142 -181zM366 888l103 -92l136 95l37 -37q-55 -59 -123 -113
q-37 -32 -62 -32q-26 0 -51 31q-51 62 -83 114z" />
    <glyph glyph-name="ccaron" unicode="&#x10d;" horiz-adv-x="460" 
d="M300 80q58 0 121 42l36 -81q-75 -56 -189 -56q-92 0 -142 55t-50 155q0 87 24.5 152t66 101t87.5 53t96 17q56 0 103 -25t72 -78l-82 -54q-37 62 -94 62q-67 0 -109 -58.5t-42 -156.5q0 -128 102 -128zM510 764l39 -33q-69 -80 -127 -136q-33 -32 -61 -32
q-18 0 -27.5 6.5t-22.5 25.5q-43 62 -80 137l44 32l99 -105z" />
    <glyph glyph-name="Dcaron" unicode="&#x10e;" horiz-adv-x="644" 
d="M70 0l117 665h217q126 0 195.5 -65t69.5 -188q0 -107 -30 -188t-83.5 -129t-119.5 -71.5t-144 -23.5h-222zM292 568l-83 -472h100q107 0 170.5 82t63.5 221q0 169 -161 169h-90zM314 888l103 -92l136 95l37 -37q-55 -59 -123 -113q-37 -32 -62 -32q-26 0 -51 31
q-51 62 -83 114z" />
    <glyph glyph-name="dcaron" unicode="&#x10f;" horiz-adv-x="617" 
d="M369 518q43 0 79 -12l34 189h118l-106 -596l-8 -99h-102l2 54q-1 0 -2.5 0.5t-2.5 0.5q-58 -70 -147 -70q-85 0 -123.5 53t-38.5 134q0 152 79.5 249t217.5 97zM387 156l45 261q-27 8 -57 8q-84 0 -133 -68.5t-49 -170.5q0 -113 80 -113q45 0 76.5 25.5t37.5 57.5z
M639 480l37 209q28 7 52 7q41 0 41 -33q0 -37 -83 -193z" />
    <glyph glyph-name="Dcroat" unicode="&#x110;" horiz-adv-x="657" 
d="M83 0l50 287h-69l17 96h69l50 282h217q126 0 195.5 -65t69.5 -188q0 -107 -30 -188t-83.5 -129t-119.5 -71.5t-144 -23.5h-222zM305 568l-33 -185h170l-17 -96h-170l-33 -191h100q107 0 170.5 82t63.5 221q0 169 -161 169h-90z" />
    <glyph glyph-name="dcroat" unicode="&#x111;" horiz-adv-x="539" 
d="M365 500q43 0 79 -12l12 68h-159l13 78h161l11 61h118l-11 -61h56l-13 -78h-57l-81 -457l-8 -99h-102l2 54q-1 0 -2.5 0.5t-2.5 0.5q-58 -70 -147 -70q-85 0 -123.5 53t-38.5 134q0 151 77 239.5t216 88.5zM387 156l41 243q-27 8 -57 8q-85 0 -131.5 -60t-46.5 -161
q0 -113 80 -113q45 0 76.5 25.5t37.5 57.5z" />
    <glyph glyph-name="Emacron" unicode="&#x112;" horiz-adv-x="509" 
d="M70 0l117 665h401l-18 -106h-280l-29 -167h240l-19 -105h-240l-31 -181h286l-19 -106h-408zM249 734l16 87h287l-16 -87h-287z" />
    <glyph glyph-name="emacron" unicode="&#x113;" horiz-adv-x="470" 
d="M403 385q0 23 -14.5 35t-38.5 12q-57 0 -94 -44.5t-50 -102.5q26 0 56 3.5t63.5 13.5t55.5 31.5t22 51.5zM368 518q67 0 105.5 -32t38.5 -85q0 -50 -23.5 -87.5t-56.5 -57.5t-79.5 -32.5t-82.5 -16t-75 -3.5q-4 -54 20 -90.5t83 -36.5t129 44l36 -78q-27 -21 -78 -39.5
t-116 -18.5q-98 0 -146 54.5t-48 146.5q0 88 34.5 163t102.5 122t156 47zM230 609l15 86h287l-15 -86h-287z" />
    <glyph glyph-name="Ebreve" unicode="&#x114;" horiz-adv-x="509" 
d="M70 0l117 665h401l-18 -106h-280l-29 -167h240l-19 -105h-240l-31 -181h286l-19 -106h-408zM516 876l70 -30q-59 -126 -188 -126q-71 0 -107 36t-42 88l75 29q17 -77 86 -77q37 0 60.5 18.5t45.5 61.5z" />
    <glyph glyph-name="ebreve" unicode="&#x115;" horiz-adv-x="470" 
d="M403 385q0 23 -14.5 35t-38.5 12q-57 0 -94 -44.5t-50 -102.5q26 0 56 3.5t63.5 13.5t55.5 31.5t22 51.5zM368 518q67 0 105.5 -32t38.5 -85q0 -50 -23.5 -87.5t-56.5 -57.5t-79.5 -32.5t-82.5 -16t-75 -3.5q-4 -54 20 -90.5t83 -36.5t129 44l36 -78q-27 -21 -78 -39.5
t-116 -18.5q-98 0 -146 54.5t-48 146.5q0 88 34.5 163t102.5 122t156 47zM487 724l70 -17q-53 -143 -186 -143q-71 0 -105.5 41t-37.5 102l71 16q7 -44 27 -63.5t56 -19.5q32 0 56.5 19t48.5 65z" />
    <glyph glyph-name="Edotaccent" unicode="&#x116;" horiz-adv-x="509" 
d="M70 0l117 665h401l-18 -106h-280l-29 -167h240l-19 -105h-240l-31 -181h286l-19 -106h-408zM331 783q0 32 23.5 54.5t57.5 22.5q26 0 42.5 -16t16.5 -40q0 -33 -24 -55t-58 -22q-27 0 -42.5 15.5t-15.5 40.5z" />
    <glyph glyph-name="edotaccent" unicode="&#x117;" horiz-adv-x="470" 
d="M403 385q0 23 -14.5 35t-38.5 12q-57 0 -94 -44.5t-50 -102.5q26 0 56 3.5t63.5 13.5t55.5 31.5t22 51.5zM368 518q67 0 105.5 -32t38.5 -85q0 -50 -23.5 -87.5t-56.5 -57.5t-79.5 -32.5t-82.5 -16t-75 -3.5q-4 -54 20 -90.5t83 -36.5t129 44l36 -78q-27 -21 -78 -39.5
t-116 -18.5q-98 0 -146 54.5t-48 146.5q0 88 34.5 163t102.5 122t156 47zM309 636q0 32 24 55t58 23q26 0 42 -16t16 -40q0 -33 -24 -55t-58 -22q-27 0 -42.5 15t-15.5 40z" />
    <glyph glyph-name="Eogonek" unicode="&#x118;" horiz-adv-x="509" 
d="M70 0l117 665h401l-18 -106h-280l-29 -167h240l-19 -105h-240l-31 -181h286l-19 -106q-49 -23 -83 -63t-34 -72q0 -31 33 -31q25 0 52 11l10 -65q-42 -21 -96 -21q-48 0 -70 22t-22 55q0 79 102 164h-300z" />
    <glyph glyph-name="eogonek" unicode="&#x119;" horiz-adv-x="468" 
d="M368 518q68 0 106 -31t38 -86q0 -50 -24 -87.5t-58 -57.5t-81 -32t-81.5 -15.5t-72.5 -4.5q-4 -54 20.5 -91t83.5 -37t129 44l34 -77q-7 -5 -72 -44q-43 -25 -72 -63.5t-29 -70.5q0 -31 33 -31q25 0 52 11l10 -65q-42 -21 -96 -21q-48 0 -70 22t-22 55q0 71 85 149h-12
q-98 0 -146 54.5t-48 146.5q0 88 34.5 163t102.5 122t156 47zM403 385q0 23 -14.5 35t-38.5 12q-57 0 -94 -44.5t-50 -102.5q26 0 56 3.5t63.5 13.5t55.5 31.5t22 51.5z" />
    <glyph glyph-name="Ecaron" unicode="&#x11a;" horiz-adv-x="509" 
d="M70 0l117 665h401l-18 -106h-280l-29 -167h240l-19 -105h-240l-31 -181h286l-19 -106h-408zM298 888l103 -92l136 95l37 -37q-55 -59 -123 -113q-37 -32 -62 -32q-26 0 -51 31q-51 62 -83 114z" />
    <glyph glyph-name="ecaron" unicode="&#x11b;" horiz-adv-x="470" 
d="M403 385q0 23 -14.5 35t-38.5 12q-57 0 -94 -44.5t-50 -102.5q26 0 56 3.5t63.5 13.5t55.5 31.5t22 51.5zM368 518q67 0 105.5 -32t38.5 -85q0 -50 -23.5 -87.5t-56.5 -57.5t-79.5 -32.5t-82.5 -16t-75 -3.5q-4 -54 20 -90.5t83 -36.5t129 44l36 -78q-27 -21 -78 -39.5
t-116 -18.5q-98 0 -146 54.5t-48 146.5q0 88 34.5 163t102.5 122t156 47zM517 764l39 -33q-69 -80 -127 -136q-33 -32 -61 -32q-18 0 -27.5 6.5t-22.5 25.5q-43 62 -80 137l44 32l99 -105z" />
    <glyph glyph-name="Gcircumflex" unicode="&#x11c;" horiz-adv-x="629" 
d="M634 348l-53 -296q-108 -64 -244 -64q-116 0 -179.5 67t-63.5 199q0 90 20.5 163t54.5 121t80.5 80t95.5 45.5t103 13.5q155 0 220 -128l-95 -57q-51 82 -135 82q-96 0 -156.5 -84.5t-60.5 -226.5q0 -176 140 -176q70 0 114 25l27 144h-98l14 92h216zM347 709l-38 35
q76 76 131 120q30 24 53 24q22 0 48 -29q43 -48 86 -115l-41 -34l-104 90z" />
    <glyph glyph-name="gcircumflex" unicode="&#x11d;" horiz-adv-x="536" 
d="M211 -264q-73 0 -112 33t-39 92q0 69 37 109.5t120 75.5q-61 7 -100 50t-39 126q0 138 81 217t211 79q116 0 192 -35l-67 -383q-12 -70 -25 -127q-27 -123 -91 -180t-168 -57zM395 208l38 212q-34 9 -64 9q-80 0 -126.5 -58.5t-46.5 -149.5q0 -111 85 -111q42 0 74 26
t40 72zM170 -120q0 -56 60 -56q56 0 85 44t44 130l12 64q-29 -30 -95 -65q-54 -29 -80 -54t-26 -63zM265 561l-39 33q65 77 126 136q35 32 61 32q18 0 27.5 -6.5t22.5 -25.5q45 -65 79 -138l-41 -31l-100 105z" />
    <glyph glyph-name="Gbreve" unicode="&#x11e;" horiz-adv-x="629" 
d="M634 348l-53 -296q-108 -64 -244 -64q-116 0 -179.5 67t-63.5 199q0 90 20.5 163t54.5 121t80.5 80t95.5 45.5t103 13.5q155 0 220 -128l-95 -57q-51 82 -135 82q-96 0 -156.5 -84.5t-60.5 -226.5q0 -176 140 -176q70 0 114 25l27 144h-98l14 92h216zM585 876l70 -30
q-59 -126 -188 -126q-71 0 -107 36t-42 88l75 29q17 -77 86 -77q37 0 60.5 18.5t45.5 61.5z" />
    <glyph glyph-name="gbreve" unicode="&#x11f;" horiz-adv-x="536" 
d="M211 -264q-73 0 -112 33t-39 92q0 69 37 109.5t120 75.5q-61 7 -100 50t-39 126q0 138 81 217t211 79q116 0 192 -35l-67 -383q-12 -70 -25 -127q-27 -123 -91 -180t-168 -57zM395 208l38 212q-34 9 -64 9q-80 0 -126.5 -58.5t-46.5 -149.5q0 -111 85 -111q42 0 74 26
t40 72zM170 -120q0 -56 60 -56q56 0 85 44t44 130l12 64q-29 -30 -95 -65q-54 -29 -80 -54t-26 -63zM505 724l70 -17q-53 -143 -186 -143q-71 0 -105.5 41t-37.5 102l71 16q7 -44 27 -63.5t56 -19.5q32 0 56.5 19t48.5 65z" />
    <glyph glyph-name="Gdotaccent" unicode="&#x120;" horiz-adv-x="629" 
d="M634 348l-53 -296q-108 -64 -244 -64q-116 0 -179.5 67t-63.5 199q0 90 20.5 163t54.5 121t80.5 80t95.5 45.5t103 13.5q155 0 220 -128l-95 -57q-51 82 -135 82q-96 0 -156.5 -84.5t-60.5 -226.5q0 -176 140 -176q70 0 114 25l27 144h-98l14 92h216zM400 783
q0 32 23.5 54.5t57.5 22.5q26 0 42.5 -16t16.5 -40q0 -33 -24 -55t-58 -22q-27 0 -42.5 15.5t-15.5 40.5z" />
    <glyph glyph-name="gdotaccent" unicode="&#x121;" horiz-adv-x="536" 
d="M211 -264q-73 0 -112 33t-39 92q0 69 37 109.5t120 75.5q-61 7 -100 50t-39 126q0 138 81 217t211 79q116 0 192 -35l-67 -383q-12 -70 -25 -127q-27 -123 -91 -180t-168 -57zM395 208l38 212q-34 9 -64 9q-80 0 -126.5 -58.5t-46.5 -149.5q0 -111 85 -111q42 0 74 26
t40 72zM170 -120q0 -56 60 -56q56 0 85 44t44 130l12 64q-29 -30 -95 -65q-54 -29 -80 -54t-26 -63zM327 636q0 32 24 55t58 23q26 0 42 -16t16 -40q0 -33 -24 -55t-58 -22q-27 0 -42.5 15t-15.5 40z" />
    <glyph glyph-name="Gcommaaccent" unicode="&#x122;" horiz-adv-x="629" 
d="M634 348l-53 -296q-108 -64 -244 -64q-116 0 -179.5 67t-63.5 199q0 90 20.5 163t54.5 121t80.5 80t95.5 45.5t103 13.5q155 0 220 -128l-95 -57q-51 82 -135 82q-96 0 -156.5 -84.5t-60.5 -226.5q0 -176 140 -176q70 0 114 25l27 144h-98l14 92h216zM287 -61l-94 -199
l40 -21q96 113 107 128q25 35 25 53q0 37 -78 39z" />
    <glyph glyph-name="gcommaaccent" unicode="&#x123;" horiz-adv-x="536" 
d="M211 -264q-73 0 -112 33t-39 92q0 69 37 109.5t120 75.5q-61 7 -100 50t-39 126q0 138 81 217t211 79q116 0 192 -35l-67 -383q-12 -70 -25 -127q-27 -123 -91 -180t-168 -57zM395 208l38 212q-34 9 -64 9q-80 0 -126.5 -58.5t-46.5 -149.5q0 -111 85 -111q42 0 74 26
t40 72zM170 -120q0 -56 60 -56q56 0 85 44t44 130l12 64q-29 -30 -95 -65q-54 -29 -80 -54t-26 -63zM492 763l-95 -200q-78 5 -78 40q0 18 25 53q16 22 107 129z" />
    <glyph glyph-name="Hcircumflex" unicode="&#x124;" horiz-adv-x="668" 
d="M592 665h123l-117 -665h-123l51 287h-283l-51 -287h-122l117 665h122l-47 -272h283zM340 709l-38 35q76 76 131 120q30 24 53 24q22 0 48 -29q43 -48 86 -115l-41 -34l-104 90z" />
    <glyph glyph-name="hcircumflex" unicode="&#x125;" horiz-adv-x="537" 
d="M180 0h-119l123 695h119l-42 -235q58 58 145 58q134 0 134 -122q0 -28 -6 -63l-59 -333h-119l57 321q4 30 4 44q0 30 -12.5 45.5t-44.5 15.5q-45 0 -80.5 -29.5t-42.5 -69.5zM126 715l-38 35q76 76 131 120q30 24 53 24q22 0 48 -29q43 -48 86 -115l-41 -34l-104 90z" />
    <glyph glyph-name="Hbar" unicode="&#x126;" horiz-adv-x="683" 
d="M599 665h123l-18 -100h62l-13 -78h-62l-86 -487h-123l51 287h-283l-51 -287h-122l86 487h-63l13 78h63l18 100h122l-18 -100h283zM269 393h283l16 94h-283z" />
    <glyph glyph-name="hbar" unicode="&#x127;" horiz-adv-x="537" 
d="M180 0h-119l98 556h-57l14 78h57l11 61h119l-11 -61h159l-14 -78h-160l-20 -114q58 58 145 58q134 0 134 -122q0 -28 -6 -63l-55 -315h-119l53 303q4 30 4 44q0 30 -12.5 45.5t-44.5 15.5q-45 0 -80.5 -29.5t-42.5 -69.5z" />
    <glyph glyph-name="Itilde" unicode="&#x128;" horiz-adv-x="266" 
d="M194 0h-122l117 665h122zM128 733l4 74q44 29 88 29q27 0 68 -13t63 -13q32 0 65 18l-5 -79q-38 -18 -71 -18q-22 0 -68 11t-66 11q-38 0 -78 -20z" />
    <glyph glyph-name="itilde" unicode="&#x129;" horiz-adv-x="244" 
d="M185 0h-120l89 503h120zM99 603l4 74q41 29 88 29q27 0 68 -13t63 -13q27 0 65 18l-5 -78q-38 -19 -72 -19q-23 0 -68.5 11.5t-64.5 11.5q-36 0 -78 -21z" />
    <glyph glyph-name="Imacron" unicode="&#x12a;" horiz-adv-x="266" 
d="M194 0h-122l117 665h122zM120 734l16 87h287l-16 -87h-287z" />
    <glyph glyph-name="imacron" unicode="&#x12b;" horiz-adv-x="244" 
d="M185 0h-120l89 503h120zM91 609l15 86h287l-15 -86h-287z" />
    <glyph glyph-name="Ibreve" unicode="&#x12c;" horiz-adv-x="266" 
d="M194 0h-122l117 665h122zM382 876l70 -30q-59 -126 -188 -126q-71 0 -107 36t-42 88l75 29q17 -77 86 -77q37 0 60.5 18.5t45.5 61.5z" />
    <glyph glyph-name="ibreve" unicode="&#x12d;" horiz-adv-x="244" 
d="M185 0h-120l89 503h120zM348 724l70 -17q-53 -143 -186 -143q-71 0 -105.5 41t-37.5 102l71 16q7 -44 27 -63.5t56 -19.5q32 0 56.5 19t48.5 65z" />
    <glyph glyph-name="Iogonek" unicode="&#x12e;" horiz-adv-x="266" 
d="M194 0q-37 -25 -67.5 -65t-30.5 -70q0 -31 33 -31q25 0 52 11l10 -65q-42 -21 -96 -21q-48 0 -70 22t-22 55q0 79 102 164h-33l117 665h122z" />
    <glyph glyph-name="iogonek" unicode="&#x12f;" horiz-adv-x="244" 
d="M185 0q-40 -24 -71 -64t-31 -71t33 -31q25 0 52 11l10 -65q-42 -21 -96 -21q-48 0 -70 22t-22 55q0 79 102 164h-27l89 503h120zM169 636q0 32 23.5 55t57.5 23q26 0 42.5 -16t16.5 -40q0 -33 -24 -55t-58 -22q-27 0 -42.5 15t-15.5 40z" />
    <glyph glyph-name="Idotaccent" unicode="&#x130;" horiz-adv-x="266" 
d="M194 0h-122l117 665h122zM195 783q0 32 23.5 54.5t57.5 22.5q26 0 42.5 -16t16.5 -40q0 -33 -24 -55t-58 -22q-27 0 -42.5 15.5t-15.5 40.5z" />
    <glyph glyph-name="dotlessi" unicode="&#x131;" horiz-adv-x="244" 
d="M185 0h-120l89 503h120z" />
    <glyph glyph-name="IJ" unicode="&#x132;" horiz-adv-x="695" 
d="M194 0h-122l117 665h122zM282 42l52 88q51 -39 108 -39q80 0 96 90l85 484h122l-75 -426q-7 -46 -23 -105q-21 -78 -66.5 -112t-130.5 -34q-102 0 -168 54z" />
    <glyph glyph-name="ij" unicode="&#x133;" horiz-adv-x="488" 
d="M185 0h-120l89 503h120zM169 636q0 32 23.5 55t57.5 23q26 0 42.5 -16t16.5 -40q0 -33 -24 -55t-58 -22q-27 0 -42.5 15t-15.5 40zM303 -39l95 542h119l-95 -537q-7 -37 -12 -58.5t-18 -50t-30.5 -43.5t-47.5 -26t-71 -11q-33 0 -71.5 9.5t-60.5 25.5l45 83
q38 -21 71 -21t49.5 19t26.5 68zM415 636q0 32 24 55t58 23q26 0 42 -16t16 -40q0 -33 -24 -55t-58 -22q-27 0 -42.5 15t-15.5 40z" />
    <glyph glyph-name="Jcircumflex" unicode="&#x134;" horiz-adv-x="429" 
d="M16 42l52 88q51 -39 108 -39q80 0 96 90l85 484h122l-75 -426q-7 -46 -23 -105q-21 -78 -66.5 -112t-130.5 -34q-102 0 -168 54zM303 710l-38 35q76 76 131 120q30 24 53 24q22 0 48 -29q43 -48 86 -115l-41 -34l-104 90z" />
    <glyph glyph-name="jcircumflex" unicode="&#x135;" horiz-adv-x="244" 
d="M59 -39l95 542h119l-95 -537q-6 -36 -11.5 -57.5t-18.5 -50t-30.5 -43.5t-48 -26.5t-71.5 -11.5q-33 0 -71 9.5t-60 25.5l46 83q36 -21 70 -21q30 0 48.5 19.5t27.5 67.5zM109 561l-39 33q65 77 126 136q35 32 61 32q18 0 27.5 -6.5t22.5 -25.5q45 -65 79 -138l-41 -31
l-100 105z" />
    <glyph glyph-name="Kcommaaccent" unicode="&#x136;" horiz-adv-x="580" 
d="M676 665l-237 -270l137 -395h-134l-100 298l-122 -131l-29 -167h-121l117 665h121l-59 -324h3l289 324h135zM288 -61l-94 -199l40 -21q96 113 107 128q25 35 25 53q0 37 -78 39z" />
    <glyph glyph-name="kcommaaccent" unicode="&#x137;" horiz-adv-x="516" 
d="M551 398q0 -132 -136 -196l79 -202h-133l-62 169q-39 -10 -89 -13l-28 -156h-119l123 695h119l-56 -285l4 -1q30 50 76.5 79.5t103.5 29.5q52 0 85 -30t33 -90zM431 378q0 46 -45 46q-46 0 -94.5 -58t-64.5 -122q93 7 148.5 46t55.5 88zM235 -61l-94 -199l40 -21
q96 113 107 128q25 35 25 53q0 37 -78 39z" />
    <glyph glyph-name="kgreenlandic" unicode="&#x138;" horiz-adv-x="511" 
d="M551 398q0 -132 -136 -196l79 -202h-133l-62 169q-41 -6 -88 -6l-29 -163h-119l86 492h115l-15 -82l4 -1q30 50 76.5 79.5t103.5 29.5q52 0 85 -30t33 -90zM431 378q0 23 -12.5 36t-34.5 13q-46 0 -93.5 -56t-62.5 -120q90 2 146.5 40t56.5 87z" />
    <glyph glyph-name="Lacute" unicode="&#x139;" horiz-adv-x="500" 
d="M71 0l117 665h122l-98 -559h282l-19 -106h-404zM170 748l181 148q49 -31 49 -61q0 -29 -50 -56q-17 -9 -152 -70z" />
    <glyph glyph-name="lacute" unicode="&#x13a;" horiz-adv-x="323" 
d="M186 694h119l-93 -529q-6 -36 -6 -46q1 -23 11 -32t33 -9t66 17l15 -80q-49 -30 -126 -30q-65 0 -92.5 29t-27.5 83q0 24 7 66zM169 759l181 148q49 -31 49 -61q0 -29 -50 -56q-17 -9 -152 -70z" />
    <glyph glyph-name="Lcommaaccent" unicode="&#x13b;" horiz-adv-x="500" 
d="M71 0l117 665h122l-98 -559h282l-19 -106h-404zM232 -61l-94 -199l40 -21q96 113 107 128q25 35 25 53q0 37 -78 39z" />
    <glyph glyph-name="lcommaaccent" unicode="&#x13c;" horiz-adv-x="323" 
d="M186 694h119l-93 -529q-6 -36 -6 -46q1 -23 11 -32t33 -9t66 17l15 -80q-49 -30 -126 -30q-65 0 -92.5 29t-27.5 83q0 24 7 66zM139 -61l-94 -199l40 -21q96 113 107 128q25 35 25 53q0 37 -78 39z" />
    <glyph glyph-name="Lcaron" unicode="&#x13d;" horiz-adv-x="500" 
d="M71 0l117 665h122l-98 -559h282l-19 -106h-404zM440 657l-37 -209l47 -10q83 156 83 193q0 33 -41 33q-24 0 -52 -7z" />
    <glyph glyph-name="lcaron" unicode="&#x13e;" horiz-adv-x="331" 
d="M186 694h119l-93 -529q-6 -36 -6 -46q1 -23 11 -32t33 -9t66 17l15 -80q-49 -30 -126 -30q-65 0 -92.5 29t-27.5 83q0 24 7 66zM343 480l37 209q28 7 52 7q41 0 41 -33q0 -37 -83 -193z" />
    <glyph glyph-name="Ldot" unicode="&#x13f;" horiz-adv-x="500" 
d="M71 0l117 665h122l-98 -559h282l-19 -106h-404zM365 345q0 32 23.5 54.5t57.5 22.5q26 0 42.5 -16t16.5 -40q0 -33 -24 -55t-58 -22q-27 0 -42.5 15.5t-15.5 40.5z" />
    <glyph glyph-name="ldot" unicode="&#x140;" horiz-adv-x="381" 
d="M186 694h119l-93 -529q-6 -36 -6 -46q1 -23 11 -32t33 -9t66 17l15 -80q-49 -30 -126 -30q-65 0 -92.5 29t-27.5 83q0 24 7 66zM303 341q0 32 23.5 54.5t57.5 22.5q26 0 42.5 -16t16.5 -40q0 -33 -24 -55t-58 -22q-27 0 -42.5 15.5t-15.5 40.5z" />
    <glyph glyph-name="Lslash" unicode="&#x141;" horiz-adv-x="498" 
d="M51 227l-31 75l114 52l54 311h122l-46 -264l170 79l29 -76l-216 -99l-35 -199h282l-19 -106h-404l46 259z" />
    <glyph glyph-name="lslash" unicode="&#x142;" horiz-adv-x="373" 
d="M231 694h119l-47 -266l99 62l36 -67l-151 -90l-30 -168q-8 -48 0.5 -67t38.5 -19q23 0 66 16l11 -80q-49 -30 -124 -30q-38 0 -64 10.5t-38 26t-15.5 40.5t-2 47t7.5 54l21 117l-72 -45l-33 68l122 72z" />
    <glyph glyph-name="Nacute" unicode="&#x143;" horiz-adv-x="666" 
d="M592 665h121l-117 -665h-117l-204 469h-2l-82 -469h-121l117 665h123l200 -462h1zM372 748l181 148q49 -31 49 -61q0 -29 -50 -56q-17 -9 -152 -70z" />
    <glyph glyph-name="nacute" unicode="&#x144;" horiz-adv-x="541" 
d="M183 0h-118l73 416l7 87h100l-1 -63q69 78 167 78q132 0 133 -123q0 -27 -5 -57l-60 -338h-119l56 318q4 21 4 45q0 63 -56 63q-46 0 -81.5 -30t-42.5 -70zM300 596l145 184q67 -17 67 -53q0 -21 -37 -55q-47 -42 -141 -107z" />
    <glyph glyph-name="Ncommaaccent" unicode="&#x145;" horiz-adv-x="666" 
d="M592 665h121l-117 -665h-117l-204 469h-2l-82 -469h-121l117 665h123l200 -462h1zM304 -61l-94 -199l40 -21q96 113 107 128q25 35 25 53q0 37 -78 39z" />
    <glyph glyph-name="ncommaaccent" unicode="&#x146;" horiz-adv-x="541" 
d="M183 0h-118l73 416l7 87h100l-1 -63q69 78 167 78q132 0 133 -123q0 -27 -5 -57l-60 -338h-119l56 318q4 21 4 45q0 63 -56 63q-46 0 -81.5 -30t-42.5 -70zM233 -61l-94 -199l40 -21q96 113 107 128q25 35 25 53q0 37 -78 39z" />
    <glyph glyph-name="Ncaron" unicode="&#x147;" horiz-adv-x="666" 
d="M592 665h121l-117 -665h-117l-204 469h-2l-82 -469h-121l117 665h123l200 -462h1zM364 888l103 -92l136 95l37 -37q-55 -59 -123 -113q-37 -32 -62 -32q-26 0 -51 31q-51 62 -83 114z" />
    <glyph glyph-name="ncaron" unicode="&#x148;" horiz-adv-x="541" 
d="M183 0h-118l73 416l7 87h100l-1 -63q69 78 167 78q132 0 133 -123q0 -27 -5 -57l-60 -338h-119l56 318q4 21 4 45q0 63 -56 63q-46 0 -81.5 -30t-42.5 -70zM519 764l39 -33q-69 -80 -127 -136q-33 -32 -61 -32q-18 0 -27.5 6.5t-22.5 25.5q-43 62 -80 137l44 32l99 -105z
" />
    <glyph glyph-name="napostrophe" unicode="&#x149;" horiz-adv-x="575" 
d="M217 0h-118l73 416l7 87h100l-1 -63q69 78 167 78q132 0 133 -123q0 -27 -5 -57l-60 -338h-119l56 318q4 21 4 45q0 63 -56 63q-46 0 -81.5 -30t-42.5 -70zM71 479l71 208q27 3 29 3q49 0 49 -34q0 -36 -110 -190z" />
    <glyph glyph-name="Eng" unicode="&#x14a;" horiz-adv-x="667" 
d="M592 665h122l-124 -702q-15 -85 -58 -132.5t-139 -47.5q-44 0 -84.5 15t-63.5 35l52 82q39 -34 87 -34q39 0 59.5 22.5t28.5 66.5l6 35l-202 464h-2l-83 -469h-121l117 665h124l199 -462h1z" />
    <glyph glyph-name="eng" unicode="&#x14b;" horiz-adv-x="539" 
d="M183 0h-118l73 416l7 87h100l-1 -63q69 78 168 78q76 0 109.5 -44t18.5 -131l-67 -381q-6 -34 -12 -56.5t-19 -49.5t-31 -42.5t-48.5 -26t-71.5 -10.5q-81 0 -129 34l47 84q36 -21 72 -21q30 0 46.5 18.5t25.5 66.5l63 358q5 31 4.5 55t-15.5 38.5t-46 14.5
q-41 0 -76 -30t-42 -69z" />
    <glyph glyph-name="Omacron" unicode="&#x14c;" horiz-adv-x="663" 
d="M678 323q-26 -171 -118.5 -253t-230.5 -82q-112 0 -174 66t-62 186q0 62 9 110q13 76 41.5 134.5t63 94t78.5 58.5t84.5 31.5t83.5 8.5q104 0 168.5 -65t64.5 -188q0 -50 -8 -101zM229 343q-9 -52 -9 -91q0 -163 131 -163q84 0 133 66.5t67 168.5q7 44 7 81
q0 73 -28.5 121t-94.5 48q-84 0 -136.5 -66t-69.5 -165zM321 734l16 87h287l-16 -87h-287z" />
    <glyph glyph-name="omacron" unicode="&#x14d;" horiz-adv-x="526" 
d="M273 73q-79 0 -79 106q0 47 7 88q13 75 48.5 119t88.5 44q78 0 78 -105q0 -44 -6 -80q-14 -80 -49 -126t-88 -46zM78 261q-6 -36 -6 -82q0 -94 47.5 -144t135.5 -50q108 0 183.5 64t96.5 202q5 35 5 79q0 56 -18.5 96t-48.5 58.5t-58 26t-58 7.5q-34 0 -66.5 -6.5
t-67.5 -24.5t-63 -46t-50 -74t-32 -106zM230 609l15 86h287l-15 -86h-287z" />
    <glyph glyph-name="Obreve" unicode="&#x14e;" horiz-adv-x="663" 
d="M678 323q-26 -171 -118.5 -253t-230.5 -82q-112 0 -174 66t-62 186q0 62 9 110q13 76 41.5 134.5t63 94t78.5 58.5t84.5 31.5t83.5 8.5q104 0 168.5 -65t64.5 -188q0 -50 -8 -101zM229 343q-9 -52 -9 -91q0 -163 131 -163q84 0 133 66.5t67 168.5q7 44 7 81
q0 73 -28.5 121t-94.5 48q-84 0 -136.5 -66t-69.5 -165zM582 876l70 -30q-59 -126 -188 -126q-71 0 -107 36t-42 88l75 29q17 -77 86 -77q37 0 60.5 18.5t45.5 61.5z" />
    <glyph glyph-name="obreve" unicode="&#x14f;" horiz-adv-x="526" 
d="M273 73q-79 0 -79 106q0 47 7 88q13 75 48.5 119t88.5 44q78 0 78 -105q0 -44 -6 -80q-14 -80 -49 -126t-88 -46zM78 261q-6 -36 -6 -82q0 -94 47.5 -144t135.5 -50q108 0 183.5 64t96.5 202q5 35 5 79q0 56 -18.5 96t-48.5 58.5t-58 26t-58 7.5q-34 0 -66.5 -6.5
t-67.5 -24.5t-63 -46t-50 -74t-32 -106zM487 724l70 -17q-53 -143 -186 -143q-71 0 -105.5 41t-37.5 102l71 16q7 -44 27 -63.5t56 -19.5q32 0 56.5 19t48.5 65z" />
    <glyph glyph-name="Ohungarumlaut" unicode="&#x150;" horiz-adv-x="663" 
d="M678 323q-26 -171 -118.5 -253t-230.5 -82q-112 0 -174 66t-62 186q0 62 9 110q13 76 41.5 134.5t63 94t78.5 58.5t84.5 31.5t83.5 8.5q104 0 168.5 -65t64.5 -188q0 -50 -8 -101zM229 343q-9 -52 -9 -91q0 -163 131 -163q84 0 133 66.5t67 168.5q7 44 7 81
q0 73 -28.5 121t-94.5 48q-84 0 -136.5 -66t-69.5 -165zM334 749l176 145q43 -33 43 -59q0 -28 -50 -55q-42 -25 -147 -70zM523 749l175 144q44 -31 44 -58q0 -29 -50 -55q-85 -46 -147 -70z" />
    <glyph glyph-name="ohungarumlaut" unicode="&#x151;" horiz-adv-x="526" 
d="M273 73q53 0 88 46t49 126q6 36 6 80q0 105 -78 105q-53 0 -88.5 -44t-48.5 -119q-7 -41 -7 -88q0 -106 79 -106zM78 261q10 60 32 106t50 74t63 46t67.5 24.5t66.5 6.5q30 0 58 -7.5t58 -26t48.5 -58.5t18.5 -96q0 -44 -5 -79q-21 -138 -96.5 -202t-183.5 -64
q-88 0 -135.5 50t-47.5 144q0 46 6 82zM235 596l135 180q66 -19 66 -52q0 -22 -37 -56q-33 -29 -130 -103zM411 596l136 180q65 -17 65 -53q0 -22 -37 -55q-33 -29 -130 -103z" />
    <glyph glyph-name="OE" unicode="&#x152;" horiz-adv-x="877" 
d="M458 677q61 0 112 -12h386l-18 -106h-279l-29 -167h239l-19 -105h-239l-32 -181h286l-19 -106h-397q-61 -14 -114 -14q-115 0 -178 70.5t-63 198.5q0 114 31.5 198.5t85 131.5t115.5 69.5t132 22.5zM221 266q0 -178 146 -178q53 0 89 15l80 454q-36 17 -88 17
q-47 0 -85.5 -18.5t-64.5 -49t-43.5 -71t-25.5 -83t-8 -86.5z" />
    <glyph glyph-name="oe" unicode="&#x153;" horiz-adv-x="790" 
d="M693 518q68 0 106 -31t38 -86q0 -50 -24 -87.5t-58 -57.5t-81 -32t-81.5 -15.5t-72.5 -4.5q-4 -54 20.5 -91t83.5 -37t129 44l34 -77q-27 -20 -78.5 -39t-114.5 -19q-111 0 -153 73q-69 -73 -186 -73q-88 0 -135.5 50t-47.5 144q0 46 6 82q10 60 32 106t50 74t63 46
t67.5 24.5t66.5 6.5q105 0 147 -79q74 79 189 79zM273 73q53 0 88 46t49 126q6 36 6 80q0 105 -78 105q-53 0 -88.5 -44t-48.5 -119q-7 -41 -7 -88q0 -106 79 -106zM728 385q0 23 -14.5 35t-38.5 12q-57 0 -94.5 -45t-50.5 -106q26 0 56 4.5t64 14.5t56 32.5t22 52.5z" />
    <glyph glyph-name="Racute" unicode="&#x154;" horiz-adv-x="595" 
d="M239 265l-47 -265h-122l117 665h223q212 0 212 -156q0 -84 -44 -134t-109 -70q19 -8 28.5 -22.5t18.5 -44.5l67 -238h-131l-56 213q-8 27 -20.5 39.5t-37.5 12.5h-99zM254 354h100q64 0 102.5 36.5t38.5 100.5q0 46 -31.5 61.5t-100.5 15.5h-71zM325 748l181 148
q49 -31 49 -61q0 -29 -50 -56q-17 -9 -152 -70z" />
    <glyph glyph-name="racute" unicode="&#x155;" horiz-adv-x="366" 
d="M240 317l-56 -317h-119l75 423l5 80h98l-1 -72q22 42 58 64.5t76 22.5q49 0 79 -20l-38 -97q-29 16 -66 16q-40 0 -70.5 -28t-40.5 -72zM252 596l145 184q67 -17 67 -53q0 -21 -37 -55q-47 -42 -141 -107z" />
    <glyph glyph-name="Rcommaaccent" unicode="&#x156;" horiz-adv-x="595" 
d="M239 265l-47 -265h-122l117 665h223q212 0 212 -156q0 -84 -44 -134t-109 -70q19 -8 28.5 -22.5t18.5 -44.5l67 -238h-131l-56 213q-8 27 -20.5 39.5t-37.5 12.5h-99zM254 354h100q64 0 102.5 36.5t38.5 100.5q0 46 -31.5 61.5t-100.5 15.5h-71zM251 -61l-94 -199l40 -21
q96 113 107 128q25 35 25 53q0 37 -78 39z" />
    <glyph glyph-name="rcommaaccent" unicode="&#x157;" horiz-adv-x="366" 
d="M240 317l-56 -317h-119l75 423l5 80h98l-1 -72q22 42 58 64.5t76 22.5q49 0 79 -20l-38 -97q-29 16 -66 16q-40 0 -70.5 -28t-40.5 -72zM91 -61l-94 -199l40 -21q96 113 107 128q25 35 25 53q0 37 -78 39z" />
    <glyph glyph-name="Rcaron" unicode="&#x158;" horiz-adv-x="595" 
d="M239 265l-47 -265h-122l117 665h223q212 0 212 -156q0 -84 -44 -134t-109 -70q19 -8 28.5 -22.5t18.5 -44.5l67 -238h-131l-56 213q-8 27 -20.5 39.5t-37.5 12.5h-99zM254 354h100q64 0 102.5 36.5t38.5 100.5q0 46 -31.5 61.5t-100.5 15.5h-71zM300 888l103 -92l136 95
l37 -37q-55 -59 -123 -113q-37 -32 -62 -32q-26 0 -51 31q-51 62 -83 114z" />
    <glyph glyph-name="rcaron" unicode="&#x159;" horiz-adv-x="366" 
d="M240 317l-56 -317h-119l75 423l5 80h98l-1 -72q22 42 58 64.5t76 22.5q49 0 79 -20l-38 -97q-29 16 -66 16q-40 0 -70.5 -28t-40.5 -72zM448 764l39 -33q-69 -80 -127 -136q-33 -32 -61 -32q-18 0 -27.5 6.5t-22.5 25.5q-43 62 -80 137l44 32l99 -105z" />
    <glyph glyph-name="Sacute" unicode="&#x15a;" horiz-adv-x="537" 
d="M45 60l59 95q32 -23 81 -43t95 -20q52 0 88 22t36 75q0 13 -3.5 23.5t-11.5 19.5t-15 15.5t-22 14t-23 11l-27 11.5l-26 11q-33 14 -54 25.5t-45.5 32t-36.5 49.5t-12 67q0 98 67 153t180 55q70 0 130 -28.5t95 -68.5l-77 -78q-75 72 -156 72q-111 0 -111 -84
q0 -18 8 -33t16 -24t30 -21t31 -16l38 -17q35 -15 56 -26.5t47 -32.5t39 -50t13 -66q0 -99 -69.5 -158t-188.5 -59q-73 0 -137 23.5t-94 49.5zM303 748l181 148q49 -31 49 -61q0 -29 -50 -56q-17 -9 -152 -70z" />
    <glyph glyph-name="sacute" unicode="&#x15b;" horiz-adv-x="419" 
d="M31 39l48 82q72 -48 137 -48q39 0 63 16.5t24 48.5q0 20 -14 35t-29 22.5t-42 17.5q-30 11 -45.5 19t-37.5 24t-32.5 40t-10.5 57q0 79 57 122t143 43q55 0 103.5 -21.5t75.5 -53.5l-65 -64q-54 52 -114 52q-36 0 -58.5 -15t-22.5 -46q0 -9 2 -17t9 -15l11.5 -11.5
t16.5 -10.5t17.5 -8.5t22 -9l21.5 -8.5q51 -20 81.5 -51t30.5 -84q0 -82 -56 -126t-153 -44q-59 0 -109.5 17.5t-73.5 36.5zM249 596l145 184q67 -17 67 -53q0 -21 -37 -55q-47 -42 -141 -107z" />
    <glyph glyph-name="Scircumflex" unicode="&#x15c;" horiz-adv-x="537" 
d="M45 60l59 95q32 -23 81 -43t95 -20q52 0 88 22t36 75q0 13 -3.5 23.5t-11.5 19.5t-15 15.5t-22 14t-23 11l-27 11.5l-26 11q-33 14 -54 25.5t-45.5 32t-36.5 49.5t-12 67q0 98 67 153t180 55q70 0 130 -28.5t95 -68.5l-77 -78q-75 72 -156 72q-111 0 -111 -84
q0 -18 8 -33t16 -24t30 -21t31 -16l38 -17q35 -15 56 -26.5t47 -32.5t39 -50t13 -66q0 -99 -69.5 -158t-188.5 -59q-73 0 -137 23.5t-94 49.5zM289 709l-38 35q76 76 131 120q30 24 53 24q22 0 48 -29q43 -48 86 -115l-41 -34l-104 90z" />
    <glyph glyph-name="scircumflex" unicode="&#x15d;" horiz-adv-x="419" 
d="M31 39l48 82q72 -48 137 -48q39 0 63 16.5t24 48.5q0 20 -14 35t-29 22.5t-42 17.5q-30 11 -45.5 19t-37.5 24t-32.5 40t-10.5 57q0 79 57 122t143 43q55 0 103.5 -21.5t75.5 -53.5l-65 -64q-54 52 -114 52q-36 0 -58.5 -15t-22.5 -46q0 -9 2 -17t9 -15l11.5 -11.5
t16.5 -10.5t17.5 -8.5t22 -9l21.5 -8.5q51 -20 81.5 -51t30.5 -84q0 -82 -56 -126t-153 -44q-59 0 -109.5 17.5t-73.5 36.5zM204 561l-39 33q65 77 126 136q35 32 61 32q18 0 27.5 -6.5t22.5 -25.5q45 -65 79 -138l-41 -31l-100 105z" />
    <glyph glyph-name="Scedilla" unicode="&#x15e;" horiz-adv-x="540" 
d="M45 60l59 96q32 -23 81 -43t95 -20q52 0 88 21.5t36 74.5q0 13 -3.5 23.5t-11.5 19.5t-15 15.5t-22 14t-23 11l-27 11.5l-26 11q-34 14 -55 25.5t-45.5 31.5t-37 48.5t-12.5 65.5q0 100 68 155.5t181 55.5q70 0 130 -28.5t95 -68.5l-77 -78q-74 71 -153 71
q-47 0 -80.5 -19t-33.5 -64q0 -27 18.5 -48t38.5 -31.5t58 -26.5q8 -3 12 -5q34 -15 55.5 -26.5t47 -32.5t38 -50t12.5 -66q0 -94 -62.5 -151.5t-170.5 -64.5l-25 -54q36 -2 58 -22t22 -53q0 -53 -38 -76.5t-91 -23.5q-59 0 -94 19l25 54q30 -14 65 -14q56 0 56 37t-84 35
l48 98q-65 5 -120 27t-80 45z" />
    <glyph glyph-name="scedilla" unicode="&#x15f;" horiz-adv-x="419" 
d="M31 39l48 82q72 -48 137 -48q39 0 63 16.5t24 48.5q0 20 -14 35t-29 22.5t-42 17.5q-30 11 -45.5 19t-37.5 24t-32.5 40t-10.5 57q0 79 57 122t143 43q55 0 103.5 -21.5t75.5 -53.5l-65 -64q-54 52 -114 52q-36 0 -58.5 -15t-22.5 -46q0 -9 2 -17t9 -15l11.5 -11.5
t16.5 -10.5t17.5 -8.5t22 -9l21.5 -8.5q51 -20 81.5 -51t30.5 -84q0 -76 -48 -119.5t-133 -49.5l-24 -52q36 -2 58 -22t22 -53q0 -53 -38 -76.5t-91 -23.5q-59 0 -94 19l25 54q30 -14 65 -14q56 0 56 37t-84 35l47 97q-50 4 -92 20t-61 32z" />
    <glyph glyph-name="Scaron" unicode="&#x160;" horiz-adv-x="537" 
d="M45 60l59 95q32 -23 81 -43t95 -20q52 0 88 22t36 75q0 13 -3.5 23.5t-11.5 19.5t-15 15.5t-22 14t-23 11l-27 11.5l-26 11q-33 14 -54 25.5t-45.5 32t-36.5 49.5t-12 67q0 98 67 153t180 55q70 0 130 -28.5t95 -68.5l-77 -78q-75 72 -156 72q-111 0 -111 -84
q0 -18 8 -33t16 -24t30 -21t31 -16l38 -17q35 -15 56 -26.5t47 -32.5t39 -50t13 -66q0 -99 -69.5 -158t-188.5 -59q-73 0 -137 23.5t-94 49.5zM310 888l103 -92l136 95l37 -37q-55 -59 -123 -113q-37 -32 -62 -32q-26 0 -51 31q-51 62 -83 114z" />
    <glyph glyph-name="scaron" unicode="&#x161;" horiz-adv-x="419" 
d="M31 39l48 82q72 -48 137 -48q39 0 63 16.5t24 48.5q0 20 -14 35t-29 22.5t-42 17.5q-30 11 -45.5 19t-37.5 24t-32.5 40t-10.5 57q0 79 57 122t143 43q55 0 103.5 -21.5t75.5 -53.5l-65 -64q-54 52 -114 52q-36 0 -58.5 -15t-22.5 -46q0 -9 2 -17t9 -15l11.5 -11.5
t16.5 -10.5t17.5 -8.5t22 -9l21.5 -8.5q51 -20 81.5 -51t30.5 -84q0 -82 -56 -126t-153 -44q-59 0 -109.5 17.5t-73.5 36.5zM471 764l39 -33q-69 -80 -127 -136q-33 -32 -61 -32q-18 0 -27.5 6.5t-22.5 25.5q-43 62 -80 137l44 32l99 -105z" />
    <glyph glyph-name="uni0162" unicode="&#x162;" horiz-adv-x="538" 
d="M134 665h504l-18 -106h-194l-98 -559h-42l-30 -66q36 -2 58 -22t22 -53q0 -53 -38 -76.5t-91 -23.5q-59 0 -94 19l25 54q30 -14 65 -14q56 0 56 37t-84 35l54 110h-23l99 559h-189z" />
    <glyph glyph-name="uni0163" unicode="&#x163;" horiz-adv-x="350" 
d="M187 695h119l-34 -192h135l-16 -93h-135l-45 -254q-3 -17 -3 -34q1 -28 12.5 -37t38.5 -9q35 0 75 22l24 -77q-48 -31 -129 -36l-23 -51q36 -2 58 -22t22 -53q0 -53 -38 -76.5t-91 -23.5q-59 0 -94 19l25 54q30 -14 65 -14q56 0 56 37t-84 35l48 99q-86 14 -88 100
q0 24 7 68z" />
    <glyph glyph-name="Tcaron" unicode="&#x164;" horiz-adv-x="538" 
d="M134 665h504l-18 -106h-194l-98 -559h-122l99 559h-189zM302 888l103 -92l136 95l37 -37q-55 -59 -123 -113q-37 -32 -62 -32q-26 0 -51 31q-51 62 -83 114z" />
    <glyph glyph-name="tcaron" unicode="&#x165;" horiz-adv-x="350" 
d="M187 695h119l-34 -192h135l-16 -93h-135l-45 -254q-3 -17 -3 -34q1 -28 12.5 -37t38.5 -9q35 0 75 22l24 -77q-24 -16 -64.5 -26t-76.5 -10q-130 0 -132 104q0 24 7 68zM354 578l37 209q28 7 52 7q41 0 41 -33q0 -37 -83 -193z" />
    <glyph glyph-name="Tbar" unicode="&#x166;" horiz-adv-x="538" 
d="M134 665h504l-18 -106h-194l-37 -207h116l-14 -78h-115l-48 -274h-122l48 274h-113l14 78h113l37 207h-189z" />
    <glyph glyph-name="tbar" unicode="&#x167;" horiz-adv-x="351" 
d="M187 695h119l-34 -192h135l-16 -93h-135l-16 -89h133l-16 -93h-133l-13 -72q-3 -17 -3 -34q1 -28 12.5 -37t38.5 -9q35 0 75 22l24 -77q-24 -16 -64.5 -26t-76.5 -10q-130 0 -132 104q0 24 7 68z" />
    <glyph glyph-name="Utilde" unicode="&#x168;" horiz-adv-x="629" 
d="M182 665h121l-78 -448q-4 -26 -4 -36q0 -49 28.5 -70t83.5 -21q126 0 147 122l80 453h121l-83 -469q-37 -209 -274 -209q-226 0 -226 170q0 32 5 58zM312 733l4 74q44 29 88 29q27 0 68 -13t63 -13q32 0 65 18l-5 -79q-38 -18 -71 -18q-22 0 -68 11t-66 11q-38 0 -78 -20
z" />
    <glyph glyph-name="utilde" unicode="&#x169;" horiz-adv-x="540" 
d="M447 503h119l-74 -419l-7 -84h-102l2 58l-6 1q-56 -73 -153 -73q-139 0 -139 130q0 20 5 50l59 337h119l-56 -319q-5 -25 -5 -44q0 -62 65 -62q41 0 74.5 30t40.5 70zM245 603l4 74q41 29 88 29q27 0 68 -13t63 -13q27 0 65 18l-5 -78q-38 -19 -72 -19q-23 0 -68.5 11.5
t-64.5 11.5q-36 0 -78 -21z" />
    <glyph glyph-name="Umacron" unicode="&#x16a;" horiz-adv-x="629" 
d="M182 665h121l-78 -448q-4 -26 -4 -36q0 -49 28.5 -70t83.5 -21q126 0 147 122l80 453h121l-83 -469q-37 -209 -274 -209q-226 0 -226 170q0 32 5 58zM303 734l16 87h287l-16 -87h-287z" />
    <glyph glyph-name="umacron" unicode="&#x16b;" horiz-adv-x="540" 
d="M447 503h119l-74 -419l-7 -84h-102l2 58l-6 1q-56 -73 -153 -73q-139 0 -139 130q0 20 5 50l59 337h119l-56 -319q-5 -25 -5 -44q0 -62 65 -62q41 0 74.5 30t40.5 70zM237 609l15 86h287l-15 -86h-287z" />
    <glyph glyph-name="Ubreve" unicode="&#x16c;" horiz-adv-x="629" 
d="M182 665h121l-78 -448q-4 -26 -4 -36q0 -49 28.5 -70t83.5 -21q126 0 147 122l80 453h121l-83 -469q-37 -209 -274 -209q-226 0 -226 170q0 32 5 58zM567 876l70 -30q-59 -126 -188 -126q-71 0 -107 36t-42 88l75 29q17 -77 86 -77q37 0 60.5 18.5t45.5 61.5z" />
    <glyph glyph-name="ubreve" unicode="&#x16d;" horiz-adv-x="540" 
d="M447 503h119l-74 -419l-7 -84h-102l2 58l-6 1q-56 -73 -153 -73q-139 0 -139 130q0 20 5 50l59 337h119l-56 -319q-5 -25 -5 -44q0 -62 65 -62q41 0 74.5 30t40.5 70zM494 724l70 -17q-53 -143 -186 -143q-71 0 -105.5 41t-37.5 102l71 16q7 -44 27 -63.5t56 -19.5
q32 0 56.5 19t48.5 65z" />
    <glyph glyph-name="Uring" unicode="&#x16e;" horiz-adv-x="629" 
d="M182 665h121l-78 -448q-4 -26 -4 -36q0 -49 28.5 -70t83.5 -21q126 0 147 122l80 453h121l-83 -469q-37 -209 -274 -209q-226 0 -226 170q0 32 5 58zM355 778q0 44 31.5 75.5t79.5 31.5q40 0 61 -22.5t21 -57.5q0 -45 -31 -75.5t-80 -30.5q-40 0 -61 22t-21 57zM458 833
q-18 0 -30.5 -14t-12.5 -35q0 -34 31 -34q19 0 31 14.5t12 36.5q0 32 -31 32z" />
    <glyph glyph-name="uring" unicode="&#x16f;" horiz-adv-x="540" 
d="M447 503h119l-74 -419l-7 -84h-102l2 58l-6 1q-56 -73 -153 -73q-139 0 -139 130q0 20 5 50l59 337h119l-56 -319q-5 -25 -5 -44q0 -62 65 -62q41 0 74.5 30t40.5 70zM294 643q0 44 31.5 75.5t79.5 31.5q40 0 61 -22.5t21 -57.5q0 -45 -31 -75.5t-80 -30.5q-40 0 -61 22
t-21 57zM397 698q-18 0 -30.5 -14t-12.5 -35q0 -34 31 -34q19 0 31 14.5t12 36.5q0 32 -31 32z" />
    <glyph glyph-name="Uhungarumlaut" unicode="&#x170;" horiz-adv-x="629" 
d="M182 665h121l-78 -448q-4 -26 -4 -36q0 -49 28.5 -70t83.5 -21q126 0 147 122l80 453h121l-83 -469q-37 -209 -274 -209q-226 0 -226 170q0 32 5 58zM289 749l176 145q43 -33 43 -59q0 -28 -50 -55q-42 -25 -147 -70zM478 749l175 144q44 -31 44 -58q0 -29 -50 -55
q-85 -46 -147 -70z" />
    <glyph glyph-name="uhungarumlaut" unicode="&#x171;" horiz-adv-x="540" 
d="M447 503h119l-74 -419l-7 -84h-102l2 58l-6 1q-56 -73 -153 -73q-139 0 -139 130q0 20 5 50l59 337h119l-56 -319q-5 -25 -5 -44q0 -62 65 -62q41 0 74.5 30t40.5 70zM234 596l135 180q66 -19 66 -52q0 -22 -37 -56q-33 -29 -130 -103zM410 596l136 180q65 -17 65 -53
q0 -22 -37 -55q-33 -29 -130 -103z" />
    <glyph glyph-name="Uogonek" unicode="&#x172;" horiz-adv-x="629" 
d="M182 665h121l-78 -448q-4 -26 -4 -36q0 -49 28.5 -70t83.5 -21q126 0 147 122l80 453h121l-83 -469q-14 -78 -52.5 -122t-112.5 -79q-36 -17 -70 -58.5t-34 -71.5q0 -31 33 -31q25 0 52 11l10 -65q-42 -21 -96 -21q-48 0 -70 22t-22 55q0 71 87 151q-225 0 -225 170
q0 32 5 58z" />
    <glyph glyph-name="uogonek" unicode="&#x173;" horiz-adv-x="540" 
d="M447 503h119l-74 -419l-7 -84q-37 -25 -67 -65t-30 -70q0 -31 33 -31q25 0 52 11l10 -65q-42 -21 -96 -21q-48 0 -70 22t-22 55q0 83 88 164l2 58l-6 1q-56 -73 -153 -73q-139 0 -139 130q0 20 5 50l59 337h119l-56 -319q-5 -25 -5 -44q0 -62 65 -62q41 0 74.5 30
t40.5 70z" />
    <glyph glyph-name="Wcircumflex" unicode="&#x174;" horiz-adv-x="815" 
d="M517 0l-21 335l-10 97l-182 -432h-139l-29 665h120l11 -505h1l187 452h127l26 -443h2l181 496h122l-260 -665h-136zM418 709l-38 35q76 76 131 120q30 24 53 24q22 0 48 -29q43 -48 86 -115l-41 -34l-104 90z" />
    <glyph glyph-name="wcircumflex" unicode="&#x175;" horiz-adv-x="799" 
d="M680 503h117q7 -68 7 -117q0 -181 -69 -290.5t-205 -109.5q-109 0 -126 84q-65 -84 -174 -84q-143 0 -144 125q0 21 5 49l60 343h119l-55 -316q-7 -33 -7 -55q1 -26 13.5 -40t42.5 -14q40 0 70.5 28t37.5 68l57 329h119l-57 -316q-6 -34 -6 -53q0 -56 54 -56
q69 0 108 88.5t39 216.5q0 62 -6 120zM390 561l-39 33q65 77 126 136q35 32 61 32q18 0 27.5 -6.5t22.5 -25.5q45 -65 79 -138l-41 -31l-100 105z" />
    <glyph glyph-name="Ycircumflex" unicode="&#x176;" horiz-adv-x="559" 
d="M675 665h-135l-199 -294h-1l-94 294h-128l144 -411l-45 -254h122l45 254zM289 709l-38 35q76 76 131 120q30 24 53 24q22 0 48 -29q43 -48 86 -115l-41 -34l-104 90z" />
    <glyph glyph-name="ycircumflex" unicode="&#x177;" horiz-adv-x="537" 
d="M565 503l-77 -440q-16 -93 -30 -138q-60 -191 -247 -191q-72 0 -111 33.5t-39 89.5q0 62 32.5 104t108.5 78q-58 7 -83.5 35.5t-25.5 79.5q0 23 4 44l54 305h119l-51 -292q-5 -25 -5 -43q0 -62 71 -62q38 0 69.5 26.5t38.5 68.5l54 302h118zM172 -121q0 -27 16.5 -41.5
t44.5 -14.5q94 0 120 142l18 97q-37 -36 -96 -66q-55 -28 -79 -52.5t-24 -64.5zM263 561l-39 33q65 77 126 136q35 32 61 32q18 0 27.5 -6.5t22.5 -25.5q45 -65 79 -138l-41 -31l-100 105z" />
    <glyph glyph-name="Ydieresis" unicode="&#x178;" horiz-adv-x="559" 
d="M675 665h-135l-199 -294h-1l-94 294h-128l144 -411l-45 -254h122l45 254zM451 773q0 29 22 50t54 21q24 0 38.5 -15t14.5 -37q0 -29 -22.5 -50t-53.5 -21q-24 0 -38.5 14.5t-14.5 37.5zM256 773q0 29 22 50t54 21q24 0 38.5 -15t14.5 -37q0 -29 -22.5 -50t-53.5 -21
q-24 0 -38.5 14.5t-14.5 37.5z" />
    <glyph glyph-name="Zacute" unicode="&#x179;" horiz-adv-x="505" 
d="M574 584l-388 -489h314l-18 -95h-455l15 83l386 487h-294l16 95h438zM303 748l181 148q49 -31 49 -61q0 -29 -50 -56q-17 -9 -152 -70z" />
    <glyph glyph-name="zacute" unicode="&#x17a;" horiz-adv-x="414" 
d="M97 -108q0 -67 62 -67q55 0 88.5 45t33.5 107q0 52 -33 83q-74 -28 -112.5 -74t-38.5 -94zM484 503l-13 -75l-255 -222l56 -30q65 -35 94.5 -78.5t29.5 -107.5q0 -111 -70.5 -183t-181.5 -72q-79 0 -119 37.5t-40 101.5q0 78 45.5 135.5t145.5 103.5q-23 13 -84 41l13 71
l214 185h-227l17 93h375zM252 596l145 184q67 -17 67 -53q0 -21 -37 -55q-47 -42 -141 -107z" />
    <glyph glyph-name="Zdotaccent" unicode="&#x17b;" horiz-adv-x="505" 
d="M574 584l-388 -489h314l-18 -95h-455l15 83l386 487h-294l16 95h438zM314 783q0 32 23.5 54.5t57.5 22.5q26 0 42.5 -16t16.5 -40q0 -33 -24 -55t-58 -22q-27 0 -42.5 15.5t-15.5 40.5z" />
    <glyph glyph-name="zdotaccent" unicode="&#x17c;" horiz-adv-x="414" 
d="M97 -108q0 48 38.5 94t112.5 74q33 -31 33 -83q0 -62 -33.5 -107t-88.5 -45q-62 0 -62 67zM471 428l13 75h-375l-17 -93h227l-214 -185l-13 -71q61 -28 84 -41q-100 -46 -145.5 -103.5t-45.5 -135.5q0 -64 40 -101.5t119 -37.5q111 0 181.5 72t70.5 183q0 64 -29.5 107.5
t-94.5 78.5l-56 30zM256 636q0 32 24 55t58 23q26 0 42 -16t16 -40q0 -33 -24 -55t-58 -22q-27 0 -42.5 15t-15.5 40z" />
    <glyph glyph-name="Zcaron" unicode="&#x17d;" horiz-adv-x="505" 
d="M574 584l-388 -489h314l-18 -95h-455l15 83l386 487h-294l16 95h438zM294 888l103 -92l136 95l37 -37q-55 -59 -123 -113q-37 -32 -62 -32q-26 0 -51 31q-51 62 -83 114z" />
    <glyph glyph-name="zcaron" unicode="&#x17e;" horiz-adv-x="414" 
d="M97 -108q0 48 38.5 94t112.5 74q33 -31 33 -83q0 -62 -33.5 -107t-88.5 -45q-62 0 -62 67zM471 428l13 75h-375l-17 -93h227l-214 -185l-13 -71q61 -28 84 -41q-100 -46 -145.5 -103.5t-45.5 -135.5q0 -64 40 -101.5t119 -37.5q111 0 181.5 72t70.5 183q0 64 -29.5 107.5
t-94.5 78.5l-56 30zM455 764l39 -33q-69 -80 -127 -136q-33 -32 -61 -32q-18 0 -27.5 6.5t-22.5 25.5q-43 62 -80 137l44 32l99 -105z" />
    <glyph glyph-name="longs" unicode="&#x17f;" horiz-adv-x="334" 
d="M280 550l-134 -760h-118l132 751q7 41 17.5 69.5t31 56.5t57.5 42t90 14q80 0 140 -36l-41 -78q-46 24 -91 24q-37 0 -56 -19t-28 -64z" />
    <glyph glyph-name="florin" unicode="&#x192;" horiz-adv-x="547" 
d="M129 294l32 95h109l29 87q30 93 75 137t138 44q78 0 144 -40l-47 -73q-40 22 -84 22q-75 0 -106 -88l-31 -89h148l-34 -95h-146l-110 -312q-36 -103 -80 -147.5t-134 -44.5q-89 0 -144 38l44 78q44 -25 89 -25q39 0 62.5 21t39.5 66l113 326h-107z" />
    <glyph glyph-name="Scommaaccent" unicode="&#x218;" horiz-adv-x="537" 
d="M45 60l59 95q32 -23 81 -43t95 -20q52 0 88 22t36 75q0 13 -3.5 23.5t-11.5 19.5t-15 15.5t-22 14t-23 11l-27 11.5l-26 11q-33 14 -54 25.5t-45.5 32t-36.5 49.5t-12 67q0 98 67 153t180 55q70 0 130 -28.5t95 -68.5l-77 -78q-75 72 -156 72q-111 0 -111 -84
q0 -18 8 -33t16 -24t30 -21t31 -16l38 -17q35 -15 56 -26.5t47 -32.5t39 -50t13 -66q0 -99 -69.5 -158t-188.5 -59q-73 0 -137 23.5t-94 49.5zM218 -61l-94 -199l40 -21q96 113 107 128q25 35 25 53q0 37 -78 39z" />
    <glyph glyph-name="scommaaccent" unicode="&#x219;" horiz-adv-x="419" 
d="M31 39l48 82q72 -48 137 -48q39 0 63 16.5t24 48.5q0 20 -14 35t-29 22.5t-42 17.5q-30 11 -45.5 19t-37.5 24t-32.5 40t-10.5 57q0 79 57 122t143 43q55 0 103.5 -21.5t75.5 -53.5l-65 -64q-54 52 -114 52q-36 0 -58.5 -15t-22.5 -46q0 -9 2 -17t9 -15l11.5 -11.5
t16.5 -10.5t17.5 -8.5t22 -9l21.5 -8.5q51 -20 81.5 -51t30.5 -84q0 -82 -56 -126t-153 -44q-59 0 -109.5 17.5t-73.5 36.5zM173 -61l-94 -199l40 -21q96 113 107 128q25 35 25 53q0 37 -78 39z" />
    <glyph glyph-name="uni021A" unicode="&#x21a;" horiz-adv-x="538" 
d="M134 665h504l-18 -106h-194l-98 -559h-122l99 559h-189zM204 -61l-94 -199l40 -21q96 113 107 128q25 35 25 53q0 37 -78 39z" />
    <glyph glyph-name="uni021B" unicode="&#x21b;" horiz-adv-x="350" 
d="M187 695h119l-34 -192h135l-16 -93h-135l-45 -254q-3 -17 -3 -34q1 -28 12.5 -37t38.5 -9q35 0 75 22l24 -77q-24 -16 -64.5 -26t-76.5 -10q-130 0 -132 104q0 24 7 68zM144 -61l-94 -199l40 -21q96 113 107 128q25 35 25 53q0 37 -78 39z" />
    <glyph glyph-name="dotlessj" unicode="&#x237;" horiz-adv-x="244" 
d="M59 -39l95 542h119l-95 -537q-6 -36 -11.5 -57.5t-18.5 -50t-30.5 -43.5t-48 -26.5t-71.5 -11.5q-33 0 -71 9.5t-60 25.5l46 83q36 -21 70 -21q30 0 48.5 19.5t27.5 67.5z" />
    <glyph glyph-name="apostrophe" unicode="&#x2bc;" horiz-adv-x="252" 
d="M177 527l71 208q27 3 29 3q49 0 49 -34q0 -36 -110 -190z" />
    <glyph glyph-name="circumflex" unicode="&#x2c6;" horiz-adv-x="500" 
d="M237 561l-39 33q65 77 126 136q35 32 61 32q18 0 27.5 -6.5t22.5 -25.5q45 -65 79 -138l-41 -31l-100 105z" />
    <glyph glyph-name="caron" unicode="&#x2c7;" horiz-adv-x="500" 
d="M497 764l39 -33q-69 -80 -127 -136q-33 -32 -61 -32q-18 0 -27.5 6.5t-22.5 25.5q-43 62 -80 137l44 32l99 -105z" />
    <glyph glyph-name="uni02C9" unicode="&#x2c9;" horiz-adv-x="500" 
d="M213 609l15 86h287l-15 -86h-287z" />
    <glyph glyph-name="breve" unicode="&#x2d8;" horiz-adv-x="500" 
d="M475 724l70 -17q-53 -143 -186 -143q-71 0 -105.5 41t-37.5 102l71 16q7 -44 27 -63.5t56 -19.5q32 0 56.5 19t48.5 65z" />
    <glyph glyph-name="dotaccent" unicode="&#x2d9;" horiz-adv-x="500" 
d="M296 636q0 32 24 55t58 23q26 0 42 -16t16 -40q0 -33 -24 -55t-58 -22q-27 0 -42.5 15t-15.5 40z" />
    <glyph glyph-name="ring" unicode="&#x2da;" horiz-adv-x="500" 
d="M268 643q0 44 31.5 75.5t79.5 31.5q40 0 61 -22.5t21 -57.5q0 -45 -31 -75.5t-80 -30.5q-40 0 -61 22t-21 57zM371 698q-18 0 -30.5 -14t-12.5 -35q0 -34 31 -34q19 0 31 14.5t12 36.5q0 32 -31 32z" />
    <glyph glyph-name="ogonek" unicode="&#x2db;" horiz-adv-x="500" 
d="M228 2l83 -1q-35 -26 -65 -66.5t-30 -69.5q0 -31 33 -31q25 0 52 11l10 -65q-42 -21 -96 -21q-48 0 -70 22t-22 55q0 78 105 166z" />
    <glyph glyph-name="tilde" unicode="&#x2dc;" horiz-adv-x="500" 
d="M221 603l4 74q41 29 88 29q27 0 68 -13t63 -13q27 0 65 18l-5 -78q-38 -19 -72 -19q-23 0 -68.5 11.5t-64.5 11.5q-36 0 -78 -21z" />
    <glyph glyph-name="hungarumlaut" unicode="&#x2dd;" horiz-adv-x="500" 
d="M198 596l135 180q66 -19 66 -52q0 -22 -37 -56q-33 -29 -130 -103zM374 596l136 180q65 -17 65 -53q0 -22 -37 -55q-33 -29 -130 -103z" />
    <glyph glyph-name="uni0394" unicode="&#x394;" horiz-adv-x="669" 
d="M652 0h-636l373 657h124zM520 93l-88 437l-32 -51l-212 -386h332z" />
    <glyph glyph-name="uni03A9" unicode="&#x3a9;" horiz-adv-x="781" 
d="M249 292q0 -72 28.5 -125.5t72.5 -81.5l-14 -85h-284l19 106h153q-38 30 -67.5 89t-29.5 120q0 155 103.5 249.5t261.5 94.5q135 0 210.5 -65.5t75.5 -183.5q0 -101 -50.5 -178t-129.5 -126h151l-19 -106h-277l15 86q25 16 45 30.5t47 41.5t45 56.5t30.5 72.5t12.5 92
q0 85 -45.5 131t-121.5 46q-97 0 -164.5 -66.5t-67.5 -197.5z" />
    <glyph glyph-name="uni03BC" unicode="&#x3bc;" horiz-adv-x="584" 
d="M595 503l-70 -400q-7 -33 19 -33q15 0 40 11l4 -69q-48 -24 -92 -24q-31 0 -53.5 18t-24.5 49q-21 -23 -34.5 -35t-39.5 -22t-59 -10q-36 0 -61 15t-35 34l-44 -253h-107l127 719h111l-55 -312q-20 -119 77 -119q47 0 84 38.5t48 99.5l52 293h113z" />
    <glyph glyph-name="pi" unicode="&#x3c0;" horiz-adv-x="630" 
d="M667 410h-78l-51 -290q-6 -26 -1.5 -38t22.5 -12t44 8l3 -71q-43 -20 -99 -20q-104 0 -86 106l56 317h-169l-73 -410h-112l73 410h-78l16 93h549z" />
    <glyph glyph-name="Wgrave" unicode="&#x1e80;" horiz-adv-x="815" 
d="M517 0l-21 335l-10 97l-182 -432h-139l-29 665h120l11 -505h1l187 452h127l26 -443h2l181 496h122l-260 -665h-136zM488 902l140 -158l-33 -35l-136 81q-31 20 -31 45q0 35 60 67z" />
    <glyph glyph-name="wgrave" unicode="&#x1e81;" horiz-adv-x="799" 
d="M680 503h117q7 -68 7 -117q0 -181 -69 -290.5t-205 -109.5q-109 0 -126 84q-65 -84 -174 -84q-143 0 -144 125q0 21 5 49l60 343h119l-55 -316q-7 -33 -7 -55q1 -26 13.5 -40t42.5 -14q40 0 70.5 28t37.5 68l57 329h119l-57 -316q-6 -34 -6 -53q0 -56 54 -56
q69 0 108 88.5t39 216.5q0 62 -6 120zM486 784l94 -190l-42 -29q-73 75 -107 115q-19 22 -19 44q0 43 74 60z" />
    <glyph glyph-name="Wacute" unicode="&#x1e82;" horiz-adv-x="815" 
d="M517 0l-21 335l-10 97l-182 -432h-139l-29 665h120l11 -505h1l187 452h127l26 -443h2l181 496h122l-260 -665h-136zM443 748l181 148q49 -31 49 -61q0 -29 -50 -56q-17 -9 -152 -70z" />
    <glyph glyph-name="wacute" unicode="&#x1e83;" horiz-adv-x="799" 
d="M680 503h117q7 -68 7 -117q0 -181 -69 -290.5t-205 -109.5q-109 0 -126 84q-65 -84 -174 -84q-143 0 -144 125q0 21 5 49l60 343h119l-55 -316q-7 -33 -7 -55q1 -26 13.5 -40t42.5 -14q40 0 70.5 28t37.5 68l57 329h119l-57 -316q-6 -34 -6 -53q0 -56 54 -56
q69 0 108 88.5t39 216.5q0 62 -6 120zM416 596l145 184q67 -17 67 -53q0 -21 -37 -55q-47 -42 -141 -107z" />
    <glyph glyph-name="Wdieresis" unicode="&#x1e84;" horiz-adv-x="815" 
d="M517 0l-21 335l-10 97l-182 -432h-139l-29 665h120l11 -505h1l187 452h127l26 -443h2l181 496h122l-260 -665h-136zM580 773q0 29 22 50t54 21q24 0 38.5 -15t14.5 -37q0 -29 -22.5 -50t-53.5 -21q-24 0 -38.5 14.5t-14.5 37.5zM385 773q0 29 22 50t54 21q24 0 38.5 -15
t14.5 -37q0 -29 -22.5 -50t-53.5 -21q-24 0 -38.5 14.5t-14.5 37.5z" />
    <glyph glyph-name="wdieresis" unicode="&#x1e85;" horiz-adv-x="799" 
d="M680 503h117q7 -68 7 -117q0 -181 -69 -290.5t-205 -109.5q-109 0 -126 84q-65 -84 -174 -84q-143 0 -144 125q0 21 5 49l60 343h119l-55 -316q-7 -33 -7 -55q1 -26 13.5 -40t42.5 -14q40 0 70.5 28t37.5 68l57 329h119l-57 -316q-6 -34 -6 -53q0 -56 54 -56
q69 0 108 88.5t39 216.5q0 62 -6 120zM548 645q0 29 22 50t54 21q24 0 38.5 -15t14.5 -37q0 -29 -22.5 -50t-53.5 -21q-24 0 -38.5 14.5t-14.5 37.5zM353 645q0 29 22 50t54 21q24 0 38.5 -15t14.5 -37q0 -29 -22.5 -50t-53.5 -21q-24 0 -38.5 14.5t-14.5 37.5z" />
    <glyph glyph-name="Ygrave" unicode="&#x1ef2;" horiz-adv-x="559" 
d="M675 665h-135l-199 -294h-1l-94 294h-128l144 -411l-45 -254h122l45 254zM357 902l140 -158l-33 -35l-136 81q-31 20 -31 45q0 35 60 67z" />
    <glyph glyph-name="ygrave" unicode="&#x1ef3;" horiz-adv-x="537" 
d="M565 503l-77 -440q-16 -93 -30 -138q-60 -191 -247 -191q-72 0 -111 33.5t-39 89.5q0 62 32.5 104t108.5 78q-58 7 -83.5 35.5t-25.5 79.5q0 23 4 44l54 305h119l-51 -292q-5 -25 -5 -43q0 -62 71 -62q38 0 69.5 26.5t38.5 68.5l54 302h118zM172 -121q0 -27 16.5 -41.5
t44.5 -14.5q94 0 120 142l18 97q-37 -36 -96 -66q-55 -28 -79 -52.5t-24 -64.5zM354 784l94 -190l-42 -29q-73 75 -107 115q-19 22 -19 44q0 43 74 60z" />
    <glyph glyph-name="endash" unicode="&#x2013;" horiz-adv-x="500" 
d="M43 244l14 83h500l-14 -83h-500z" />
    <glyph glyph-name="emdash" unicode="&#x2014;" horiz-adv-x="1000" 
d="M43 244l14 83h1000l-14 -83h-1000z" />
    <glyph glyph-name="quoteleft" unicode="&#x2018;" horiz-adv-x="219" 
d="M229 477q-16 -2 -32 -2q-68 0 -68 43q0 54 137 215l60 -24z" />
    <glyph glyph-name="quoteright" unicode="&#x2019;" horiz-adv-x="215" 
d="M211 724q14 3 34 3q68 0 68 -42q0 -48 -133 -217l-61 20z" />
    <glyph glyph-name="quotesinglbase" unicode="&#x201a;" horiz-adv-x="223" 
d="M206 73l-142 -220l-61 21q39 124 66 184q22 53 62 53t75 -38z" />
    <glyph glyph-name="quotedblleft" unicode="&#x201c;" horiz-adv-x="379" 
d="M226 477q-16 -2 -32 -2q-68 0 -68 43q0 54 137 215l60 -24zM392 477q-16 -2 -32 -2q-68 0 -68 43q0 54 137 215l60 -24z" />
    <glyph glyph-name="quotedblright" unicode="&#x201d;" horiz-adv-x="378" 
d="M211 724q14 3 34 3q68 0 68 -42q0 -48 -133 -217l-61 20zM377 724q13 3 34 3q68 0 68 -42q0 -48 -133 -217l-61 20z" />
    <glyph glyph-name="quotedblbase" unicode="&#x201e;" horiz-adv-x="393" 
d="M206 73l-142 -220l-61 21q39 124 66 184q22 53 62 53t75 -38zM372 73l-142 -220l-61 21q39 124 66 184q22 53 62 53t75 -38z" />
    <glyph glyph-name="dagger" unicode="&#x2020;" horiz-adv-x="441" 
d="M295 438q-54 -46 -66 -110l-66 -373q-14 -76 22 -126q25 15 44 49t25 70l65 371q13 68 -24 119zM303 495q-28 35 -28 86q0 32 14 58t44 26q38 0 38 -47q0 -64 -68 -123zM325 466q27 22 59 33t53 11q59 0 59 -41q0 -26 -22 -38.5t-53 -12.5q-28 0 -56 13t-40 35zM274 467
q-20 -22 -50.5 -35.5t-59.5 -13.5q-61 0 -61 44q0 24 21 36t53 12q22 0 49.5 -11t47.5 -32z" />
    <glyph glyph-name="daggerdbl" unicode="&#x2021;" horiz-adv-x="442" 
d="M250 13q27 22 58.5 33t52.5 11q59 0 59 -42q0 -25 -19.5 -37t-49.5 -12q-22 0 -54 13t-47 34zM199 14q-21 -21 -52.5 -35t-61.5 -14q-57 0 -57 41q0 51 73 51q56 0 98 -43zM220 -18q-69 -60 -69 -126q0 -44 39 -44q26 0 41.5 22t15.5 56q0 56 -27 92zM297 438
q-54 -46 -66 -110l-21 -159q-12 -80 22 -126q26 15 45 49.5t24 69.5l20 157q13 68 -24 119zM305 495q-28 35 -28 86q0 32 14 58t44 26q38 0 38 -47q0 -64 -68 -123zM327 466q27 22 59 33t53 11q59 0 59 -41q0 -26 -22 -38.5t-53 -12.5q-28 0 -56 13t-40 35zM276 467
q-20 -22 -50.5 -35.5t-59.5 -13.5q-61 0 -61 44q0 24 21 36t53 12q22 0 49.5 -11t47.5 -32z" />
    <glyph glyph-name="bullet" unicode="&#x2022;" horiz-adv-x="500" 
d="M186 289q0 63 40 103.5t98 40.5q45 0 72.5 -28t27.5 -74q0 -64 -40.5 -104.5t-96.5 -40.5q-47 0 -74 28t-27 75z" />
    <glyph glyph-name="ellipsis" unicode="&#x2026;" horiz-adv-x="727" 
d="M48 41q0 34 23.5 57t58.5 23q29 0 44.5 -15t15.5 -40q0 -33 -22.5 -57t-58.5 -24q-30 0 -45.5 15t-15.5 41zM306 41q0 34 23.5 57t58.5 23q29 0 44.5 -15t15.5 -40q0 -33 -22.5 -57t-58.5 -24q-30 0 -45.5 15t-15.5 41zM556 41q0 34 23.5 57t58.5 23q29 0 44.5 -15
t15.5 -40q0 -33 -22.5 -57t-58.5 -24q-30 0 -45.5 15t-15.5 41z" />
    <glyph glyph-name="perthousand" unicode="&#x2030;" horiz-adv-x="925" 
d="M833 297q52 0 83.5 -31.5t31.5 -90.5q0 -87 -46 -138t-121 -51q-55 0 -84.5 31t-29.5 90q0 89 46.5 139.5t119.5 50.5zM790 44q32 0 56 32t24 96q0 66 -48 66q-32 0 -54 -34t-23 -98q0 -62 45 -62zM523 297q52 0 83.5 -31.5t31.5 -90.5q0 -87 -46 -138t-121 -51
q-55 0 -84.5 31t-29.5 90q0 89 46.5 139.5t119.5 50.5zM480 44q32 0 56 32t24 96q0 66 -48 66q-32 0 -54 -34t-23 -98q0 -62 45 -62zM267 657q52 0 83.5 -31.5t31.5 -90.5q0 -87 -46 -138t-121 -51q-55 0 -84.5 31t-29.5 90q0 89 46.5 139.5t119.5 50.5zM224 404q32 0 56 32
t24 96q0 66 -48 66q-32 0 -54 -34t-23 -98q0 -62 45 -62zM147 110l-42 66l506 369l43 -66z" />
    <glyph glyph-name="guilsinglleft" unicode="&#x2039;" horiz-adv-x="326" 
d="M366 402l-154 -145l88 -158l-52 -40q-35 33 -79 85.5t-64 87.5q-8 13 -8 31q0 23 34 51q55 45 194 140z" />
    <glyph glyph-name="guilsinglright" unicode="&#x203a;" horiz-adv-x="326" 
d="M208 268l-99 142l52 44q77 -68 141 -139q20 -25 20 -43q0 -20 -19 -40q-29 -31 -94 -86t-110 -87l-41 48z" />
    <glyph glyph-name="fraction" unicode="&#x2044;" horiz-adv-x="193" 
d="M-5 -9l-73 36l403 627l75 -35z" />
    <glyph glyph-name="zerosuperior" unicode="&#x2070;" horiz-adv-x="377" 
d="M314 737q64 0 99.5 -36t35.5 -105q0 -32 -5 -62q-32 -198 -192 -198q-67 0 -102 36.5t-35 106.5q0 34 5 65q16 100 68 146.5t126 46.5zM259 406q36 0 60 27t37 99q5 29 5 60q0 76 -56 76q-38 0 -61.5 -29t-36.5 -101q-5 -26 -5 -58q0 -74 57 -74z" />
    <glyph glyph-name="foursuperior" unicode="&#x2074;" horiz-adv-x="364" 
d="M333 596h55l-19 -104h61l-11 -66h-61l-16 -85h-87l15 87h-162l10 53l168 261l68 -33l-144 -217h73z" />
    <glyph glyph-name="fivesuperior" unicode="&#x2075;" horiz-adv-x="353" 
d="M157 529l63 202h207l-12 -68h-147l-26 -78q151 -3 151 -107q0 -57 -39 -99.5t-128 -42.5q-78 0 -127 34l35 63q44 -28 93 -28q40 0 58.5 18t18.5 46q0 37 -35 48.5t-112 11.5z" />
    <glyph glyph-name="sixsuperior" unicode="&#x2076;" horiz-adv-x="377" 
d="M388 749l7 -63q-132 -15 -167 -119q51 28 98 28t72.5 -26.5t25.5 -70.5q0 -19 -3 -34q-10 -58 -52.5 -93t-108.5 -35q-63 0 -94.5 35t-31.5 96q0 32 5 62q16 89 75.5 148t173.5 72zM339 466q2 14 2 20q0 45 -50 45q-37 0 -71 -23q-3 -21 -3 -42q0 -64 52 -64q26 0 45 16
t25 48z" />
    <glyph glyph-name="sevensuperior" unicode="&#x2077;" horiz-adv-x="315" 
d="M130 664l12 67h278l-10 -57q-152 -114 -187 -312l-4 -21h-85l5 26q32 182 162 297h-171z" />
    <glyph glyph-name="eightsuperior" unicode="&#x2078;" horiz-adv-x="360" 
d="M115 425q0 83 104 124q-53 28 -53 79q0 44 39.5 76.5t105.5 32.5q59 0 86.5 -23t27.5 -56q0 -25 -13 -46t-27 -32.5t-39 -27.5q59 -33 59 -89q0 -50 -40.5 -88.5t-121.5 -38.5q-67 0 -97.5 26t-30.5 63zM322 451q0 38 -51 60q-30 -11 -51 -31t-21 -43q0 -40 56 -40
q30 0 48.5 16.5t18.5 37.5zM301 680q-27 0 -41.5 -13t-14.5 -30q0 -32 44 -54q22 11 39 30t17 36q0 31 -44 31z" />
    <glyph glyph-name="ninesuperior" unicode="&#x2079;" horiz-adv-x="370" 
d="M170 322l-6 65q65 9 108.5 41.5t57.5 74.5q-50 -25 -97 -25t-72.5 26.5t-25.5 70.5q0 20 3 35q11 58 53 92.5t107 34.5q63 0 95 -35.5t32 -97.5q0 -40 -3 -59q-28 -196 -252 -223zM219 608q-1 -7 -1 -21q0 -45 51 -45q39 0 68 21q4 28 4 41q0 66 -50 66q-61 0 -72 -62z
" />
    <glyph glyph-name="zeroinferior" unicode="&#x2080;" horiz-adv-x="377" 
d="M240 316q64 0 99.5 -36t35.5 -105q0 -32 -5 -62q-32 -198 -192 -198q-67 0 -102 36.5t-35 106.5q0 34 5 65q16 100 68 146.5t126 46.5zM185 -15q36 0 60 27t37 99q5 29 5 60q0 76 -56 76q-38 0 -61.5 -29t-36.5 -101q-5 -26 -5 -58q0 -74 57 -74z" />
    <glyph glyph-name="oneinferior" unicode="&#x2081;" horiz-adv-x="332" 
d="M69 -10h75l40 228l-88 -36l-18 57l137 71h80l-18 -68l-45 -252h70l-13 -70h-232z" />
    <glyph glyph-name="twoinferior" unicode="&#x2082;" horiz-adv-x="364" 
d="M109 202l-35 56q84 58 160 58q53 0 80 -27t27 -69q0 -35 -16.5 -65t-57.5 -67l-106 -96h154l-13 -72h-274l10 58l152 139q57 52 57 90q0 34 -39 34q-40 0 -99 -39z" />
    <glyph glyph-name="threeinferior" unicode="&#x2083;" horiz-adv-x="348" 
d="M105 215l-27 54q80 47 155 47q49 0 75.5 -23t26.5 -60q0 -61 -61 -98q31 -56 31 -97q0 -53 -37.5 -88t-117.5 -35q-77 0 -129 32l33 62q45 -26 95 -26q68 0 68 53q0 22 -17 62q-38 -13 -82 -21l-14 60q100 21 127 45q14 13 14 29q0 35 -40 35q-34 0 -100 -31z" />
    <glyph glyph-name="fourinferior" unicode="&#x2084;" horiz-adv-x="364" 
d="M260 175h55l-19 -104h61l-11 -66h-61l-16 -85h-87l15 87h-162l10 53l168 261l68 -33l-144 -217h73z" />
    <glyph glyph-name="fiveinferior" unicode="&#x2085;" horiz-adv-x="353" 
d="M84 108l63 202h207l-12 -68h-147l-26 -78q151 -3 151 -107q0 -57 -39 -99.5t-128 -42.5q-78 0 -127 34l35 63q44 -28 93 -28q40 0 58.5 18t18.5 46q0 37 -35 48.5t-112 11.5z" />
    <glyph glyph-name="sixinferior" unicode="&#x2086;" horiz-adv-x="377" 
d="M315 328l7 -63q-132 -15 -167 -119q51 28 98 28t72.5 -26.5t25.5 -70.5q0 -19 -3 -34q-10 -58 -52.5 -93t-108.5 -35q-63 0 -94.5 35t-31.5 96q0 32 5 62q16 89 75.5 148t173.5 72zM266 45q2 14 2 20q0 45 -50 45q-36 0 -71 -23q-3 -21 -3 -42q0 -64 52 -64q26 0 45 16
t25 48z" />
    <glyph glyph-name="seveninferior" unicode="&#x2087;" horiz-adv-x="315" 
d="M57 243l12 67h278l-10 -57q-152 -114 -187 -312l-4 -21h-85l5 26q32 182 162 297h-171z" />
    <glyph glyph-name="eightinferior" unicode="&#x2088;" horiz-adv-x="360" 
d="M42 4q0 83 104 124q-53 28 -53 79q0 44 39.5 76.5t105.5 32.5q59 0 86.5 -23t27.5 -56q0 -25 -13 -46t-27 -32.5t-39 -27.5q59 -33 59 -89q0 -50 -40.5 -88.5t-121.5 -38.5q-67 0 -97.5 26t-30.5 63zM249 30q0 38 -51 60q-30 -11 -51 -31t-21 -43q0 -40 56 -40
q30 0 48.5 16.5t18.5 37.5zM228 259q-27 0 -41.5 -13t-14.5 -30q0 -32 44 -54q22 11 39 30t17 36q0 31 -44 31z" />
    <glyph glyph-name="nineinferior" unicode="&#x2089;" horiz-adv-x="370" 
d="M98 -99l-6 65q65 9 108.5 41.5t57.5 74.5q-50 -25 -97 -25t-72.5 26.5t-25.5 70.5q0 20 3 35q11 58 53 92.5t107 34.5q63 0 95 -35.5t32 -97.5q0 -40 -3 -59q-28 -196 -252 -223zM147 187q-1 -7 -1 -21q0 -45 51 -45q39 0 68 21q4 28 4 41q0 66 -50 66q-61 0 -72 -62z
" />
    <glyph glyph-name="Euro" unicode="&#x20ac;" 
d="M499 221l15 82h-435l-15 -82h105q-62 -39 -62 -107q0 -55 44 -91.5t142 -36.5q135 0 243 62l-35 85q-98 -54 -179 -54q-43 0 -66 17.5t-23 48.5q0 35 24 55.5t66 20.5h176zM535 422l-15 -82h-435l15 82h95q-22 25 -22 71q0 79 67.5 121.5t167.5 42.5q126 0 216 -90
l-67 -71q-42 35 -77 52t-82 17q-45 0 -77 -19t-32 -61q0 -28 18.5 -45.5t51.5 -17.5h176z" />
    <glyph glyph-name="trademark" unicode="&#x2122;" horiz-adv-x="690" 
d="M106 665h266v-69h-95v-267h-80v267h-91v69zM651 665h80l20 -336h-72l-10 208l-66 -184h-59l-65 183l-11 -207h-71l21 336h82l74 -222z" />
    <glyph glyph-name="Omega" unicode="&#x2126;" horiz-adv-x="781" 
d="M249 292q0 -72 28.5 -125.5t72.5 -81.5l-14 -85h-284l19 106h153q-38 30 -67.5 89t-29.5 120q0 155 103.5 249.5t261.5 94.5q135 0 210.5 -65.5t75.5 -183.5q0 -101 -50.5 -178t-129.5 -126h151l-19 -106h-277l15 86q25 16 45 30.5t47 41.5t45 56.5t30.5 72.5t12.5 92
q0 85 -45.5 131t-121.5 46q-97 0 -164.5 -66.5t-67.5 -197.5z" />
    <glyph glyph-name="onethird" unicode="&#x2153;" horiz-adv-x="825" 
d="M113 331h75l40 228l-88 -36l-18 57l137 71h80l-18 -68l-45 -252h70l-13 -70h-232zM324 -9l-73 36l403 627l75 -35zM634 295l-27 54q80 47 155 47q49 0 75.5 -23t26.5 -60q0 -61 -61 -98q31 -56 31 -97q0 -53 -37.5 -88t-117.5 -35q-77 0 -129 32l33 62q45 -26 95 -26
q68 0 68 53q0 22 -17 62q-38 -13 -82 -21l-14 60q100 21 127 45q14 13 14 29q0 35 -40 35q-34 0 -100 -31z" />
    <glyph glyph-name="twothirds" unicode="&#x2154;" horiz-adv-x="825" 
d="M177 543l-35 56q84 58 160 58q53 0 80 -27t27 -69q0 -35 -16.5 -65t-57.5 -67l-106 -96h154l-13 -72h-274l10 58l152 139q57 52 57 90q0 34 -39 34q-40 0 -99 -39zM343 -9l-73 36l403 627l75 -35zM646 295l-27 54q80 47 155 47q49 0 75.5 -23t26.5 -60q0 -61 -61 -98
q31 -56 31 -97q0 -53 -37.5 -88t-117.5 -35q-77 0 -129 32l33 62q45 -26 95 -26q68 0 68 53q0 22 -17 62q-38 -13 -82 -21l-14 60q100 21 127 45q14 13 14 29q0 35 -40 35q-34 0 -100 -31z" />
    <glyph glyph-name="oneeighth" unicode="&#x215b;" horiz-adv-x="825" 
d="M109 331h75l40 228l-88 -36l-18 57l137 71h80l-18 -68l-45 -252h70l-13 -70h-232zM317 -9l-73 36l403 627l75 -35zM542 84q0 83 104 124q-53 28 -53 79q0 44 39.5 76.5t105.5 32.5q59 0 86.5 -23t27.5 -56q0 -25 -13 -46t-27 -32.5t-39 -27.5q59 -33 59 -89
q0 -50 -40.5 -88.5t-121.5 -38.5q-67 0 -97.5 26t-30.5 63zM749 110q0 38 -51 60q-30 -11 -51 -31t-21 -43q0 -40 56 -40q30 0 48.5 16.5t18.5 37.5zM728 339q-27 0 -41.5 -13t-14.5 -30q0 -32 44 -54q22 11 39 30t17 36q0 31 -44 31z" />
    <glyph glyph-name="threeeighths" unicode="&#x215c;" horiz-adv-x="825" 
d="M169 556l-27 54q80 47 155 47q49 0 75.5 -23t26.5 -60q0 -61 -61 -98q31 -56 31 -97q0 -53 -37.5 -88t-117.5 -35q-77 0 -129 32l33 62q45 -26 95 -26q68 0 68 53q0 22 -17 62q-38 -13 -82 -21l-14 60q100 21 127 45q14 13 14 29q0 35 -40 35q-34 0 -100 -31zM315 -9
l-73 36l403 627l75 -35zM542 84q0 83 104 124q-53 28 -53 79q0 44 39.5 76.5t105.5 32.5q59 0 86.5 -23t27.5 -56q0 -25 -13 -46t-27 -32.5t-39 -27.5q59 -33 59 -89q0 -50 -40.5 -88.5t-121.5 -38.5q-67 0 -97.5 26t-30.5 63zM749 110q0 38 -51 60q-30 -11 -51 -31t-21 -43
q0 -40 56 -40q30 0 48.5 16.5t18.5 37.5zM728 339q-27 0 -41.5 -13t-14.5 -30q0 -32 44 -54q22 11 39 30t17 36q0 31 -44 31z" />
    <glyph glyph-name="fiveeighths" unicode="&#x215d;" horiz-adv-x="825" 
d="M142 449l63 202h207l-12 -68h-147l-26 -78q151 -3 151 -107q0 -57 -39 -99.5t-128 -42.5q-78 0 -127 34l35 63q44 -28 93 -28q40 0 58.5 18t18.5 46q0 37 -35 48.5t-112 11.5zM316 -9l-73 36l403 627l75 -35zM544 84q0 83 104 124q-53 28 -53 79q0 44 39.5 76.5
t105.5 32.5q59 0 86.5 -23t27.5 -56q0 -25 -13 -46t-27 -32.5t-39 -27.5q59 -33 59 -89q0 -50 -40.5 -88.5t-121.5 -38.5q-67 0 -97.5 26t-30.5 63zM751 110q0 38 -51 60q-30 -11 -51 -31t-21 -43q0 -40 56 -40q30 0 48.5 16.5t18.5 37.5zM730 339q-27 0 -41.5 -13
t-14.5 -30q0 -32 44 -54q22 11 39 30t17 36q0 31 -44 31z" />
    <glyph glyph-name="seveneighths" unicode="&#x215e;" horiz-adv-x="825" 
d="M135 584l12 67h278l-10 -57q-152 -114 -187 -312l-4 -21h-85l5 26q32 182 162 297h-171zM268 -9l-73 36l403 627l75 -35zM528 84q0 83 104 124q-53 28 -53 79q0 44 39.5 76.5t105.5 32.5q59 0 86.5 -23t27.5 -56q0 -25 -13 -46t-27 -32.5t-39 -27.5q59 -33 59 -89
q0 -50 -40.5 -88.5t-121.5 -38.5q-67 0 -97.5 26t-30.5 63zM735 110q0 38 -51 60q-30 -11 -51 -31t-21 -43q0 -40 56 -40q30 0 48.5 16.5t18.5 37.5zM714 339q-27 0 -41.5 -13t-14.5 -30q0 -32 44 -54q22 11 39 30t17 36q0 31 -44 31z" />
    <glyph glyph-name="partialdiff" unicode="&#x2202;" horiz-adv-x="555" 
d="M242 583l38 86q269 -52 269 -311q0 -69 -14.5 -131.5t-45 -118.5t-87.5 -89.5t-134 -33.5q-93 0 -137.5 51t-44.5 130q0 113 66 183.5t167 70.5q72 0 125 -43l3 1q-4 75 -59.5 131.5t-145.5 73.5zM284 71q108 0 140 182q3 18 5 37q-39 45 -102 45q-57 0 -91 -46t-34 -116
q0 -47 21 -74.5t61 -27.5z" />
    <glyph glyph-name="Delta" unicode="&#x2206;" horiz-adv-x="669" 
d="M652 0h-636l373 657h124zM520 93l-88 437l-32 -51l-212 -386h332z" />
    <glyph glyph-name="product" unicode="&#x220f;" horiz-adv-x="718" 
d="M623 -132h-123l120 683h-327l-120 -683h-124l139 789h574z" />
    <glyph glyph-name="summation" unicode="&#x2211;" horiz-adv-x="566" 
d="M530 -132h-526l16 95l312 305l-197 294l17 95h496l-19 -107h-342l187 -291l-289 -284h363z" />
    <glyph glyph-name="minus" unicode="&#x2212;" 
d="M534 362l-17 -96h-405l17 96h405z" />
    <glyph glyph-name="uni2215" unicode="&#x2215;" horiz-adv-x="476" 
d="M113 -124l-95 38l431 814l97 -38z" />
    <glyph glyph-name="uni2219" unicode="&#x2219;" horiz-adv-x="315" 
d="M142 294q0 34 23.5 57t58.5 23q29 0 44.5 -15t15.5 -40q0 -33 -22.5 -56.5t-58.5 -23.5q-61 0 -61 55z" />
    <glyph glyph-name="radical" unicode="&#x221a;" horiz-adv-x="666" 
d="M810 731l-394 -745h-112l-71 405l-104 -50l-21 82l218 101l62 -383l305 590h117z" />
    <glyph glyph-name="infinity" unicode="&#x221e;" horiz-adv-x="764" 
d="M782 357q0 -75 -43.5 -119.5t-111.5 -44.5q-99 0 -184 97q-84 -99 -179 -99q-77 0 -120.5 42.5t-43.5 111.5q0 67 46.5 114t119.5 47q56 0 96.5 -25.5t81.5 -81.5q50 56 92 82t97 26q71 0 110 -43.5t39 -106.5zM684 350q0 33 -17 52t-50 19q-29 0 -53.5 -18.5
t-54.5 -55.5q53 -72 109 -72q31 0 48.5 22t17.5 53zM376 345q-48 76 -104 76q-37 0 -56.5 -21t-19.5 -53t19.5 -52t54.5 -20q56 0 106 70z" />
    <glyph glyph-name="integral" unicode="&#x222b;" horiz-adv-x="390" 
d="M407 594q-39 12 -67 12t-39.5 -14t-9.5 -55q1 -15 2.5 -40t1.5 -32l25 -408q0 -6 1.5 -21t2 -28t0.5 -20q2 -64 -31 -104t-100 -40q-62 0 -112 20l16 75q39 -12 65 -12q27 0 37.5 12t9.5 49q0 7 -3 52l-25 434q-3 51 -3 73q0 60 31.5 100t104.5 40q53 0 105 -18z" />
    <glyph glyph-name="approxequal" unicode="&#x2248;" horiz-adv-x="620" 
d="M440 139q-50 0 -109 34t-84 34q-42 0 -102 -64l-58 56q85 104 167 104q40 0 100.5 -35t92.5 -35q47 0 102 63l60 -57q-78 -100 -169 -100zM474 346q-38 0 -74.5 17t-66 34.5t-52.5 17.5q-41 0 -102 -65l-58 56q89 105 167 105q40 0 100.5 -35t92.5 -35q47 0 103 62
l58 -58q-79 -99 -168 -99z" />
    <glyph glyph-name="notequal" unicode="&#x2260;" 
d="M516 259l-18 -97h-199l-48 -105h-99l47 105h-106l18 97h132l43 95h-159l18 97h186l47 103h96l-46 -103h122l-18 -97h-148l-42 -95h174z" />
    <glyph glyph-name="lessequal" unicode="&#x2264;" 
d="M483 116l-17 -97h-390l17 97h390zM548 483l-284 -122l242 -125l-53 -85l-323 171l15 82l370 168z" />
    <glyph glyph-name="greaterequal" unicode="&#x2265;" 
d="M82 19l17 97h390l-17 -97h-390zM406 373l-240 123l47 81l326 -173l-15 -82l-375 -167l-34 87z" />
    <glyph glyph-name="lozenge" unicode="&#x25ca;" horiz-adv-x="581" 
d="M586 331l-189 -331h-102l-190 329l191 328h100zM471 331l-126 220l-123 -221l126 -227z" />
    <glyph glyph-name="onefifth" unicode="&#xf500;" horiz-adv-x="825" 
d="M104 331h75l40 228l-88 -36l-18 57l137 71h80l-18 -68l-45 -252h70l-13 -70h-232zM322 -9l-73 36l403 627l75 -35zM584 188l63 202h207l-12 -68h-147l-26 -78q151 -3 151 -107q0 -57 -39 -99.5t-128 -42.5q-78 0 -127 34l35 63q44 -28 93 -28q40 0 58.5 18t18.5 46
q0 37 -35 48.5t-112 11.5z" />
    <glyph glyph-name="twofifths" unicode="&#xf501;" horiz-adv-x="825" 
d="M160 543l-35 56q84 58 160 58q53 0 80 -27t27 -69q0 -35 -16.5 -65t-57.5 -67l-106 -96h154l-13 -72h-274l10 58l152 139q57 52 57 90q0 34 -39 34q-40 0 -99 -39zM331 -9l-73 36l403 627l75 -35zM588 188l63 202h207l-12 -68h-147l-26 -78q151 -3 151 -107
q0 -57 -39 -99.5t-128 -42.5q-78 0 -127 34l35 63q44 -28 93 -28q40 0 58.5 18t18.5 46q0 37 -35 48.5t-112 11.5z" />
    <glyph glyph-name="threefifths" unicode="&#xf502;" horiz-adv-x="825" 
d="M178 556l-27 54q80 47 155 47q49 0 75.5 -23t26.5 -60q0 -61 -61 -98q31 -56 31 -97q0 -53 -37.5 -88t-117.5 -35q-77 0 -129 32l33 62q45 -26 95 -26q68 0 68 53q0 22 -17 62q-38 -13 -82 -21l-14 60q100 21 127 45q14 13 14 29q0 35 -40 35q-34 0 -100 -31zM330 -9
l-73 36l403 627l75 -35zM597 188l63 202h207l-12 -68h-147l-26 -78q151 -3 151 -107q0 -57 -39 -99.5t-128 -42.5q-78 0 -127 34l35 63q44 -28 93 -28q40 0 58.5 18t18.5 46q0 37 -35 48.5t-112 11.5z" />
    <glyph glyph-name="fourfifths" unicode="&#xf503;" horiz-adv-x="825" 
d="M310 516h55l-19 -104h61l-11 -66h-61l-16 -85h-87l15 87h-162l10 53l168 261l68 -33l-144 -217h73zM338 -9l-73 36l403 627l75 -35zM599 188l63 202h207l-12 -68h-147l-26 -78q151 -3 151 -107q0 -57 -39 -99.5t-128 -42.5q-78 0 -127 34l35 63q44 -28 93 -28
q40 0 58.5 18t18.5 46q0 37 -35 48.5t-112 11.5z" />
    <glyph glyph-name="onesixth" unicode="&#xf504;" horiz-adv-x="825" 
d="M114 331h75l40 228l-88 -36l-18 57l137 71h80l-18 -68l-45 -252h70l-13 -70h-232zM321 -9l-73 36l403 627l75 -35zM809 408l7 -63q-132 -15 -167 -119q51 28 98 28t72.5 -26.5t25.5 -70.5q0 -19 -3 -34q-10 -58 -52.5 -93t-108.5 -35q-63 0 -94.5 35t-31.5 96q0 32 5 62
q16 89 75.5 148t173.5 72zM760 125q2 14 2 20q0 45 -50 45q-36 0 -71 -23q-3 -21 -3 -42q0 -64 52 -64q26 0 45 16t25 48z" />
    <glyph glyph-name="fivesixths" unicode="&#xf505;" horiz-adv-x="825" 
d="M326 -9l-73 36l403 627l75 -35zM809 408l7 -63q-132 -15 -167 -119q51 28 98 28t72.5 -26.5t25.5 -70.5q0 -19 -3 -34q-10 -58 -52.5 -93t-108.5 -35q-63 0 -94.5 35t-31.5 96q0 32 5 62q16 89 75.5 148t173.5 72zM760 125q2 14 2 20q0 45 -50 45q-36 0 -71 -23
q-3 -21 -3 -42q0 -64 52 -64q26 0 45 16t25 48zM145 449l63 202h207l-12 -68h-147l-26 -78q151 -3 151 -107q0 -57 -39 -99.5t-128 -42.5q-78 0 -127 34l35 63q44 -28 93 -28q40 0 58.5 18t18.5 46q0 37 -35 48.5t-112 11.5z" />
    <glyph glyph-name="oneseventh" unicode="&#xf506;" horiz-adv-x="825" 
d="M106 331h75l40 228l-88 -36l-18 57l137 71h80l-18 -68l-45 -252h70l-13 -70h-232zM304 -9l-73 36l403 627l75 -35zM590 323l12 67h278l-10 -57q-152 -114 -187 -312l-4 -21h-85l5 26q32 182 162 297h-171z" />
    <glyph glyph-name="twosevenths" unicode="&#xf507;" horiz-adv-x="825" 
d="M162 543l-35 56q84 58 160 58q53 0 80 -27t27 -69q0 -35 -16.5 -65t-57.5 -67l-106 -96h154l-13 -72h-274l10 58l152 139q57 52 57 90q0 34 -39 34q-40 0 -99 -39zM320 -9l-73 36l403 627l75 -35zM595 323l12 67h278l-10 -57q-152 -114 -187 -312l-4 -21h-85l5 26
q32 182 162 297h-171z" />
    <glyph glyph-name="threesevenths" unicode="&#xf508;" horiz-adv-x="825" 
d="M163 556l-27 54q80 47 155 47q49 0 75.5 -23t26.5 -60q0 -61 -61 -98q31 -56 31 -97q0 -53 -37.5 -88t-117.5 -35q-77 0 -129 32l33 62q45 -26 95 -26q68 0 68 53q0 22 -17 62q-38 -13 -82 -21l-14 60q100 21 127 45q14 13 14 29q0 35 -40 35q-34 0 -100 -31zM301 -9
l-73 36l403 627l75 -35zM595 323l12 67h278l-10 -57q-152 -114 -187 -312l-4 -21h-85l5 26q32 182 162 297h-171z" />
    <glyph glyph-name="foursevenths" unicode="&#xf509;" horiz-adv-x="825" 
d="M305 516h55l-19 -104h61l-11 -66h-61l-16 -85h-87l15 87h-162l10 53l168 261l68 -33l-144 -217h73zM327 -9l-73 36l403 627l75 -35zM607 323l12 67h278l-10 -57q-152 -114 -187 -312l-4 -21h-85l5 26q32 182 162 297h-171z" />
    <glyph glyph-name="fivesevenths" unicode="&#xf50a;" horiz-adv-x="825" 
d="M137 449l63 202h207l-12 -68h-147l-26 -78q151 -3 151 -107q0 -57 -39 -99.5t-128 -42.5q-78 0 -127 34l35 63q44 -28 93 -28q40 0 58.5 18t18.5 46q0 37 -35 48.5t-112 11.5zM312 -9l-73 36l403 627l75 -35zM597 323l12 67h278l-10 -57q-152 -114 -187 -312l-4 -21h-85
l5 26q32 182 162 297h-171z" />
    <glyph glyph-name="sixsevenths" unicode="&#xf50b;" horiz-adv-x="825" 
d="M343 669l7 -63q-132 -15 -167 -119q51 28 98 28t72.5 -26.5t25.5 -70.5q0 -19 -3 -34q-10 -58 -52.5 -93t-108.5 -35q-63 0 -94.5 35t-31.5 96q0 32 5 62q16 89 75.5 148t173.5 72zM294 386q2 14 2 20q0 45 -50 45q-36 0 -71 -23q-3 -21 -3 -42q0 -64 52 -64q26 0 45 16
t25 48zM308 -9l-73 36l403 627l75 -35zM594 323l12 67h278l-10 -57q-152 -114 -187 -312l-4 -21h-85l5 26q32 182 162 297h-171z" />
    <glyph glyph-name="oneninth" unicode="&#xf50c;" horiz-adv-x="825" 
d="M104 331h75l40 228l-88 -36l-18 57l137 71h80l-18 -68l-45 -252h70l-13 -70h-232zM309 -9l-73 36l403 627l75 -35zM608 -19l-6 65q65 9 108.5 41.5t57.5 74.5q-50 -25 -97 -25t-72.5 26.5t-25.5 70.5q0 20 3 35q11 58 53 92.5t107 34.5q63 0 95 -35.5t32 -97.5
q0 -40 -3 -59q-28 -196 -252 -223zM657 267q-1 -7 -1 -21q0 -45 51 -45q39 0 68 21q4 28 4 41q0 66 -50 66q-61 0 -72 -62z" />
    <glyph glyph-name="twoninths" unicode="&#xf50d;" horiz-adv-x="825" 
d="M166 543l-35 56q84 58 160 58q53 0 80 -27t27 -69q0 -35 -16.5 -65t-57.5 -67l-106 -96h154l-13 -72h-274l10 58l152 139q57 52 57 90q0 34 -39 34q-40 0 -99 -39zM333 -9l-73 36l403 627l75 -35zM614 -19l-6 65q65 9 108.5 41.5t57.5 74.5q-50 -25 -97 -25t-72.5 26.5
t-25.5 70.5q0 20 3 35q11 58 53 92.5t107 34.5q63 0 95 -35.5t32 -97.5q0 -40 -3 -59q-28 -196 -252 -223zM663 267q-1 -7 -1 -21q0 -45 51 -45q39 0 68 21q4 28 4 41q0 66 -50 66q-61 0 -72 -62z" />
    <glyph glyph-name="fourninths" unicode="&#xf50e;" horiz-adv-x="825" 
d="M306 516h55l-19 -104h61l-11 -66h-61l-16 -85h-87l15 87h-162l10 53l168 261l68 -33l-144 -217h73zM325 -9l-73 36l403 627l75 -35zM614 -19l-6 65q65 9 108.5 41.5t57.5 74.5q-50 -25 -97 -25t-72.5 26.5t-25.5 70.5q0 20 3 35q11 58 53 92.5t107 34.5q63 0 95 -35.5
t32 -97.5q0 -40 -3 -59q-28 -196 -252 -223zM663 267q-1 -7 -1 -21q0 -45 51 -45q39 0 68 21q4 28 4 41q0 66 -50 66q-61 0 -72 -62z" />
    <glyph glyph-name="fiveninths" unicode="&#xf50f;" horiz-adv-x="825" 
d="M138 449l63 202h207l-12 -68h-147l-26 -78q151 -3 151 -107q0 -57 -39 -99.5t-128 -42.5q-78 0 -127 34l35 63q44 -28 93 -28q40 0 58.5 18t18.5 46q0 37 -35 48.5t-112 11.5zM307 -9l-73 36l403 627l75 -35zM595 -19l-6 65q65 9 108.5 41.5t57.5 74.5q-50 -25 -97 -25
t-72.5 26.5t-25.5 70.5q0 20 3 35q11 58 53 92.5t107 34.5q63 0 95 -35.5t32 -97.5q0 -40 -3 -59q-28 -196 -252 -223zM644 267q-1 -7 -1 -21q0 -45 51 -45q39 0 68 21q4 28 4 41q0 66 -50 66q-61 0 -72 -62z" />
    <glyph glyph-name="sevenninths" unicode="&#xf510;" horiz-adv-x="825" 
d="M133 584l12 67h278l-10 -57q-152 -114 -187 -312l-4 -21h-85l5 26q32 182 162 297h-171zM253 -9l-73 36l403 627l75 -35zM579 -19l-6 65q65 9 108.5 41.5t57.5 74.5q-50 -25 -97 -25t-72.5 26.5t-25.5 70.5q0 20 3 35q11 58 53 92.5t107 34.5q63 0 95 -35.5t32 -97.5
q0 -40 -3 -59q-28 -196 -252 -223zM628 267q-1 -7 -1 -21q0 -45 51 -45q39 0 68 21q4 28 4 41q0 66 -50 66q-61 0 -72 -62z" />
    <glyph glyph-name="eightninths" unicode="&#xf511;" horiz-adv-x="825" 
d="M88 345q0 83 104 124q-53 28 -53 79q0 44 39.5 76.5t105.5 32.5q59 0 86.5 -23t27.5 -56q0 -25 -13 -46t-27 -32.5t-39 -27.5q59 -33 59 -89q0 -50 -40.5 -88.5t-121.5 -38.5q-67 0 -97.5 26t-30.5 63zM295 371q0 38 -51 60q-30 -11 -51 -31t-21 -43q0 -40 56 -40
q30 0 48.5 16.5t18.5 37.5zM274 600q-27 0 -41.5 -13t-14.5 -30q0 -32 44 -54q22 11 39 30t17 36q0 31 -44 31zM309 -9l-73 36l403 627l75 -35zM595 -19l-6 65q65 9 108.5 41.5t57.5 74.5q-50 -25 -97 -25t-72.5 26.5t-25.5 70.5q0 20 3 35q11 58 53 92.5t107 34.5
q63 0 95 -35.5t32 -97.5q0 -40 -3 -59q-28 -196 -252 -223zM644 267q-1 -7 -1 -21q0 -45 51 -45q39 0 68 21q4 28 4 41q0 66 -50 66q-61 0 -72 -62z" />
    <glyph glyph-name="zero.tosf" unicode="&#xf81e;" 
d="M352 518q92 0 146 -55t54 -151q0 -36 -4 -62q-18 -130 -96 -198t-191 -68q-98 0 -148.5 55.5t-50.5 147.5q0 39 6 75q23 130 98.5 193t185.5 63zM273 74q120 0 150 175q6 33 6 65q0 56 -24.5 84.5t-67.5 28.5q-122 0 -149 -174q-5 -33 -5 -64q0 -57 23.5 -86t66.5 -29z
" />
    <glyph glyph-name="one.tosf" unicode="&#xf81f;" 
d="M136 92h121l49 280l-142 -67l-30 78l218 120h106l-25 -94l-55 -317h119l-17 -92h-361z" />
    <glyph glyph-name="two.tosf" unicode="&#xf820;" 
d="M169 342l-53 72q121 104 245 104q79 0 123 -38t44 -105q0 -66 -34 -111.5t-113 -95.5l-119 -76h242l-16 -92h-437l12 74l216 141q71 45 97.5 76.5t26.5 68.5q0 27 -17.5 43t-50.5 16q-66 0 -166 -77z" />
    <glyph glyph-name="three.tosf" unicode="&#xf821;" 
d="M403 219q65 -75 65 -147q0 -214 -408 -250l-5 93q66 7 114.5 17.5t90.5 27t64 43t22 61.5q0 49 -43 97q-49 -19 -117 -33l-17 86q25 6 42 10.5t44.5 13.5t46.5 20t38 25.5t29 34t10 42.5q0 57 -60 57q-61 0 -159 -60l-43 76q116 85 237 85q75 0 115.5 -37.5t40.5 -96.5
q0 -104 -107 -165z" />
    <glyph glyph-name="four.tosf" unicode="&#xf822;" 
d="M403 295h80l-34 -200h89l-17 -95h-90l-28 -157h-120l29 157h-275l15 88l272 425l91 -47l-234 -371h147l13 66z" />
    <glyph glyph-name="five.tosf" unicode="&#xf823;" 
d="M120 179l99 324h324l-17 -93h-225l-44 -144q99 -5 160 -44.5t61 -121.5q0 -122 -110 -194t-314 -86l-7 93q304 29 304 176q0 93 -163 93q-11 0 -68 -3z" />
    <glyph glyph-name="six.tosf" unicode="&#xf824;" 
d="M491 671l9 -92q-106 -18 -176 -72.5t-96 -138.5q78 42 152 42q68 0 105 -42.5t37 -107.5q0 -38 -3 -56q-15 -102 -81 -158.5t-172 -56.5q-92 0 -136 56t-44 149q0 58 8 102q59 329 397 375zM402 208q3 18 3 32q0 85 -72 85q-26 0 -63.5 -12t-57.5 -27q-9 -39 -9 -95
q0 -110 79 -110q46 0 78 30.5t42 96.5z" />
    <glyph glyph-name="seven.tosf" unicode="&#xf825;" 
d="M101 405l17 98h433l-15 -83l-391 -577h-127l382 562h-299z" />
    <glyph glyph-name="eight.tosf" unicode="&#xf826;" 
d="M77 135q0 38 14 71.5t39.5 59t48 42t52.5 33.5q-75 54 -75 129q0 80 62 133.5t164 53.5q86 0 127.5 -38t41.5 -93q0 -100 -124 -178q91 -61 91 -148q0 -89 -64 -150t-189 -61q-97 0 -142.5 43t-45.5 103zM391 183q0 63 -84 110q-114 -64 -114 -140q0 -33 21 -54.5
t65 -21.5q51 0 81.5 30.5t30.5 75.5zM370 574q-44 0 -70.5 -24.5t-26.5 -61.5q0 -56 73 -97q95 58 95 122q0 28 -19.5 44.5t-51.5 16.5z" />
    <glyph glyph-name="nine.tosf" unicode="&#xf827;" 
d="M125 -157l-10 90q105 17 175.5 69t94.5 136q-60 -43 -140 -43q-75 0 -115.5 43.5t-40.5 119.5q0 112 68 186t185 74q96 0 141 -58.5t45 -158.5q0 -61 -12 -118.5t-41.5 -115.5t-74 -103t-115.5 -78t-160 -43zM209 267q0 -41 20 -64.5t59 -23.5q28 0 60.5 12t55.5 31
q7 41 7 86q0 117 -82 117q-51 0 -85.5 -41.5t-34.5 -116.5z" />
    <glyph glyph-name="ampersand.2" horiz-adv-x="740" 
d="M401 575q-67 0 -104 -29.5t-37 -81.5q0 -37 13 -62q62 38 122 38q53 0 79.5 -27.5t26.5 -75.5q0 -52 -40 -85t-96 -33q-73 0 -128 43q-31 -43 -31 -82q0 -40 38.5 -66t118.5 -26q83 0 148.5 42.5t65.5 120.5q0 39 -35 92l25 88h209l-15 -90h-84q24 -46 24 -97
q0 -82 -51.5 -142t-131 -88t-174.5 -28q-261 0 -261 180q0 101 86 172q-29 41 -29 109q0 102 79 166t197 64q77 0 134 -31t86 -87l-96 -59q-49 75 -139 75zM404 338q0 27 -38 27q-39 0 -71 -26q23 -35 64 -35q45 0 45 34z" />
    <glyph glyph-name="A_swash" horiz-adv-x="970" 
d="M576 176l-90 -176q-63 -123 -140.5 -185.5t-193.5 -62.5q-95 0 -141.5 50t-46.5 121q0 84 55 137.5t145 53.5q53 0 85 -29t32 -75q0 -64 -74 -116l-50 39q29 29 29 52q0 15 -9.5 26.5t-30.5 11.5q-36 0 -55 -24t-19 -62q0 -36 24 -60.5t67 -24.5q71 0 115.5 41t90.5 130
l329 642h144l116 -665h-120l-28 176h-234zM754 553l-141 -285h185l-39 285h-5z" />
    <glyph glyph-name="P_swash" horiz-adv-x="568" 
d="M233 233l-27 -153q-22 -126 -91 -189t-197 -63q-99 0 -146.5 50.5t-47.5 121.5q0 81 52 135.5t143 54.5q54 0 87 -29.5t33 -75.5q0 -66 -74 -115l-46 39q32 28 32 53q0 15 -10.5 26t-31.5 11q-34 0 -53 -26.5t-19 -60.5q0 -81 89 -81q71 0 107.5 39t50.5 115l103 580h225
q99 0 154 -44.5t55 -127.5q0 -124 -81.5 -192t-218.5 -68h-88zM250 330h72q171 0 171 148q0 55 -33 72.5t-97 17.5h-71z" />
    <glyph glyph-name="Q.alt" horiz-adv-x="659" 
d="M398 576q-78 0 -118.5 -40t-40.5 -96q0 -46 20.5 -71t72.5 -41l-25 -81q-80 9 -135 55t-55 128q0 110 81 178.5t219 68.5q114 0 181 -63.5t67 -188.5q0 -178 -135 -341q61 -67 113.5 -101.5t131.5 -47.5l-41 -93q-156 21 -280 166q-103 -85 -225 -85q-79 0 -115.5 37.5
t-36.5 88.5q0 73 45.5 112.5t132.5 39.5q47 0 97.5 -16t87.5 -42q43 52 70 123.5t27 142.5q0 167 -139 167zM376 70q-64 43 -120 43q-29 0 -47.5 -13t-18.5 -40q0 -48 59 -48q61 0 127 58z" />
    <glyph glyph-name="Q_u" horiz-adv-x="1202" 
d="M678 323q-10 -68 -38.5 -124t-68.5 -93.5t-84 -62.5t-93 -38l-2 -8q75 10 149 -7t125 -43.5t118.5 -50t127.5 -23.5q84 0 157 46l38 -83q-92 -61 -213 -61q-62 0 -133.5 22t-126.5 48.5t-131 48.5t-146 22q-47 0 -121 -14l36 91q-86 16 -132.5 79.5t-46.5 167.5
q0 62 9 110q13 76 41.5 134.5t63 94t78.5 58.5t84.5 31.5t83.5 8.5q104 0 168.5 -65t64.5 -188q0 -50 -8 -101zM1109 503h119l-74 -419l-7 -84h-102l2 58l-6 1q-56 -73 -153 -73q-139 0 -139 130q0 20 5 50l59 337h119l-56 -319q-5 -25 -5 -44q0 -62 65 -62q41 0 74.5 30
t40.5 70zM229 343q-9 -52 -9 -91q0 -163 131 -163q84 0 133 66.5t67 168.5q7 44 7 81q0 73 -28.5 121t-94.5 48q-84 0 -136.5 -66t-69.5 -165z" />
    <glyph glyph-name="S.alt" horiz-adv-x="638" 
d="M623 79q0 -93 -51 -159.5t-128 -97t-168 -30.5q-51 0 -94.5 10.5t-80 34t-57.5 65.5t-21 99q0 91 61.5 147t147.5 56q63 0 100 -34.5t37 -88.5t-35 -86.5t-89 -32.5q-51 0 -74 22l30 53q13 -6 30 -6q18 0 28 11.5t11 25.5q1 20 -11.5 32.5t-35.5 12.5q-41 0 -65.5 -28
t-24.5 -76q0 -115 160 -115q85 0 143.5 42t58.5 125q0 19 -3.5 35.5t-14.5 33l-18 26.5t-26.5 26l-27 22t-32.5 23.5l-31 21.5q-62 45 -95.5 90t-33.5 114q0 104 75 164t187 60q70 0 127 -26t90 -68l-79 -81q-73 71 -158 71q-48 0 -80 -25.5t-32 -75.5q0 -32 18 -62
t38.5 -48t58.5 -46l48 -37t42 -37t41 -47t23 -51t11 -65z" />
    <glyph glyph-name="e.swash" horiz-adv-x="867" 
d="M368 518q67 0 105.5 -32t38.5 -85q0 -42 -16 -75t-44 -54t-60 -35t-71 -21t-68.5 -10t-61.5 -3q20 -123 238 -123q40 0 78 3t90 13.5t89.5 28t64 50.5t26.5 77q0 35 -16 53.5t-45 18.5q-31 0 -50 -16.5t-19 -43.5q0 -18 10 -28.5t25 -10.5q14 0 33 8l13 -55
q-30 -24 -77 -24q-49 0 -76.5 29.5t-27.5 74.5q0 70 54 109.5t123 39.5q77 0 115 -40t38 -105q0 -64 -28 -113.5t-72 -79.5t-105.5 -49.5t-121.5 -26.5t-127 -7q-76 0 -137 12.5t-109.5 39t-75 73t-26.5 109.5q0 116 81.5 207t211.5 91zM403 385q0 23 -14.5 35t-38.5 12
q-57 0 -94 -44.5t-50 -102.5q26 0 56 3.5t63.5 13.5t55.5 31.5t22 51.5z" />
    <glyph glyph-name="g.alt2" horiz-adv-x="534" 
d="M557 481l-101 -570q-23 -126 -87.5 -185t-184.5 -59q-93 0 -135.5 44t-42.5 108q0 69 51 113t124 44q62 0 90.5 -37.5t23.5 -89.5l-79 -23q-2 33 -11.5 48.5t-33.5 15.5q-25 0 -41.5 -17t-16.5 -43q0 -32 22 -49.5t62 -17.5q64 0 95.5 38t44.5 111l26 145h-3
q-52 -49 -128 -49q-75 0 -115.5 50t-40.5 143q0 145 80 231t216 86q98 0 185 -37zM384 175l43 245q-33 7 -55 7q-81 0 -129.5 -54t-48.5 -166t77 -112q44 0 76 26t37 54z" />
    <glyph glyph-name="t.alt" horiz-adv-x="421" 
d="M342 503h135l-16 -93h-135l-45 -254q-3 -17 -3 -34q1 -28 12.5 -37t38.5 -9q35 0 75 22l24 -77q-24 -16 -64.5 -26t-76.5 -10q-130 0 -132 104q0 24 7 68l45 253q-82 9 -124.5 52t-42.5 106q0 76 49 121t131 45q63 0 100 -31t37 -91q0 -16 -3 -36zM194 647
q-27 0 -41.5 -18.5t-14.5 -50.5q0 -72 85 -75l12 67q3 15 3 27q0 50 -44 50z" />
    <glyph glyph-name="hyphen.case" horiz-adv-x="322" 
d="M78 280l16 92h262l-16 -92h-262z" />
    <glyph glyph-name="zero.num" horiz-adv-x="377" 
d="M299 657q64 0 99.5 -36t35.5 -105q0 -32 -5 -62q-32 -198 -192 -198q-67 0 -102 36.5t-35 106.5q0 34 5 65q16 100 68 146.5t126 46.5zM244 326q36 0 60 27t37 99q5 29 5 60q0 76 -56 76q-38 0 -61.5 -29t-36.5 -101q-5 -26 -5 -58q0 -74 57 -74z" />
    <glyph glyph-name="one.num" horiz-adv-x="332" 
d="M128 331h75l40 228l-88 -36l-18 57l137 71h80l-18 -68l-45 -252h70l-13 -70h-232z" />
    <glyph glyph-name="two.num" horiz-adv-x="364" 
d="M168 543l-35 56q84 58 160 58q53 0 80 -27t27 -69q0 -35 -16.5 -65t-57.5 -67l-106 -96h154l-13 -72h-274l10 58l152 139q57 52 57 90q0 34 -39 34q-40 0 -99 -39z" />
    <glyph glyph-name="three.num" horiz-adv-x="348" 
d="M164 556l-27 54q80 47 155 47q49 0 75.5 -23t26.5 -60q0 -61 -61 -98q31 -56 31 -97q0 -53 -37.5 -88t-117.5 -35q-77 0 -129 32l33 62q45 -26 95 -26q68 0 68 53q0 22 -17 62q-38 -13 -82 -21l-14 60q100 21 127 45q14 13 14 29q0 35 -40 35q-34 0 -100 -31z" />
    <glyph glyph-name="four.num" horiz-adv-x="364" 
d="M319 516h55l-19 -104h61l-11 -66h-61l-16 -85h-87l15 87h-162l10 53l168 261l68 -33l-144 -217h73z" />
    <glyph glyph-name="five.num" horiz-adv-x="353" 
d="M143 449l63 202h207l-12 -68h-147l-26 -78q151 -3 151 -107q0 -57 -39 -99.5t-128 -42.5q-78 0 -127 34l35 63q44 -28 93 -28q40 0 58.5 18t18.5 46q0 37 -35 48.5t-112 11.5z" />
    <glyph glyph-name="six.num" horiz-adv-x="377" 
d="M374 669l7 -63q-132 -15 -167 -119q51 28 98 28t72.5 -26.5t25.5 -70.5q0 -19 -3 -34q-10 -58 -52.5 -93t-108.5 -35q-63 0 -94.5 35t-31.5 96q0 32 5 62q16 89 75.5 148t173.5 72zM325 386q2 14 2 20q0 45 -50 45q-36 0 -71 -23q-3 -21 -3 -42q0 -64 52 -64q26 0 45 16
t25 48z" />
    <glyph glyph-name="seven.num" horiz-adv-x="315" 
d="M116 584l12 67h278l-10 -57q-152 -114 -187 -312l-4 -21h-85l5 26q32 182 162 297h-171z" />
    <glyph glyph-name="eight.num" horiz-adv-x="360" 
d="M101 345q0 83 104 124q-53 28 -53 79q0 44 39.5 76.5t105.5 32.5q59 0 86.5 -23t27.5 -56q0 -25 -13 -46t-27 -32.5t-39 -27.5q59 -33 59 -89q0 -50 -40.5 -88.5t-121.5 -38.5q-67 0 -97.5 26t-30.5 63zM308 371q0 38 -51 60q-30 -11 -51 -31t-21 -43q0 -40 56 -40
q30 0 48.5 16.5t18.5 37.5zM287 600q-27 0 -41.5 -13t-14.5 -30q0 -32 44 -54q22 11 39 30t17 36q0 31 -44 31z" />
    <glyph glyph-name="nine.num" horiz-adv-x="370" 
d="M156 242l-6 65q65 9 108.5 41.5t57.5 74.5q-50 -25 -97 -25t-72.5 26.5t-25.5 70.5q0 20 3 35q11 58 53 92.5t107 34.5q63 0 95 -35.5t32 -97.5q0 -40 -3 -59q-28 -196 -252 -223zM205 528q-1 -7 -1 -21q0 -45 51 -45q39 0 68 21q4 28 4 41q0 66 -50 66q-61 0 -72 -62z
" />
    <glyph glyph-name="zero.denom" horiz-adv-x="377" 
d="M256 396q64 0 99.5 -36t35.5 -105q0 -32 -5 -62q-32 -198 -192 -198q-67 0 -102 36.5t-35 106.5q0 34 5 65q16 100 68 146.5t126 46.5zM201 65q36 0 60 27t37 99q5 29 5 60q0 76 -56 76q-38 0 -61.5 -29t-36.5 -101q-5 -26 -5 -58q0 -74 57 -74z" />
    <glyph glyph-name="one.denom" horiz-adv-x="332" 
d="M85 70h75l40 228l-88 -36l-18 57l137 71h80l-18 -68l-45 -252h70l-13 -70h-232z" />
    <glyph glyph-name="two.denom" horiz-adv-x="364" 
d="M125 282l-35 56q84 58 160 58q53 0 80 -27t27 -69q0 -35 -16.5 -65t-57.5 -67l-106 -96h154l-13 -72h-274l10 58l152 139q57 52 57 90q0 34 -39 34q-40 0 -99 -39z" />
    <glyph glyph-name="three.denom" horiz-adv-x="348" 
d="M121 295l-27 54q80 47 155 47q49 0 75.5 -23t26.5 -60q0 -61 -61 -98q31 -56 31 -97q0 -53 -37.5 -88t-117.5 -35q-77 0 -129 32l33 62q45 -26 95 -26q68 0 68 53q0 22 -17 62q-38 -13 -82 -21l-14 60q100 21 127 45q14 13 14 29q0 35 -40 35q-34 0 -100 -31z" />
    <glyph glyph-name="four.denom" horiz-adv-x="364" 
d="M276 255h55l-19 -104h61l-11 -66h-61l-16 -85h-87l15 87h-162l10 53l168 261l68 -33l-144 -217h73z" />
    <glyph glyph-name="five.denom" horiz-adv-x="353" 
d="M100 188l63 202h207l-12 -68h-147l-26 -78q151 -3 151 -107q0 -57 -39 -99.5t-128 -42.5q-78 0 -127 34l35 63q44 -28 93 -28q40 0 58.5 18t18.5 46q0 37 -35 48.5t-112 11.5z" />
    <glyph glyph-name="six.denom" horiz-adv-x="377" 
d="M331 408l7 -63q-132 -15 -167 -119q51 28 98 28t72.5 -26.5t25.5 -70.5q0 -19 -3 -34q-10 -58 -52.5 -93t-108.5 -35q-63 0 -94.5 35t-31.5 96q0 32 5 62q16 89 75.5 148t173.5 72zM282 125q2 14 2 20q0 45 -50 45q-36 0 -71 -23q-3 -21 -3 -42q0 -64 52 -64q26 0 45 16
t25 48z" />
    <glyph glyph-name="seven.denom" horiz-adv-x="315" 
d="M73 323l12 67h278l-10 -57q-152 -114 -187 -312l-4 -21h-85l5 26q32 182 162 297h-171z" />
    <glyph glyph-name="eight.denom" horiz-adv-x="360" 
d="M58 84q0 83 104 124q-53 28 -53 79q0 44 39.5 76.5t105.5 32.5q59 0 86.5 -23t27.5 -56q0 -25 -13 -46t-27 -32.5t-39 -27.5q59 -33 59 -89q0 -50 -40.5 -88.5t-121.5 -38.5q-67 0 -97.5 26t-30.5 63zM265 110q0 38 -51 60q-30 -11 -51 -31t-21 -43q0 -40 56 -40
q30 0 48.5 16.5t18.5 37.5zM244 339q-27 0 -41.5 -13t-14.5 -30q0 -32 44 -54q22 11 39 30t17 36q0 31 -44 31z" />
    <glyph glyph-name="nine.denom" horiz-adv-x="370" 
d="M114 -19l-6 65q65 9 108.5 41.5t57.5 74.5q-50 -25 -97 -25t-72.5 26.5t-25.5 70.5q0 20 3 35q11 58 53 92.5t107 34.5q63 0 95 -35.5t32 -97.5q0 -40 -3 -59q-28 -196 -252 -223zM163 267q-1 -7 -1 -21q0 -45 51 -45q39 0 68 21q4 28 4 41q0 66 -50 66q-61 0 -72 -62z
" />
    <glyph glyph-name="commaaccent" horiz-adv-x="500" 
d="M100 -260l94 199q78 -2 78 -39q0 -18 -25 -53q-11 -15 -107 -128z" />
    <glyph glyph-name="revcommaaccent" horiz-adv-x="500" 
d="M463 763l-95 -200q-78 5 -78 40q0 18 25 53q16 22 107 129z" />
    <glyph glyph-name="tilde.cap" horiz-adv-x="500" 
d="M241 733l4 74q44 29 88 29q27 0 68 -13t63 -13q32 0 65 18l-5 -79q-38 -18 -71 -18q-23 0 -69 11t-65 11q-38 0 -78 -20z" />
    <glyph glyph-name="ring.cap" horiz-adv-x="500" 
d="M282 750q0 44 31.5 75.5t79.5 31.5q40 0 61 -22.5t21 -57.5q0 -45 -31 -75.5t-80 -30.5q-40 0 -61 22t-21 57zM385 805q-18 0 -30.5 -14t-12.5 -35q0 -34 31 -34q19 0 31 14.5t12 36.5q0 32 -31 32z" />
    <glyph glyph-name="circumflex.cap" horiz-adv-x="500" 
d="M259 709l-38 35q76 76 131 120q30 24 53 24q22 0 48 -29q43 -48 86 -115l-41 -34l-104 90z" />
    <glyph glyph-name="acute.cap" horiz-adv-x="500" 
d="M276 748l181 148q49 -31 49 -61q0 -29 -50 -56q-17 -9 -152 -70z" />
    <glyph glyph-name="grave.cap" horiz-adv-x="500" 
d="M357 902l140 -158l-33 -35l-136 81q-31 20 -31 45q0 35 60 67z" />
    <glyph glyph-name="dieresis.cap" horiz-adv-x="500" 
d="M422 773q0 29 22 50t54 21q24 0 38.5 -15t14.5 -37q0 -29 -22.5 -50t-53.5 -21q-24 0 -38.5 14.5t-14.5 37.5zM227 773q0 29 22 50t54 21q24 0 38.5 -15t14.5 -37q0 -29 -22.5 -50t-53.5 -21q-24 0 -38.5 14.5t-14.5 37.5z" />
    <glyph glyph-name="caron.cap" horiz-adv-x="500" 
d="M283 888l103 -92l136 95l37 -37q-55 -59 -123 -113q-37 -32 -62 -32q-26 0 -51 31q-51 62 -83 114z" />
    <glyph glyph-name="macron.cap" horiz-adv-x="500" 
d="M234 734l16 87h287l-16 -87h-287z" />
    <glyph glyph-name="dotaccent.cap" horiz-adv-x="500" 
d="M312 783q0 32 23.5 54.5t57.5 22.5q26 0 42.5 -16t16.5 -40q0 -33 -24 -55t-58 -22q-27 0 -42.5 15.5t-15.5 40.5z" />
    <glyph glyph-name="cedilla.cap" horiz-adv-x="500" 
d="M213 3h57l-32 -69q36 -2 58 -22t22 -53q0 -53 -39.5 -76.5t-92.5 -23.5q-56 0 -91 19l25 54q30 -14 65 -14q56 0 56 37t-84 35z" />
    <glyph glyph-name="hungarumlaut.cap" horiz-adv-x="500" 
d="M213 749l176 145q43 -33 43 -59q0 -28 -50 -55q-42 -25 -147 -70zM402 749l175 144q44 -31 44 -58q0 -29 -50 -55q-85 -46 -147 -70z" />
    <glyph glyph-name="commaaccent.cap" horiz-adv-x="500" 
d="M100 -260l94 199q78 -2 78 -39q0 -18 -25 -53q-11 -15 -107 -128z" />
    <glyph glyph-name="breve.cap" horiz-adv-x="500" 
d="M500 876l70 -30q-59 -126 -188 -126q-71 0 -107 36t-42 88l75 29q17 -77 86 -77q37 0 60.5 18.5t45.5 61.5z" />
    <glyph glyph-name="caron.alt" horiz-adv-x="252" 
d="M171 479l37 209q28 7 52 7q41 0 41 -33q0 -37 -83 -193z" />
    <glyph glyph-name="ogonek.cap" horiz-adv-x="500" 
d="M228 2l83 -1q-35 -26 -65 -66.5t-30 -69.5q0 -31 33 -31q25 0 52 11l10 -65q-42 -21 -96 -21q-48 0 -70 22t-22 55q0 78 105 166z" />
    <glyph glyph-name="zero.tf" 
d="M387 657q86 0 133.5 -57.5t47.5 -166.5q0 -69 -9 -121q-30 -172 -103.5 -247t-192.5 -75q-184 0 -184 215q0 65 11 131q29 165 106.5 243t190.5 78zM282 86q56 0 95.5 49t63.5 181q8 46 8 120q0 123 -82 123q-57 0 -96 -52.5t-62 -186.5q-10 -55 -10 -114q0 -120 83 -120
z" />
    <glyph glyph-name="one.tf" 
d="M138 92h118l74 423l-144 -69l-30 77l218 121h106l-25 -94l-80 -458h114l-17 -92h-351z" />
    <glyph glyph-name="two.tf" 
d="M196 480l-53 79q115 98 238 98q78 0 122 -41.5t44 -107.5q0 -61 -28.5 -114t-90.5 -110l-205 -187h283l-18 -97h-444l14 77l262 247q52 49 75 83.5t23 74.5q0 32 -19.5 50t-49.5 18q-62 0 -153 -70z" />
    <glyph glyph-name="three.tf" 
d="M187 485l-46 75q45 38 112.5 67.5t136.5 29.5q79 0 119 -38.5t40 -95.5q0 -54 -25.5 -94t-83.5 -75q63 -76 63 -154q0 -90 -62 -151t-185 -61q-59 0 -114.5 16t-87.5 37l49 91q30 -19 73.5 -31.5t82.5 -12.5q54 0 88.5 28t34.5 78q0 52 -40 101q-42 -17 -118 -33l-18 88
q110 26 164 57t54 88q0 28 -18.5 43.5t-49.5 15.5q-69 0 -169 -69z" />
    <glyph glyph-name="four.tf" 
d="M434 436h75l-34 -187h90l-16 -95h-90l-27 -154h-121l28 155h-266l14 83l273 421l90 -47l-235 -363h146l13 69z" />
    <glyph glyph-name="five.tf" 
d="M142 303l103 341h330l-18 -99h-235l-49 -160q101 -6 164 -48.5t63 -132.5t-61.5 -152.5t-194.5 -62.5q-57 0 -115.5 17.5t-84.5 37.5l52 92q78 -48 152 -48q64 0 95.5 31t31.5 79q0 24 -9.5 42.5t-30 29.5t-38.5 17.5t-51 10t-51 4z" />
    <glyph glyph-name="six.tf" 
d="M503 671l9 -92q-106 -18 -176 -72.5t-96 -138.5q78 42 152 42q68 0 105 -42.5t37 -107.5q0 -38 -3 -56q-15 -102 -81 -158.5t-172 -56.5q-92 0 -136 56t-44 149q0 58 8 102q59 329 397 375zM414 208q3 18 3 32q0 85 -72 85q-26 0 -63.5 -12t-57.5 -27q-9 -39 -9 -95
q0 -110 79 -110q46 0 78 30.5t42 96.5z" />
    <glyph glyph-name="seven.tf" 
d="M166 545l18 99h430l-15 -83q-249 -182 -307 -513l-8 -48h-126l10 56q53 300 272 489h-274z" />
    <glyph glyph-name="eight.tf" 
d="M77 135q0 38 14 71.5t39.5 59t48 42t52.5 33.5q-75 54 -75 129q0 80 62 133.5t164 53.5q86 0 127.5 -38t41.5 -93q0 -100 -124 -178q91 -61 91 -148q0 -89 -64 -150t-189 -61q-97 0 -142.5 43t-45.5 103zM391 183q0 63 -84 110q-114 -64 -114 -140q0 -33 21 -54.5
t65 -21.5q51 0 81.5 30.5t30.5 75.5zM370 574q-44 0 -70.5 -24.5t-26.5 -61.5q0 -56 73 -97q95 58 95 122q0 28 -19.5 44.5t-51.5 16.5z" />
    <glyph glyph-name="nine.tf" 
d="M146 -18l-10 90q105 17 175.5 69t94.5 136q-60 -43 -140 -43q-75 0 -115.5 43.5t-40.5 119.5q0 112 68 186t185 74q96 0 141 -58.5t45 -158.5q0 -61 -12 -118.5t-41.5 -115.5t-74 -103t-115.5 -78t-160 -43zM230 406q0 -41 20 -64.5t59 -23.5q28 0 60.5 12t55.5 31
q7 41 7 86q0 117 -82 117q-51 0 -85.5 -41.5t-34.5 -116.5z" />
    <glyph glyph-name="dollar.tf" 
d="M59 77l55 89q59 -43 122 -53l32 184q-2 0 -4 2q-31 13 -50.5 24t-42 29.5t-33.5 45t-11 60.5q0 86 55 137.5t149 58.5l17 93h75l-17 -97q93 -18 150 -84l-72 -72q-54 51 -95 60l-31 -175l6 -2q32 -14 51.5 -25t42.5 -30t34.5 -46t11.5 -62q0 -85 -56.5 -139t-154.5 -62
l-21 -121h-75l21 123q-50 6 -93.5 24.5t-65.5 37.5zM381 200q0 40 -43 66l-27 -150q70 17 70 84zM248 481q0 -42 41 -68l25 141q-66 -15 -66 -73z" />
    <glyph glyph-name="Euro.tf" 
d="M507 221l15 82h-435l-15 -82h105q-62 -39 -62 -107q0 -55 44 -91.5t142 -36.5q135 0 243 62l-35 85q-98 -54 -179 -54q-43 0 -66 17.5t-23 48.5q0 35 24 55.5t66 20.5h176zM543 422l-15 -82h-435l15 82h95q-22 25 -22 71q0 79 67.5 121.5t167.5 42.5q126 0 216 -90
l-67 -71q-42 35 -77 52t-82 17q-45 0 -77 -19t-32 -61q0 -28 18.5 -45.5t51.5 -17.5h176z" />
    <glyph glyph-name="cent.tf" 
d="M256 -60l18 106q-73 11 -112 65t-39 142q0 80 21 142t57 98.5t77.5 56t88.5 24.5l20 111h75l-20 -114q92 -17 130 -98l-82 -54q-26 45 -65 58l-59 -338q46 4 102 41l36 -81q-63 -46 -155 -55l-18 -104h-75zM245 266q0 -86 48 -115l56 321q-48 -18 -76 -72t-28 -134z" />
    <glyph glyph-name="sterling.tf" 
d="M52 143l14 84h101l92 237q43 110 96 151.5t137 41.5q96 0 159 -66l-69 -71q-43 43 -92 43q-45 0 -70.5 -25t-49.5 -88l-87 -223h159l-14 -83h-175l-32 -79q-36 -87 -104 -132v-2q45 14 80 14q31 0 86.5 -11.5t90.5 -11.5q49 0 97 13l-29 -97q-51 -9 -90 -9
q-48 0 -126.5 16t-123.5 16q-66 0 -138 -30l16 99q83 32 118 120l39 93h-85z" />
    <glyph glyph-name="yen.tf" 
d="M230 145h-153l13 76h154l13 75h-154l14 76h112l-95 272h120l78 -255h2l169 255h125l-193 -272h109l-13 -76h-153l-13 -75h152l-13 -76h-153l-25 -145h-121z" />
    <glyph glyph-name="florin.tf" horiz-adv-x="484" 
d="M108 294l32 95h109l29 87q30 93 75 137t138 44q78 0 144 -40l-47 -73q-40 22 -84 22q-75 0 -106 -88l-31 -89h148l-34 -95h-146l-110 -312q-36 -103 -80 -147.5t-134 -44.5q-89 0 -144 38l44 78q44 -25 89 -25q39 0 62.5 21t39.5 66l113 326h-107z" />
    <glyph glyph-name="zero.osf" horiz-adv-x="524" 
d="M352 518q92 0 146 -55t54 -151q0 -36 -4 -62q-18 -130 -96 -198t-191 -68q-98 0 -148.5 55.5t-50.5 147.5q0 39 6 75q23 130 98.5 193t185.5 63zM273 74q120 0 150 175q6 33 6 65q0 56 -24.5 84.5t-67.5 28.5q-122 0 -149 -174q-5 -33 -5 -64q0 -57 23.5 -86t66.5 -29z
" />
    <glyph glyph-name="one.osf" horiz-adv-x="466" 
d="M105 92h121l49 280l-142 -67l-30 78l218 120h106l-25 -94l-55 -317h119l-17 -92h-361z" />
    <glyph glyph-name="two.osf" horiz-adv-x="494" 
d="M145 342l-53 72q121 104 245 104q79 0 123 -38t44 -105q0 -66 -34 -111.5t-113 -95.5l-119 -76h242l-16 -92h-437l12 74l216 141q71 45 97.5 76.5t26.5 68.5q0 27 -17.5 43t-50.5 16q-66 0 -166 -77z" />
    <glyph glyph-name="three.osf" horiz-adv-x="476" 
d="M374 219q65 -75 65 -147q0 -214 -408 -250l-5 93q66 7 114.5 17.5t90.5 27t64 43t22 61.5q0 49 -43 97q-49 -19 -117 -33l-17 86q25 6 42 10.5t44.5 13.5t46.5 20t38 25.5t29 34t10 42.5q0 57 -60 57q-62 0 -159 -60l-43 76q116 85 237 85q75 0 115.5 -37.5t40.5 -96.5
q0 -104 -107 -165z" />
    <glyph glyph-name="four.osf" horiz-adv-x="518" 
d="M405 295h80l-34 -200h89l-17 -95h-90l-28 -157h-120l29 157h-275l15 88l272 425l91 -47l-234 -371h147l13 66z" />
    <glyph glyph-name="five.osf" horiz-adv-x="469" 
d="M89 179l99 324h324l-17 -93h-225l-44 -144q99 -5 160 -44.5t61 -121.5q0 -122 -110 -194t-314 -86l-7 93q304 29 304 176q0 93 -163 93q-11 0 -68 -3z" />
    <glyph glyph-name="six.osf" 
d="M501 671l9 -92q-106 -18 -176 -72.5t-96 -138.5q78 42 152 42q68 0 105 -42.5t37 -107.5q0 -38 -3 -56q-15 -102 -81 -158.5t-172 -56.5q-92 0 -136 56t-44 149q0 58 8 102q59 329 397 375zM412 208q3 18 3 32q0 85 -72 85q-26 0 -63.5 -12t-57.5 -27q-9 -39 -9 -95
q0 -110 79 -110q46 0 78 30.5t42 96.5z" />
    <glyph glyph-name="seven.osf" horiz-adv-x="481" 
d="M79 405l17 98h433l-15 -83l-391 -577h-127l382 562h-299z" />
    <glyph glyph-name="eight.osf" horiz-adv-x="534" 
d="M77 135q0 38 14 71.5t39.5 59t48 42t52.5 33.5q-75 54 -75 129q0 80 62 133.5t164 53.5q86 0 127.5 -38t41.5 -93q0 -100 -124 -178q91 -61 91 -148q0 -89 -64 -150t-189 -61q-97 0 -142.5 43t-45.5 103zM391 183q0 63 -84 110q-114 -64 -114 -140q0 -33 21 -54.5
t65 -21.5q51 0 81.5 30.5t30.5 75.5zM370 574q-44 0 -70.5 -24.5t-26.5 -61.5q0 -56 73 -97q95 58 95 122q0 28 -19.5 44.5t-51.5 16.5z" />
    <glyph glyph-name="nine.osf" 
d="M129 -157l-10 90q105 17 175.5 69t94.5 136q-60 -43 -140 -43q-75 0 -115.5 43.5t-40.5 119.5q0 112 68 186t185 74q96 0 141 -58.5t45 -158.5q0 -61 -12 -118.5t-41.5 -115.5t-74 -103t-115.5 -78t-160 -43zM213 267q0 -41 20 -64.5t59 -23.5q28 0 60.5 12t55.5 31
q7 41 7 86q0 117 -82 117q-51 0 -85.5 -41.5t-34.5 -116.5z" />
    <glyph glyph-name="dollar.osf" 
d="M58 77l55 89q59 -43 122 -53l32 184q-2 0 -4 2q-31 13 -50.5 24t-42 29.5t-33.5 45t-11 60.5q0 86 55 137.5t149 58.5l17 93h75l-17 -97q93 -18 150 -84l-72 -72q-54 51 -95 60l-31 -175l6 -2q32 -14 51.5 -25t42.5 -30t34.5 -46t11.5 -62q0 -85 -56.5 -139t-154.5 -62
l-21 -121h-75l21 123q-50 6 -93.5 24.5t-65.5 37.5zM380 200q0 40 -43 66l-27 -150q70 17 70 84zM247 481q0 -42 41 -68l25 141q-66 -15 -66 -73z" />
    <glyph glyph-name="Euro.osf" horiz-adv-x="543" 
d="M507 221l15 82h-435l-15 -82h105q-62 -39 -62 -107q0 -55 44 -91.5t142 -36.5q135 0 243 62l-35 85q-98 -54 -179 -54q-43 0 -66 17.5t-23 48.5q0 35 24 55.5t66 20.5h176zM543 422l-15 -82h-435l15 82h95q-22 25 -22 71q0 79 67.5 121.5t167.5 42.5q126 0 216 -90
l-67 -71q-42 35 -77 52t-82 17q-45 0 -77 -19t-32 -61q0 -28 18.5 -45.5t51.5 -17.5h176z" />
    <glyph glyph-name="cent.osf" 
d="M239 -130l18 106q-73 11 -112 65t-39 142q0 80 21 142t57 98.5t77.5 56t88.5 24.5l20 111h75l-20 -114q92 -17 130 -98l-82 -54q-26 45 -65 58l-59 -338q46 4 102 41l36 -81q-63 -46 -155 -55l-18 -104h-75zM228 196q0 -86 48 -115l56 321q-48 -18 -76 -72t-28 -134z" />
    <glyph glyph-name="sterling.osf" horiz-adv-x="558" 
d="M92 143l14 84h101l92 237q43 110 96 151.5t137 41.5q96 0 159 -66l-69 -71q-43 43 -92 43q-45 0 -70.5 -25t-49.5 -88l-87 -223h159l-14 -83h-175l-32 -79q-36 -87 -104 -132v-2q45 14 80 14q31 0 86.5 -11.5t90.5 -11.5q49 0 97 13l-29 -97q-51 -9 -90 -9
q-48 0 -126.5 16t-123.5 16q-66 0 -138 -30l16 99q83 32 118 120l39 93h-85z" />
    <glyph glyph-name="yen.osf" horiz-adv-x="533" 
d="M231 145h-153l13 76h154l13 75h-154l14 76h112l-95 272h120l78 -255h2l169 255h125l-193 -272h109l-13 -76h-153l-13 -75h152l-13 -76h-153l-25 -145h-121z" />
    <glyph glyph-name="florin.osf" horiz-adv-x="543" 
d="M139 294l32 95h109l29 87q30 93 75 137t138 44q78 0 144 -40l-47 -73q-40 22 -84 22q-75 0 -106 -88l-31 -89h148l-34 -95h-146l-110 -312q-36 -103 -80 -147.5t-134 -44.5q-89 0 -144 38l44 78q44 -25 89 -25q39 0 62.5 21t39.5 66l113 326h-107z" />
    <glyph glyph-name="dollar.tosf" 
d="M50 77l55 89q59 -43 122 -53l32 184q-2 0 -4 2q-31 13 -50.5 24t-42 29.5t-33.5 45t-11 60.5q0 86 55 137.5t149 58.5l17 93h75l-17 -97q93 -18 150 -84l-72 -72q-54 51 -95 60l-31 -175l6 -2q32 -14 51.5 -25t42.5 -30t34.5 -46t11.5 -62q0 -85 -56.5 -139t-154.5 -62
l-21 -121h-75l21 123q-50 6 -93.5 24.5t-65.5 37.5zM372 200q0 40 -43 66l-27 -150q70 17 70 84zM239 481q0 -42 41 -68l25 141q-66 -15 -66 -73z" />
    <glyph glyph-name="Euro.tosf" 
d="M507 221l15 82h-435l-15 -82h105q-62 -39 -62 -107q0 -55 44 -91.5t142 -36.5q135 0 243 62l-35 85q-98 -54 -179 -54q-43 0 -66 17.5t-23 48.5q0 35 24 55.5t66 20.5h176zM543 422l-15 -82h-435l15 82h95q-22 25 -22 71q0 79 67.5 121.5t167.5 42.5q126 0 216 -90
l-67 -71q-42 35 -77 52t-82 17q-45 0 -77 -19t-32 -61q0 -28 18.5 -45.5t51.5 -17.5h176z" />
    <glyph glyph-name="cent.tosf" 
d="M240 -130l18 106q-73 11 -112 65t-39 142q0 80 21 142t57 98.5t77.5 56t88.5 24.5l20 111h75l-20 -114q92 -17 130 -98l-82 -54q-26 45 -65 58l-59 -338q46 4 102 41l36 -81q-63 -46 -155 -55l-18 -104h-75zM229 196q0 -86 48 -115l56 321q-48 -18 -76 -72t-28 -134z" />
    <glyph glyph-name="sterling.tosf" 
d="M81 143l14 84h101l92 237q43 110 96 151.5t137 41.5q96 0 159 -66l-69 -71q-43 43 -92 43q-45 0 -70.5 -25t-49.5 -88l-87 -223h159l-14 -83h-175l-32 -79q-36 -87 -104 -132v-2q45 14 80 14q31 0 86.5 -11.5t90.5 -11.5q49 0 97 13l-29 -97q-51 -9 -90 -9
q-48 0 -126.5 16t-123.5 16q-66 0 -138 -30l16 99q83 32 118 120l39 93h-85z" />
    <glyph glyph-name="yen.tosf" 
d="M222 145h-153l13 76h154l13 75h-154l14 76h112l-95 272h120l78 -255h2l169 255h125l-193 -272h109l-13 -76h-153l-13 -75h152l-13 -76h-153l-25 -145h-121z" />
    <glyph glyph-name="florin.tosf" 
d="M130 294l32 95h109l29 87q30 93 75 137t138 44q78 0 144 -40l-47 -73q-40 22 -84 22q-75 0 -106 -88l-31 -89h148l-34 -95h-146l-110 -312q-36 -103 -80 -147.5t-134 -44.5q-89 0 -144 38l44 78q44 -25 89 -25q39 0 62.5 21t39.5 66l113 326h-107z" />
    <glyph glyph-name="Euro.alt" horiz-adv-x="561" 
d="M115 427h71q66 230 279 230q126 0 186 -105l-85 -60q-45 62 -112 62q-53 0 -88 -30t-58 -97h212l-15 -82h-405zM76 206l14 82h405l-14 -82h-211q2 -60 25 -88.5t79 -28.5q65 0 131 49l49 -84q-85 -66 -198 -66q-101 0 -155 55.5t-50 162.5h-75z" />
    <glyph glyph-name="Euro_tf.alt" 
d="M88 427h71q66 230 279 230q126 0 186 -105l-85 -60q-45 62 -112 62q-53 0 -88 -30t-58 -97h212l-15 -82h-405zM49 206l14 82h405l-14 -82h-211q2 -60 25 -88.5t79 -28.5q65 0 131 49l49 -84q-85 -66 -198 -66q-101 0 -155 55.5t-50 162.5h-75z" />
    <glyph glyph-name="a.alt" horiz-adv-x="512" 
d="M159 401l-11 85q91 32 193 32q79 0 115.5 -28t38.5 -89q0 -30 -6 -66l-40 -230q-7 -35 19 -35q16 0 41 11l4 -70q-46 -23 -97 -23q-34 0 -53.5 15.5t-18.5 46.5q-69 -64 -153 -64q-66 0 -100.5 35t-34.5 96q0 190 231 190q46 0 81 -5l6 38q3 19 3 36q0 30 -15 41t-48 11
q-70 0 -155 -27zM336 119l18 105q-30 6 -69 6q-53 0 -81.5 -20t-28.5 -75q0 -61 58 -61q54 0 103 45z" />
    <glyph glyph-name="aacute.alt" horiz-adv-x="512" 
d="M159 401l-11 85q91 32 193 32q79 0 115.5 -28t38.5 -89q0 -30 -6 -66l-40 -230q-7 -35 19 -35q16 0 41 11l4 -70q-46 -23 -97 -23q-34 0 -53.5 15.5t-18.5 46.5q-69 -64 -153 -64q-66 0 -100.5 35t-34.5 96q0 190 231 190q46 0 81 -5l6 38q3 19 3 36q0 30 -15 41t-48 11
q-70 0 -155 -27zM336 119l18 105q-30 6 -69 6q-53 0 -81.5 -20t-28.5 -75q0 -61 58 -61q54 0 103 45zM264 596l145 184q67 -17 67 -53q0 -21 -37 -55q-47 -42 -141 -107z" />
    <glyph glyph-name="abreve.alt" horiz-adv-x="512" 
d="M159 401l-11 85q91 32 193 32q79 0 115.5 -28t38.5 -89q0 -30 -6 -66l-40 -230q-7 -35 19 -35q16 0 41 11l4 -70q-46 -23 -97 -23q-34 0 -53.5 15.5t-18.5 46.5q-69 -64 -153 -64q-66 0 -100.5 35t-34.5 96q0 190 231 190q46 0 81 -5l6 38q3 19 3 36q0 30 -15 41t-48 11
q-70 0 -155 -27zM336 119l18 105q-30 6 -69 6q-53 0 -81.5 -20t-28.5 -75q0 -61 58 -61q54 0 103 45zM461 724l70 -17q-53 -143 -186 -143q-71 0 -105.5 41t-37.5 102l71 16q7 -44 27 -63.5t56 -19.5q32 0 56.5 19t48.5 65z" />
    <glyph glyph-name="acircumflex.alt" horiz-adv-x="512" 
d="M159 401l-11 85q91 32 193 32q79 0 115.5 -28t38.5 -89q0 -30 -6 -66l-40 -230q-7 -35 19 -35q16 0 41 11l4 -70q-46 -23 -97 -23q-34 0 -53.5 15.5t-18.5 46.5q-69 -64 -153 -64q-66 0 -100.5 35t-34.5 96q0 190 231 190q46 0 81 -5l6 38q3 19 3 36q0 30 -15 41t-48 11
q-70 0 -155 -27zM336 119l18 105q-30 6 -69 6q-53 0 -81.5 -20t-28.5 -75q0 -61 58 -61q54 0 103 45zM221 561l-39 33q65 77 126 136q35 32 61 32q18 0 27.5 -6.5t22.5 -25.5q45 -65 79 -138l-41 -31l-100 105z" />
    <glyph glyph-name="adieresis.alt" horiz-adv-x="512" 
d="M159 401l-11 85q91 32 193 32q79 0 115.5 -28t38.5 -89q0 -30 -6 -66l-40 -230q-7 -35 19 -35q16 0 41 11l4 -70q-46 -23 -97 -23q-34 0 -53.5 15.5t-18.5 46.5q-69 -64 -153 -64q-66 0 -100.5 35t-34.5 96q0 190 231 190q46 0 81 -5l6 38q3 19 3 36q0 30 -15 41t-48 11
q-70 0 -155 -27zM336 119l18 105q-30 6 -69 6q-53 0 -81.5 -20t-28.5 -75q0 -61 58 -61q54 0 103 45zM382 645q0 29 22 50t54 21q24 0 38.5 -15t14.5 -37q0 -29 -22.5 -50t-53.5 -21q-24 0 -38.5 14.5t-14.5 37.5zM187 645q0 29 22 50t54 21q24 0 38.5 -15t14.5 -37
q0 -29 -22.5 -50t-53.5 -21q-24 0 -38.5 14.5t-14.5 37.5z" />
    <glyph glyph-name="ae.alt" horiz-adv-x="752" 
d="M234 76q60 0 121 52q-5 25 -5 48q0 15 4 49q-28 5 -70 5q-109 0 -109 -93q0 -61 59 -61zM618 427q-55 0 -90 -36t-48 -94h189q13 34 13 59q0 71 -64 71zM637 518q69 0 111.5 -40t42.5 -105q0 -79 -35 -151h-288q-2 -13 -2 -36q0 -106 105 -106q69 0 135 44l33 -84
q-4 -4 -25 -15t-69.5 -25.5t-97.5 -14.5q-125 0 -171 79q-92 -78 -189 -78q-131 0 -131 137q0 184 234 184q34 0 77 -5l7 38q3 18 3 31q0 32 -16.5 44.5t-49.5 12.5q-77 0 -151 -27l-12 85q81 31 174 31q126 0 148 -79q63 80 167 80z" />
    <glyph glyph-name="oe.alt" horiz-adv-x="801" 
d="M686 518q73 0 115.5 -40.5t42.5 -106.5q0 -79 -34 -149h-289q-2 -22 -2 -30q0 -57 26 -84.5t84 -27.5q65 0 130 42l32 -82q-4 -4 -24 -15t-68 -25.5t-98 -14.5q-119 0 -160 88q-67 -88 -186 -88q-88 0 -135.5 50t-47.5 144q0 46 6 82q10 60 31.5 106t48 74t60.5 46
t66 24.5t66 6.5q44 0 84.5 -21t59.5 -66q78 87 192 87zM273 73q53 0 88 46t49 126q6 36 6 80q0 105 -78 105q-53 0 -88.5 -44t-48.5 -119q-7 -41 -7 -88q0 -106 79 -106zM671 427q-56 0 -91 -36t-47 -94h189q13 32 13 61q0 69 -64 69z" />
    <glyph glyph-name="agrave.alt" horiz-adv-x="512" 
d="M159 401l-11 85q91 32 193 32q79 0 115.5 -28t38.5 -89q0 -30 -6 -66l-40 -230q-7 -35 19 -35q16 0 41 11l4 -70q-46 -23 -97 -23q-34 0 -53.5 15.5t-18.5 46.5q-69 -64 -153 -64q-66 0 -100.5 35t-34.5 96q0 190 231 190q46 0 81 -5l6 38q3 19 3 36q0 30 -15 41t-48 11
q-70 0 -155 -27zM336 119l18 105q-30 6 -69 6q-53 0 -81.5 -20t-28.5 -75q0 -61 58 -61q54 0 103 45zM333 784l94 -190l-42 -29q-73 75 -107 115q-19 22 -19 44q0 43 74 60z" />
    <glyph glyph-name="amacron.alt" horiz-adv-x="512" 
d="M159 401l-11 85q91 32 193 32q79 0 115.5 -28t38.5 -89q0 -30 -6 -66l-40 -230q-7 -35 19 -35q16 0 41 11l4 -70q-46 -23 -97 -23q-34 0 -53.5 15.5t-18.5 46.5q-69 -64 -153 -64q-66 0 -100.5 35t-34.5 96q0 190 231 190q46 0 81 -5l6 38q3 19 3 36q0 30 -15 41t-48 11
q-70 0 -155 -27zM336 119l18 105q-30 6 -69 6q-53 0 -81.5 -20t-28.5 -75q0 -61 58 -61q54 0 103 45zM203 609l15 86h287l-15 -86h-287z" />
    <glyph glyph-name="ampersand.alt" horiz-adv-x="694" 
d="M344 491q0 -103 170 -271q38 59 46 149h105q-13 -128 -78 -220q59 -55 108 -95l-81 -87q-42 33 -110 98q-88 -80 -223 -80q-102 0 -151.5 51t-49.5 126q0 146 163 235q-20 42 -20 92q1 83 58 135t155 52q126 0 177 -100l-90 -56q-34 64 -90 64q-41 0 -65 -25.5t-24 -67.5
zM299 78q76 0 133 54q-100 100 -147 183q-42 -22 -67 -58.5t-25 -81.5q0 -44 27 -70.5t79 -26.5z" />
    <glyph glyph-name="aogonek.alt" horiz-adv-x="512" 
d="M157 395l-9 87q94 36 193 36q79 0 115.5 -28t38.5 -89q0 -30 -6 -66l-40 -230q-7 -35 19 -35q16 0 41 11l4 -70q-48 -31 -82 -73t-34 -73t33 -31q25 0 52 11l10 -65q-42 -21 -96 -21q-48 0 -70 22t-22 55q0 73 91 154q-50 11 -49 63q-76 -67 -161 -67q-62 0 -95.5 35.5
t-33.5 95.5q0 185 230 185q46 0 81 -5l7 43q3 19 3 36q0 30 -15 41t-48 11q-64 0 -157 -33zM335 116l20 110q-30 6 -69 6q-52 0 -81.5 -21t-29.5 -76q0 -64 58 -64q53 0 102 45z" />
    <glyph glyph-name="aring.alt" horiz-adv-x="512" 
d="M159 401l-11 85q91 32 193 32q79 0 115.5 -28t38.5 -89q0 -30 -6 -66l-40 -230q-7 -35 19 -35q16 0 41 11l4 -70q-46 -23 -97 -23q-34 0 -53.5 15.5t-18.5 46.5q-69 -64 -153 -64q-66 0 -100.5 35t-34.5 96q0 190 231 190q46 0 81 -5l6 38q3 19 3 36q0 30 -15 41t-48 11
q-70 0 -155 -27zM336 119l18 105q-30 6 -69 6q-53 0 -81.5 -20t-28.5 -75q0 -61 58 -61q54 0 103 45zM253 643q0 44 31.5 75.5t79.5 31.5q40 0 61 -22.5t21 -57.5q0 -45 -31 -75.5t-80 -30.5q-40 0 -61 22t-21 57zM356 698q-18 0 -30.5 -14t-12.5 -35q0 -34 31 -34
q19 0 31 14.5t12 36.5q0 32 -31 32z" />
    <glyph glyph-name="atilde.alt" horiz-adv-x="512" 
d="M159 401l-11 85q91 32 193 32q79 0 115.5 -28t38.5 -89q0 -30 -6 -66l-40 -230q-7 -35 19 -35q16 0 41 11l4 -70q-46 -23 -97 -23q-34 0 -53.5 15.5t-18.5 46.5q-69 -64 -153 -64q-66 0 -100.5 35t-34.5 96q0 190 231 190q46 0 81 -5l6 38q3 19 3 36q0 30 -15 41t-48 11
q-70 0 -155 -27zM336 119l18 105q-30 6 -69 6q-53 0 -81.5 -20t-28.5 -75q0 -61 58 -61q54 0 103 45zM201 603l4 74q41 29 88 29q27 0 68 -13t63 -13q27 0 65 18l-5 -78q-38 -19 -72 -19q-23 0 -68.5 11.5t-64.5 11.5q-36 0 -78 -21z" />
    <glyph glyph-name="e.alt" horiz-adv-x="487" 
d="M352 518q76 0 120 -40.5t44 -106.5q0 -70 -34 -151h-289q-1 -11 -1 -28q0 -57 25.5 -84.5t82.5 -27.5q66 0 131 42l31 -82q-4 -4 -24 -15t-68 -25.5t-98 -14.5q-99 0 -149 57.5t-50 152.5q0 87 29.5 158.5t94.5 118t155 46.5zM341 427q-98 0 -134 -126h191q10 36 10 63
q0 29 -17.5 46t-49.5 17z" />
    <glyph glyph-name="eacute.alt" horiz-adv-x="487" 
d="M352 518q76 0 120 -40.5t44 -106.5q0 -70 -34 -151h-289q-1 -11 -1 -28q0 -57 25.5 -84.5t82.5 -27.5q66 0 131 42l31 -82q-4 -4 -24 -15t-68 -25.5t-98 -14.5q-99 0 -149 57.5t-50 152.5q0 87 29.5 158.5t94.5 118t155 46.5zM341 427q-98 0 -134 -126h191q10 36 10 63
q0 29 -17.5 46t-49.5 17zM292 596l145 184q67 -17 67 -53q0 -21 -37 -55q-47 -42 -141 -107z" />
    <glyph glyph-name="ebreve.alt" horiz-adv-x="487" 
d="M352 518q-90 0 -155 -46.5t-94.5 -118t-29.5 -158.5q0 -95 50 -152.5t149 -57.5q50 0 98 14.5t68 25.5t24 15l-31 82q-65 -42 -131 -42q-57 0 -82.5 27.5t-25.5 84.5q0 17 1 28h289q34 81 34 151q0 66 -44 106.5t-120 40.5zM341 427q32 0 49.5 -17t17.5 -46
q0 -27 -10 -63h-191q36 126 134 126zM495 724l70 -17q-53 -143 -186 -143q-71 0 -105.5 41t-37.5 102l71 16q7 -44 27 -63.5t56 -19.5q32 0 56.5 19t48.5 65z" />
    <glyph glyph-name="ecaron.alt" horiz-adv-x="487" 
d="M352 518q-90 0 -155 -46.5t-94.5 -118t-29.5 -158.5q0 -95 50 -152.5t149 -57.5q50 0 98 14.5t68 25.5t24 15l-31 82q-65 -42 -131 -42q-57 0 -82.5 27.5t-25.5 84.5q0 17 1 28h289q34 81 34 151q0 66 -44 106.5t-120 40.5zM341 427q32 0 49.5 -17t17.5 -46
q0 -27 -10 -63h-191q36 126 134 126zM517 764l39 -33q-69 -80 -127 -136q-33 -32 -61 -32q-18 0 -27.5 6.5t-22.5 25.5q-43 62 -80 137l44 32l99 -105z" />
    <glyph glyph-name="ecircumflex.alt" horiz-adv-x="487" 
d="M352 518q-90 0 -155 -46.5t-94.5 -118t-29.5 -158.5q0 -95 50 -152.5t149 -57.5q50 0 98 14.5t68 25.5t24 15l-31 82q-65 -42 -131 -42q-57 0 -82.5 27.5t-25.5 84.5q0 17 1 28h289q34 81 34 151q0 66 -44 106.5t-120 40.5zM341 427q32 0 49.5 -17t17.5 -46
q0 -27 -10 -63h-191q36 126 134 126zM260 561l-39 33q65 77 126 136q35 32 61 32q18 0 27.5 -6.5t22.5 -25.5q45 -65 79 -138l-41 -31l-100 105z" />
    <glyph glyph-name="edieresis.alt" horiz-adv-x="487" 
d="M352 518q-90 0 -155 -46.5t-94.5 -118t-29.5 -158.5q0 -95 50 -152.5t149 -57.5q50 0 98 14.5t68 25.5t24 15l-31 82q-65 -42 -131 -42q-57 0 -82.5 27.5t-25.5 84.5q0 17 1 28h289q34 81 34 151q0 66 -44 106.5t-120 40.5zM341 427q32 0 49.5 -17t17.5 -46
q0 -27 -10 -63h-191q36 126 134 126zM415 645q0 29 22 50t54 21q24 0 38.5 -15t14.5 -37q0 -29 -22.5 -50t-53.5 -21q-24 0 -38.5 14.5t-14.5 37.5zM220 645q0 29 22 50t54 21q24 0 38.5 -15t14.5 -37q0 -29 -22.5 -50t-53.5 -21q-24 0 -38.5 14.5t-14.5 37.5z" />
    <glyph glyph-name="edotaccent.alt" horiz-adv-x="487" 
d="M352 518q-90 0 -155 -46.5t-94.5 -118t-29.5 -158.5q0 -95 50 -152.5t149 -57.5q50 0 98 14.5t68 25.5t24 15l-31 82q-65 -42 -131 -42q-57 0 -82.5 27.5t-25.5 84.5q0 17 1 28h289q34 81 34 151q0 66 -44 106.5t-120 40.5zM341 427q32 0 49.5 -17t17.5 -46
q0 -27 -10 -63h-191q36 126 134 126zM315 636q0 32 24 55t58 23q26 0 42 -16t16 -40q0 -33 -24 -55t-58 -22q-27 0 -42.5 15t-15.5 40z" />
    <glyph glyph-name="egrave.alt" horiz-adv-x="487" 
d="M352 518q-90 0 -155 -46.5t-94.5 -118t-29.5 -158.5q0 -95 50 -152.5t149 -57.5q50 0 98 14.5t68 25.5t24 15l-31 82q-65 -42 -131 -42q-57 0 -82.5 27.5t-25.5 84.5q0 17 1 28h289q34 81 34 151q0 66 -44 106.5t-120 40.5zM341 427q32 0 49.5 -17t17.5 -46
q0 -27 -10 -63h-191q36 126 134 126zM359 784l94 -190l-42 -29q-73 75 -107 115q-19 22 -19 44q0 43 74 60z" />
    <glyph glyph-name="emacron.alt" horiz-adv-x="487" 
d="M352 518q-90 0 -155 -46.5t-94.5 -118t-29.5 -158.5q0 -95 50 -152.5t149 -57.5q50 0 98 14.5t68 25.5t24 15l-31 82q-65 -42 -131 -42q-57 0 -82.5 27.5t-25.5 84.5q0 17 1 28h289q34 81 34 151q0 66 -44 106.5t-120 40.5zM341 427q32 0 49.5 -17t17.5 -46
q0 -27 -10 -63h-191q36 126 134 126zM233 609l15 86h287l-15 -86h-287z" />
    <glyph glyph-name="eogonek.alt" horiz-adv-x="477" 
d="M380 -6q-44 -27 -70 -62t-26 -67q0 -31 33 -31q25 0 52 11l10 -65q-42 -21 -96 -21q-48 0 -70 22t-22 55q0 71 85 149h-4q-99 0 -149 57.5t-50 152.5q0 135 77 229t211 94q73 0 114.5 -39.5t41.5 -105.5q0 -77 -36 -151h-289q-2 -22 -2 -30q0 -116 110 -116q68 0 134 43
l28 -79l-10 -6q-11 -5 -31.5 -16.5zM346 433q-55 0 -92.5 -41.5t-49.5 -100.5h194q14 34 14 67q0 75 -66 75z" />
    <glyph glyph-name="g.alt" horiz-adv-x="489" 
d="M483 341q0 -78 -57 -128t-151 -50q-12 0 -52 5l-28 -53l92 -15q105 -17 154 -43.5t49 -90.5q0 -83 -71 -136t-205 -53q-103 0 -152.5 30.5t-49.5 81.5q0 34 17 62t35.5 43t55.5 39q-35 11 -35 39q0 19 16 43l50 74q-26 18 -42 51.5t-16 73.5q0 94 59 149t158 55
q76 0 120 -28l145 20l-16 -89l-96 4q20 -36 20 -84zM274 -1l-78 11q-39 -25 -57.5 -47t-18.5 -52q0 -55 114 -55q59 0 96.5 24t37.5 63q0 26 -20 37t-74 19zM274 239q43 0 71.5 35t28.5 93q0 76 -68 76q-42 0 -68.5 -33.5t-26.5 -95.5q0 -75 63 -75z" />
    <glyph glyph-name="gbreve.alt" horiz-adv-x="489" 
d="M483 341q0 -78 -57 -128t-151 -50q-12 0 -52 5l-28 -53l92 -15q105 -17 154 -43.5t49 -90.5q0 -83 -71 -136t-205 -53q-103 0 -152.5 30.5t-49.5 81.5q0 34 17 62t35.5 43t55.5 39q-35 11 -35 39q0 19 16 43l50 74q-26 18 -42 51.5t-16 73.5q0 94 59 149t158 55
q76 0 120 -28l145 20l-16 -89l-96 4q20 -36 20 -84zM274 -1l-78 11q-39 -25 -57.5 -47t-18.5 -52q0 -55 114 -55q59 0 96.5 24t37.5 63q0 26 -20 37t-74 19zM274 239q43 0 71.5 35t28.5 93q0 76 -68 76q-42 0 -68.5 -33.5t-26.5 -95.5q0 -75 63 -75zM455 724l70 -17
q-53 -143 -186 -143q-71 0 -105.5 41t-37.5 102l71 16q7 -44 27 -63.5t56 -19.5q32 0 56.5 19t48.5 65z" />
    <glyph glyph-name="gcircumflex.alt" horiz-adv-x="489" 
d="M483 341q0 -78 -57 -128t-151 -50q-12 0 -52 5l-28 -53l92 -15q105 -17 154 -43.5t49 -90.5q0 -83 -71 -136t-205 -53q-103 0 -152.5 30.5t-49.5 81.5q0 34 17 62t35.5 43t55.5 39q-35 11 -35 39q0 19 16 43l50 74q-26 18 -42 51.5t-16 73.5q0 94 59 149t158 55
q76 0 120 -28l145 20l-16 -89l-96 4q20 -36 20 -84zM274 -1l-78 11q-39 -25 -57.5 -47t-18.5 -52q0 -55 114 -55q59 0 96.5 24t37.5 63q0 26 -20 37t-74 19zM274 239q43 0 71.5 35t28.5 93q0 76 -68 76q-42 0 -68.5 -33.5t-26.5 -95.5q0 -75 63 -75zM223 561l-39 33
q65 77 126 136q35 32 61 32q18 0 27.5 -6.5t22.5 -25.5q45 -65 79 -138l-41 -31l-100 105z" />
    <glyph glyph-name="gcommaaccent.alt" horiz-adv-x="489" 
d="M483 341q0 -78 -57 -128t-151 -50q-12 0 -52 5l-28 -53l92 -15q105 -17 154 -43.5t49 -90.5q0 -83 -71 -136t-205 -53q-103 0 -152.5 30.5t-49.5 81.5q0 34 17 62t35.5 43t55.5 39q-35 11 -35 39q0 19 16 43l50 74q-26 18 -42 51.5t-16 73.5q0 94 59 149t158 55
q76 0 120 -28l145 20l-16 -89l-96 4q20 -36 20 -84zM274 -1l-78 11q-39 -25 -57.5 -47t-18.5 -52q0 -55 114 -55q59 0 96.5 24t37.5 63q0 26 -20 37t-74 19zM274 239q43 0 71.5 35t28.5 93q0 76 -68 76q-42 0 -68.5 -33.5t-26.5 -95.5q0 -75 63 -75zM455 763l-95 -200
q-78 5 -78 40q0 18 25 53q16 22 107 129z" />
    <glyph glyph-name="gdotaccent.alt" horiz-adv-x="489" 
d="M483 341q0 -78 -57 -128t-151 -50q-12 0 -52 5l-28 -53l92 -15q105 -17 154 -43.5t49 -90.5q0 -83 -71 -136t-205 -53q-103 0 -152.5 30.5t-49.5 81.5q0 34 17 62t35.5 43t55.5 39q-35 11 -35 39q0 19 16 43l50 74q-26 18 -42 51.5t-16 73.5q0 94 59 149t158 55
q76 0 120 -28l145 20l-16 -89l-96 4q20 -36 20 -84zM274 -1l-78 11q-39 -25 -57.5 -47t-18.5 -52q0 -55 114 -55q59 0 96.5 24t37.5 63q0 26 -20 37t-74 19zM274 239q43 0 71.5 35t28.5 93q0 76 -68 76q-42 0 -68.5 -33.5t-26.5 -95.5q0 -75 63 -75zM274 636q0 32 24 55
t58 23q26 0 42 -16t16 -40q0 -33 -24 -55t-58 -22q-27 0 -42.5 15t-15.5 40z" />
    <glyph glyph-name="k.alt" horiz-adv-x="503" 
d="M304 695l-94 -503l3 -1l241 312h127l-176 -230l83 -273h-126l-51 176l-135 -176h-112l123 695h117z" />
    <glyph glyph-name="kcommaaccent.alt" horiz-adv-x="503" 
d="M304 695l-94 -503l3 -1l241 312h127l-176 -230l83 -273h-126l-51 176l-135 -176h-112l123 695h117zM225 -61l-94 -199l40 -21q96 113 107 128q25 35 25 53q0 37 -78 39z" />
    <glyph glyph-name="v.alt" horiz-adv-x="501" 
d="M446 503h135l-247 -503h-158l-78 503h131l39 -392h4z" />
    <glyph glyph-name="w.alt" horiz-adv-x="722" 
d="M672 503h126l-215 -503h-139l-22 339h-2l-139 -339h-141l-39 503h124l18 -361h2l146 361h115l24 -363h2z" />
    <glyph glyph-name="wacute.alt" horiz-adv-x="721" 
d="M672 503h126l-215 -503h-139l-22 339h-2l-139 -339h-141l-39 503h124l18 -361h2l146 361h115l24 -363h2zM362 596l145 184q67 -17 67 -53q0 -21 -37 -55q-47 -42 -141 -107z" />
    <glyph glyph-name="wcircumflex.alt" horiz-adv-x="721" 
d="M672 503h126l-215 -503h-139l-22 339h-2l-139 -339h-141l-39 503h124l18 -361h2l146 361h115l24 -363h2zM337 561l-39 33q65 77 126 136q35 32 61 32q18 0 27.5 -6.5t22.5 -25.5q45 -65 79 -138l-41 -31l-100 105z" />
    <glyph glyph-name="wdieresis.alt" horiz-adv-x="721" 
d="M672 503h126l-215 -503h-139l-22 339h-2l-139 -339h-141l-39 503h124l18 -361h2l146 361h115l24 -363h2zM516 645q0 29 22 50t54 21q24 0 38.5 -15t14.5 -37q0 -29 -22.5 -50t-53.5 -21q-24 0 -38.5 14.5t-14.5 37.5zM321 645q0 29 22 50t54 21q24 0 38.5 -15t14.5 -37
q0 -29 -22.5 -50t-53.5 -21q-24 0 -38.5 14.5t-14.5 37.5z" />
    <glyph glyph-name="wgrave.alt" horiz-adv-x="721" 
d="M672 503h126l-215 -503h-139l-22 339h-2l-139 -339h-141l-39 503h124l18 -361h2l146 361h115l24 -363h2zM439 784l94 -190l-42 -29q-73 75 -107 115q-19 22 -19 44q0 43 74 60z" />
    <glyph glyph-name="y.alt" horiz-adv-x="475" 
d="M431 503h128l-264 -510q-63 -123 -112 -169.5t-134 -46.5q-76 0 -129 37l44 86q44 -26 85 -26q33 0 54 15t46 59l31 56l-85 499h124l44 -351h2z" />
    <glyph glyph-name="yacute.alt" horiz-adv-x="475" 
d="M431 503h128l-264 -510q-63 -123 -112 -169.5t-134 -46.5q-76 0 -129 37l44 86q44 -26 85 -26q33 0 54 15t46 59l31 56l-85 499h124l44 -351h2zM266 596l145 184q67 -17 67 -53q0 -21 -37 -55q-47 -42 -141 -107z" />
    <glyph glyph-name="ycircumflex.alt" horiz-adv-x="475" 
d="M431 503h128l-264 -510q-63 -123 -112 -169.5t-134 -46.5q-76 0 -129 37l44 86q44 -26 85 -26q33 0 54 15t46 59l31 56l-85 499h124l44 -351h2zM215 561l-39 33q65 77 126 136q35 32 61 32q18 0 27.5 -6.5t22.5 -25.5q45 -65 79 -138l-41 -31l-100 105z" />
    <glyph glyph-name="ydieresis.alt" horiz-adv-x="475" 
d="M431 503h128l-264 -510q-63 -123 -112 -169.5t-134 -46.5q-76 0 -129 37l44 86q44 -26 85 -26q33 0 54 15t46 59l31 56l-85 499h124l44 -351h2zM379 645q0 29 22 50t54 21q24 0 38.5 -15t14.5 -37q0 -29 -22.5 -50t-53.5 -21q-24 0 -38.5 14.5t-14.5 37.5zM184 645
q0 29 22 50t54 21q24 0 38.5 -15t14.5 -37q0 -29 -22.5 -50t-53.5 -21q-24 0 -38.5 14.5t-14.5 37.5z" />
    <glyph glyph-name="ygrave.alt" horiz-adv-x="475" 
d="M431 503h128l-264 -510q-63 -123 -112 -169.5t-134 -46.5q-76 0 -129 37l44 86q44 -26 85 -26q33 0 54 15t46 59l31 56l-85 499h124l44 -351h2zM293 784l94 -190l-42 -29q-73 75 -107 115q-19 22 -19 44q0 43 74 60z" />
    <glyph glyph-name="z.alt" horiz-adv-x="442" 
d="M426 0h-400l13 76l303 334h-227l16 93h376l-13 -71l-307 -338h256z" />
    <glyph glyph-name="zacute.alt" horiz-adv-x="441" 
d="M426 0h-400l13 76l303 334h-227l16 93h376l-13 -71l-307 -338h256zM272 596l145 184q67 -17 67 -53q0 -21 -37 -55q-47 -42 -141 -107z" />
    <glyph glyph-name="zcaron.alt" horiz-adv-x="441" 
d="M426 0h-400l13 76l303 334h-227l16 93h376l-13 -71l-307 -338h256zM484 764l39 -33q-69 -80 -127 -136q-33 -32 -61 -32q-18 0 -27.5 6.5t-22.5 25.5q-43 62 -80 137l44 32l99 -105z" />
    <glyph glyph-name="zdotaccent.alt" horiz-adv-x="441" 
d="M426 0h-400l13 76l303 334h-227l16 93h376l-13 -71l-307 -338h256zM270 636q0 32 24 55t58 23q26 0 42 -16t16 -40q0 -33 -24 -55t-58 -22q-27 0 -42.5 15t-15.5 40z" />
    <glyph glyph-name="swash" horiz-adv-x="389" 
d="M598 562h-206q-84 -3 -135.5 -42.5t-51.5 -108.5q0 -45 19.5 -67.5t51.5 -22.5t52 15t20 43q0 35 -31 35q-17 0 -41 -12l-19 59q49 32 104 32q47 0 71.5 -26.5t24.5 -70.5q0 -79 -59 -122t-136 -43q-85 0 -130 44t-45 123q0 88 50.5 150t124.5 89.5t161 27.5h193z" />
    <glyph glyph-name="swash2" horiz-adv-x="371" 
d="M325 103h176l-18 -103h-187q-74 0 -126.5 17t-79 46.5t-37.5 61t-11 68.5q0 98 63.5 157t165.5 59q67 0 108 -33.5t41 -94.5q0 -56 -40.5 -92.5t-99.5 -36.5q-51 0 -83 24l31 56q19 -10 39 -10q19 0 32 13t13 37q0 47 -53 47q-41 0 -68 -30t-27 -78q0 -56 35.5 -82
t125.5 -26z" />
    <glyph glyph-name="lc_end.1" horiz-adv-x="364" 
d="M-91 103h164q45 1 80 7t68 20t51 43t18 71q0 35 -18 55t-49 20q-29 0 -48.5 -15t-19.5 -42q0 -40 37 -40q16 0 35 9l16 -59q-38 -25 -87 -25q-56 0 -83.5 29.5t-27.5 76.5q0 75 58.5 115.5t133.5 40.5q85 0 129 -43.5t44 -114.5q0 -67 -32 -118t-84.5 -79t-109.5 -41
t-117 -13h-177z" />
    </font>
</defs>
</svg>
