<?xml version="1.0" encoding="UTF-8" standalone="no"?>
<svg
   xmlns:dc="http://purl.org/dc/elements/1.1/"
   xmlns:cc="http://creativecommons.org/ns#"
   xmlns:rdf="http://www.w3.org/1999/02/22-rdf-syntax-ns#"
   xmlns:svg="http://www.w3.org/2000/svg"
   xmlns="http://www.w3.org/2000/svg"
   xmlns:xlink="http://www.w3.org/1999/xlink"
   xmlns:sodipodi="http://sodipodi.sourceforge.net/DTD/sodipodi-0.dtd"
   xmlns:inkscape="http://www.inkscape.org/namespaces/inkscape"
   version="1.1"
   viewBox="0 0 1000 1000"
   style="background-color:blue"
   id="svg2"
   inkscape:version="0.48.4 r9939"
   width="100%"
   height="100%"
   sodipodi:docname="svg.svg">
  <metadata
     id="metadata14">
    <rdf:RDF>
      <cc:Work
         rdf:about="">
        <dc:format>image/svg+xml</dc:format>
        <dc:type
           rdf:resource="http://purl.org/dc/dcmitype/StillImage" />
      </cc:Work>
    </rdf:RDF>
  </metadata>
  <defs
     id="defs12" />
  <sodipodi:namedview
     pagecolor="#ffffff"
     bordercolor="#666666"
     borderopacity="1"
     objecttolerance="10"
     gridtolerance="10"
     guidetolerance="10"
     inkscape:pageopacity="0"
     inkscape:pageshadow="2"
     inkscape:window-width="1366"
     inkscape:window-height="719"
     id="namedview10"
     showgrid="false"
     inkscape:zoom="1.888"
     inkscape:cx="448.74303"
     inkscape:cy="685.00871"
     inkscape:window-x="0"
     inkscape:window-y="0"
     inkscape:window-maximized="1"
     inkscape:current-layer="svg2" />
  <rect
     width="800px"
     height="800px"
     style="fill:rgb(0,0,255);stroke-width:3;stroke:rgb(0,0,0)"
     id="rect4" />
  <!-- SVG content -->
  <image
     sodipodi:absref="/home/anb/sites/acopitan/oxi/main/public/image/peru-mapa.png"
     xlink:href="public/image/peru-mapa.png"
     id="image6"
     width="600"
     height="600"
     y="-299.25845"
     x="351.48306" />
  <path
     style="fill:none;stroke:#000000;stroke-width:1.65666521px;stroke-linecap:butt;stroke-linejoin:miter;stroke-opacity:1"
     d="m 444.71091,372.60241 c 1.69156,0.42287 2.46989,5.9973 3.29697,7.21031 0.78401,1.14983 3.14728,1.14942 3.56514,3.87955 0.78089,5.10193 2.70643,6.68914 3.64275,12.09437 0.49581,2.86218 1.34055,10.26707 2.88068,11.03713 9.01846,8.37497 9.66582,13.31972 12.73533,14.91174 0.58931,0.30564 1.29851,-4.31147 2.35086,-4.31486 1.00543,-0.003 1.72528,0.64513 2.66588,0.54793 0.95661,-0.0989 -1.55275,1.96196 -0.58412,3.08851 1.44972,1.68608 4.79625,3.87604 7.8747,5.54486 0.85548,0.12445 7.16438,-0.88003 7.96354,-1.51458 3.42516,-2.71968 -0.69336,-5.62191 2.17281,-7.9128 2.44252,-1.95227 9.46971,-4.27166 9.01522,-7.84925 -0.11106,-0.87415 -2.15569,-2.85301 -4.09151,-7.89886 -0.91896,-2.39532 0.82944,-4.89021 -0.45977,-7.84132 -0.89834,-2.05636 5.16561,-8.55888 4.0502,-10.77346 -0.74534,-1.47987 5.25791,0.38401 4.36475,-1.09752 -0.51985,-0.86232 -0.082,-2.47281 -0.67005,-3.33957 -1.34362,-1.98049 -4.49931,-4.34778 -6.20382,-6.31304 -2.91611,-3.36221 -4.07279,-6.6373 -7.75294,-9.60355 -2.72499,-2.19638 -3.9117,-7.83617 -6.98099,-9.66151 -0.83538,-0.49682 -0.81769,-0.71946 -1.68264,-1.16416 -1.58641,-0.81562 0.36855,-2.59294 -0.69672,-4.05064 -1.48372,-2.03034 -2.90679,-4.32295 -5.34527,-5.24486 -1.75653,-0.66408 -2.98663,1.18449 -5.11398,1.03397 -2.42279,-0.1714 -6.87479,0.15658 -8.58383,2.34601 -2.44792,3.13602 -5.98189,5.82916 -7.3939,7.84369 -1.77441,2.53157 -2.17563,6.76854 -3.18766,8.36018 -1.72219,2.70856 -4.31736,1.42457 -7.85571,3.70022 -0.63276,6.3658 -3.08462,4.2539 0.0241,6.98151 z"
     id="path2983"
     inkscape:connector-curvature="0"
     sodipodi:nodetypes="cssscsssscsssssssssssssssssscc" />
  <path
     sodipodi:type="arc"
     style="color:#000000;fill:#ff0000;fill-opacity:1;fill-rule:nonzero;stroke:none;marker:none;visibility:visible;display:inline;overflow:visible;enable-background:accumulate"
     id="path2991"
     sodipodi:cx="103.2839"
     sodipodi:cy="92.690674"
     sodipodi:rx="54.865314"
     sodipodi:ry="54.865314"
     d="m 158.14921,92.690674 a 54.865314,54.865314 0 1 1 -109.730627,0 54.865314,54.865314 0 1 1 109.730627,0 z" />
  <path
     transform="translate(-2.648304,126.58899)"
     sodipodi:type="arc"
     style="color:#000000;fill:#00ff00;fill-opacity:1;fill-rule:nonzero;stroke:none;marker:none;visibility:visible;display:inline;overflow:visible;enable-background:accumulate"
     id="path2991-6"
     sodipodi:cx="103.2839"
     sodipodi:cy="92.690674"
     sodipodi:rx="54.865314"
     sodipodi:ry="54.865314"
     d="m 158.14921,92.690674 a 54.865314,54.865314 0 1 1 -109.730627,0 54.865314,54.865314 0 1 1 109.730627,0 z" />
  <path
     style="color:#000000;fill:#ff0000;fill-opacity:1;fill-rule:nonzero;stroke:none;marker:none;visibility:visible;display:inline;overflow:visible;enable-background:accumulate;opacity:1"
     d="m 480.06755,423.32911 c -3.21071,-2.15621 -3.35167,-2.3419 -3.20499,-4.22193 0.13282,-1.7025 -0.0199,-2.01003 -1.13787,-2.29061 -2.07796,-0.52153 -3.7121,-0.0599 -4.35243,1.22966 -0.32804,0.66061 -0.72331,1.32799 -0.87839,1.48307 -0.15507,0.15507 -1.5353,-1.458 -3.06717,-3.58459 -1.53187,-2.1266 -4.30067,-5.45222 -6.15288,-7.39026 -1.85221,-1.93804 -3.3699,-3.72565 -3.37264,-3.97246 -0.0198,-1.77873 -2.46465,-12.09264 -4.02961,-16.99918 -1.47381,-4.62073 -2.2497,-6.2514 -3.45846,-7.2685 -0.93989,-0.79086 -1.97273,-2.51565 -2.60243,-4.34591 -0.57424,-1.66905 -1.53341,-3.55551 -2.13149,-4.19214 -0.95809,-1.01984 -1.01968,-1.40908 -0.51782,-3.27283 0.57202,-2.12432 1.23024,-2.61669 4.79988,-3.59047 2.28551,-0.62347 3.62599,-2.3742 5.01783,-6.5535 1.24422,-3.73606 1.70807,-4.40469 6.06247,-8.73891 l 4.71516,-4.69332 4.15206,-0.43325 c 2.28363,-0.23829 4.81683,-0.5919 5.62933,-0.78579 1.26999,-0.30308 1.77164,-0.0337 3.57521,1.91994 1.6823,1.82226 2.09794,2.67379 2.09794,4.29812 0,1.74387 0.2621,2.1921 1.88413,3.22225 1.14545,0.72747 2.74146,2.6502 4.0709,4.90423 1.20272,2.0392 3.29188,4.89937 4.64259,6.35594 1.3507,1.45656 3.02158,3.48252 3.71306,4.50212 0.69148,1.01959 2.96419,3.64142 5.05047,5.82627 2.08627,2.18485 3.92063,4.49588 4.07635,5.13562 0.24739,1.01633 0.0419,1.18349 -1.62724,1.32415 -1.64423,0.13856 -1.95655,0.38236 -2.2418,1.74997 -0.18229,0.87394 -1.17716,3.25828 -2.2108,5.29853 -1.85121,3.65397 -1.87521,3.78492 -1.60164,8.73941 0.24809,4.49271 0.49767,5.46967 2.33713,9.14825 l 2.05938,4.11838 -1.40785,1.30476 c -0.77432,0.71761 -2.8984,2.13831 -4.72017,3.15711 -3.69776,2.0679 -3.96095,2.47208 -3.96095,6.08279 0,1.39708 -0.29793,2.78564 -0.66208,3.08571 -0.48629,0.40073 -5.89034,1.70277 -7.06724,1.70277 -0.0657,0 -1.63081,-1.01493 -3.47794,-2.2554 l 0,0 z"
     id="path3015"
     inkscape:connector-curvature="0" />
  <path
     style="color:#000000;fill:#00ffff;fill-opacity:1;fill-rule:nonzero;stroke:none;marker:none;visibility:visible;display:inline;overflow:visible;enable-background:accumulate"
     d="m 480.73456,423.3932 c -3.27053,-2.23413 -3.29435,-2.26363 -3.66054,-4.53493 -0.30929,-1.91837 -0.42744,-2.02069 -2.50922,-2.17309 -1.81442,-0.13284 -2.36418,0.0683 -3.24407,1.1869 l -1.05942,1.34684 -2.21036,-2.9276 c -1.2157,-1.61019 -3.93225,-4.93201 -6.03678,-7.38183 l -3.82641,-4.45422 -1.46365,-6.69882 c -1.91261,-8.75362 -4.11764,-15.22434 -6.00966,-17.63552 -0.83773,-1.06759 -2.44285,-3.82727 -3.56693,-6.13262 -2.55128,-5.23235 -2.33412,-6.33194 1.63282,-8.26767 3.90502,-1.90553 4.65618,-2.75334 6.50658,-7.34375 1.43751,-3.56614 2.23883,-4.66943 6.26514,-8.62613 l 4.61682,-4.537 4.50212,-0.59919 c 6.11995,-0.81453 5.93151,-0.84572 8.12147,1.34424 1.33603,1.33603 1.94209,2.41749 1.94209,3.46549 0,1.06026 0.6979,2.28137 2.2956,4.01659 1.26258,1.37126 3.09369,3.68494 4.06913,5.14151 2.11046,3.15142 6.2558,8.30162 12.18154,15.13442 5.67497,6.54364 5.75032,6.69654 3.5771,7.25968 -1.57205,0.40736 -1.93772,0.92844 -4.00794,5.7114 -2.27112,5.2471 -2.2772,5.27835 -1.99518,10.25396 0.24446,4.31306 0.54823,5.55628 2.23689,9.15475 l 1.95401,4.16393 -1.27214,0.90881 c -0.69967,0.49984 -2.82662,1.98243 -4.72655,3.29462 l -3.45441,2.38582 -0.53786,3.38442 -0.53787,3.38441 -2.37527,0.71007 c -3.47534,1.03894 -4.75288,0.87759 -7.40705,-0.93549 z"
     id="path3785"
     inkscape:connector-curvature="0" />
  <path
     style="color:#000000;fill:#00ffff;fill-opacity:1;fill-rule:nonzero;stroke:none;marker:none;visibility:visible;display:inline;overflow:visible;enable-background:accumulate"
     d="m 480.58649,422.80379 c -1.79234,-1.23964 -2.68728,-2.31432 -3.1978,-3.84004 -0.65802,-1.96653 -0.8655,-2.13024 -2.88978,-2.28009 -1.60138,-0.11855 -2.45272,0.11041 -3.204,0.86169 -1.01109,1.01109 -1.08478,0.94817 -6.25256,-5.33811 -2.87617,-3.49868 -5.54555,-6.78985 -5.93196,-7.31371 -0.38641,-0.52385 -1.40202,-3.97533 -2.25691,-7.66996 -2.05363,-8.87519 -3.90361,-14.10822 -6.36768,-18.01219 -2.9884,-4.73471 -4.86034,-9.09534 -4.50766,-10.50052 0.18382,-0.73238 1.29694,-1.74922 2.83156,-2.58662 3.69499,-2.01628 4.79049,-3.24376 6.76823,-7.58361 1.36403,-2.99317 2.80097,-4.95308 6.18394,-8.43459 4.26109,-4.3852 4.51224,-4.55223 7.58497,-5.04445 5.74789,-0.92075 7.27642,-0.71878 9.12853,1.20619 0.91094,0.94677 1.83127,2.43644 2.04519,3.31038 0.41705,1.70386 10.00164,14.33232 18.06073,23.79644 2.71078,3.18339 4.92869,6.06489 4.92869,6.40333 0,0.33845 -0.58373,0.88133 -1.29719,1.2064 -0.85028,0.38742 -1.9854,2.0134 -3.29477,4.71955 -1.93408,3.99726 -1.99809,4.31375 -2.0132,9.95479 -0.0146,5.45126 0.10125,6.10715 1.7999,10.19015 0.99852,2.40013 1.71356,4.4502 1.58898,4.55569 -0.12458,0.1055 -2.16663,1.53965 -4.53787,3.187 -3.80067,2.6404 -4.35179,3.23008 -4.65265,4.97821 -0.83692,4.86279 -0.82703,4.8441 -2.85993,5.40872 -3.29441,0.91502 -5.01767,0.65064 -7.65676,-1.17465 l 0,0 z"
     id="path3787"
     inkscape:connector-curvature="0" />
</svg>
