<?xml version="1.0" encoding="UTF-8" standalone="no"?>
<svg
   xmlns:dc="http://purl.org/dc/elements/1.1/"
   xmlns:cc="http://creativecommons.org/ns#"
   xmlns:rdf="http://www.w3.org/1999/02/22-rdf-syntax-ns#"
   xmlns:svg="http://www.w3.org/2000/svg"
   xmlns="http://www.w3.org/2000/svg"
   xmlns:xlink="http://www.w3.org/1999/xlink"
   xmlns:sodipodi="http://sodipodi.sourceforge.net/DTD/sodipodi-0.dtd"
   xmlns:inkscape="http://www.inkscape.org/namespaces/inkscape"
   version="1.1"
   viewBox="0 0 1000 1000"
   style="background-color:blue"
   id="svg2"
   inkscape:version="0.48.4 r9939"
   width="100%"
   height="100%"
   sodipodi:docname="svg.svg">
  <metadata
     id="metadata14">
    <rdf:RDF>
      <cc:Work
         rdf:about="">
        <dc:format>image/svg+xml</dc:format>
        <dc:type
           rdf:resource="http://purl.org/dc/dcmitype/StillImage" />
      </cc:Work>
    </rdf:RDF>
  </metadata>
  <defs
     id="defs12" />
  <sodipodi:namedview
     pagecolor="#ffffff"
     bordercolor="#666666"
     borderopacity="1"
     objecttolerance="10"
     gridtolerance="10"
     guidetolerance="10"
     inkscape:pageopacity="0"
     inkscape:pageshadow="2"
     inkscape:window-width="1366"
     inkscape:window-height="719"
     id="namedview10"
     showgrid="false"
     inkscape:zoom="0.944"
     inkscape:cx="391.72055"
     inkscape:cy="786.6196"
     inkscape:window-x="0"
     inkscape:window-y="0"
     inkscape:window-maximized="1"
     inkscape:current-layer="svg2" />
  <rect
     width="800px"
     height="800px"
     style="fill:rgb(0,0,255);stroke-width:3;stroke:rgb(0,0,0)"
     id="rect4" />
  <!-- SVG content -->
  <image
     sodipodi:absref="/home/anb/sites/acopitan/oxi/main/public/image/peru-mapa.png"
     xlink:href="public/image/peru-mapa.png"
     id="image6"
     width="80%"
     height="80%"
     y="0"
     x="200" />
  <path
     style="fill:none;stroke:#000000;stroke-width:1px;stroke-linecap:butt;stroke-linejoin:miter;stroke-opacity:1"
     d="m 326.53602,365.59852 c 1.02106,0.25526 3.41446,4.17298 4.23728,4.50211 3.69855,1.47942 4.1877,14.34226 7.81251,16.15467 5.40496,3.74186 3.68602,8.89937 5.77983,10.05586 4.27685,2.36229 1.01765,-0.54048 5.61733,8.54285 0.0779,0.15385 3.36381,2.15688 4.5431,2.32848 0.51639,0.0751 5.81295,-7.24556 5.70363,-6.63937 -0.14057,0.77952 8.25066,-7.2603 7.65441,-11.95387 -0.35178,-2.76915 -17.99264,-51.39584 -44.65847,-34.24603 -0.38195,3.84253 1.4339,9.60885 3.31038,11.2553 z"
     id="path2983"
     inkscape:connector-curvature="0"
     transform="matrix(1.25,0,0,1.25,0,-125)"
     sodipodi:nodetypes="cscssssscc" />
  <path
     sodipodi:type="arc"
     style="color:#000000;fill:#ff0000;fill-opacity:1;fill-rule:nonzero;stroke:none;marker:none;visibility:visible;display:inline;overflow:visible;enable-background:accumulate"
     id="path_ancash"
     sodipodi:cx="103.2839"
     sodipodi:cy="92.690674"
     sodipodi:rx="54.865314"
     sodipodi:ry="54.865314"
     d="m 158.14921,92.690674 a 54.865314,54.865314 0 1 1 -109.730627,0 54.865314,54.865314 0 1 1 109.730627,0 z" />
  <path
     transform="translate(-2.648304,126.58899)"
     sodipodi:type="arc"
     style="color:#000000;fill:#00ff00;fill-opacity:1;fill-rule:nonzero;stroke:none;marker:none;visibility:visible;display:inline;overflow:visible;enable-background:accumulate"
     id="path2991-6"
     sodipodi:cx="103.2839"
     sodipodi:cy="92.690674"
     sodipodi:rx="54.865314"
     sodipodi:ry="54.865314"
     d="m 158.14921,92.690674 a 54.865314,54.865314 0 1 1 -109.730627,0 54.865314,54.865314 0 1 1 109.730627,0 z" />
</svg>
